<svg width="46" height="46" viewBox="0 0 46 46" fill="none" xmlns="http://www.w3.org/2000/svg">
<rect width="46" height="46" rx="23" fill="#85EE00"/>
<path d="M13 14.6667C13 13.7462 13.7462 13 14.6667 13H18C18.9205 13 19.6667 13.7462 19.6667 14.6667V31.3333C19.6667 32.2538 18.9205 33 18 33H14.6667C13.7462 33 13 32.2538 13 31.3333V14.6667Z" fill="black"/>
<path d="M31.3333 33C32.2538 33 33 32.2538 33 31.3333V28C33 27.0795 32.2538 26.3333 31.3333 26.3333H28C27.0795 26.3333 26.3333 25.5871 26.3333 24.6667V21.3333C26.3333 20.4129 25.5871 19.6667 24.6667 19.6667H21.3333C20.4129 19.6667 19.6667 18.9205 19.6667 18V28C19.6667 27.0795 20.4129 26.3333 21.3333 26.3333H24.6667C25.5871 26.3333 26.3333 27.0795 26.3333 28V31.3333C26.3333 32.2538 27.0795 33 28 33H31.3333Z" fill="black"/>
</svg>
