<svg width="70" height="83" viewBox="0 0 70 83" fill="none" xmlns="http://www.w3.org/2000/svg">
<path fill-rule="evenodd" clip-rule="evenodd" d="M47.8398 62.548C47.8342 63.0469 47.8201 63.5369 47.7974 64.0174C47.6438 67.2656 47.1012 70.0368 46.2116 72.1962C44.1358 71.1264 41.9283 69.3659 39.7085 66.99C39.38 66.6385 39.052 66.2741 38.7246 65.8974C38.7427 59.0057 37.1833 50.5536 33.9847 41.8481C30.7861 33.1427 26.5024 25.6917 22.0268 20.451C22.0323 19.9521 22.0465 19.4621 22.0692 18.9816C22.2227 15.7334 22.7653 12.9622 23.6549 10.8028C25.7308 11.8726 27.9382 13.6332 30.158 16.009C30.4865 16.3606 30.8146 16.7249 31.1419 17.1016C31.1239 23.9934 32.6833 32.4455 35.8819 41.151C39.0804 49.8563 43.3641 57.3074 47.8398 62.548ZM48.8137 63.6502C48.6838 67.1666 48.1154 70.2216 47.1174 72.6227C49.1846 73.5021 51.0376 73.633 52.6259 73.0494C54.0973 72.5088 55.3449 71.3538 56.3204 69.5897C53.8824 68.4332 51.3281 66.3978 48.8137 63.6502ZM56.768 68.6952C54.5658 67.6548 52.2031 65.8162 49.8262 63.2722C49.4977 62.9207 49.1696 62.5564 48.8423 62.1797C48.8603 55.2879 47.3009 46.8358 44.1024 38.1303C40.9038 29.4249 36.6201 21.9739 32.1444 16.7333C32.15 16.2343 32.1641 15.7443 32.1869 15.2639C32.3512 11.7863 32.9615 8.85555 33.9662 6.63689C36.1684 7.67729 38.5311 9.51581 40.908 12.0598C45.7201 17.2102 50.4517 25.1035 53.9137 34.526C57.3757 43.9484 58.8801 53.0275 58.5474 60.0682C58.383 63.5457 57.7727 66.4765 56.768 68.6952ZM57.2428 69.9871C56.1761 71.9513 54.7498 73.3344 52.9708 73.9881C51.0721 74.6857 48.9417 74.49 46.7027 73.5329C45.6161 75.7115 44.1192 77.2398 42.2208 77.9373C40.4419 78.5909 38.4595 78.4603 36.3751 77.6541C35.3085 79.6183 33.8821 81.0014 32.1031 81.6551C24.0706 84.6064 11.8898 71.5692 4.8965 52.5357C-2.09681 33.5022 -1.2544 15.68 6.77808 12.7287C8.55699 12.0751 10.5394 12.2057 12.6238 13.0119C13.6904 11.0477 15.1167 9.66462 16.8958 9.01096C18.7944 8.31335 20.9249 8.50906 23.1638 9.46612C24.2505 7.28752 25.7473 5.75928 27.6458 5.06174C29.4247 4.40814 31.407 4.53871 33.4914 5.34492C34.5581 3.38074 35.9844 1.99763 37.7634 1.34397C45.7959 -1.60733 57.9767 11.4298 64.97 30.4633C71.9633 49.4968 71.1209 67.319 63.0885 70.2703C61.3095 70.9239 59.3272 70.7933 57.2428 69.9871ZM34.4138 5.7424C35.3894 3.9783 36.6369 2.82324 38.1083 2.28262C39.7938 1.66333 41.7775 1.84867 43.9989 2.87933C46.2252 3.91228 48.6182 5.76528 51.0257 8.34206C55.8378 13.4924 60.5694 21.3857 64.0314 30.8082C67.4934 40.2307 68.9978 49.3097 68.665 56.3504C68.4985 59.873 67.8745 62.8345 66.8465 65.0631C65.8208 67.2868 64.4291 68.7124 62.7436 69.3317C61.2723 69.8723 59.5738 69.7997 57.6883 69.087C60.9258 61.9078 60.0699 48.3816 54.8524 34.1811C49.6347 19.9804 41.5294 9.11751 34.4138 5.7424ZM33.0459 6.24502C31.1604 5.53233 29.4619 5.45981 27.9906 6.00039C26.4025 6.5839 25.0752 7.88317 24.0691 9.89143C26.3841 11.0753 28.7951 13.0354 31.1705 15.6311C31.308 11.9095 31.9367 8.70474 33.0459 6.24502ZM32.1548 18.31C36.2597 23.381 40.1824 30.3611 43.1637 38.4752C46.145 46.5894 47.6746 54.4488 47.8294 60.9713C43.7245 55.9002 39.8018 48.9201 36.8205 40.8061C33.8392 32.6919 32.3096 24.8324 32.1548 18.31ZM38.696 67.3679C41.0715 69.9636 43.4824 71.9238 45.7974 73.1076C44.7913 75.1159 43.464 76.4152 41.8759 76.9987C40.4046 77.5392 38.7061 77.4667 36.8206 76.754C37.9299 74.2943 38.5586 71.0896 38.696 67.3679ZM37.6797 67.7352C37.7024 67.2547 37.7165 66.7647 37.7221 66.2658C33.2464 61.0251 28.9627 53.5741 25.7642 44.8687C22.5656 36.1632 21.0062 27.7111 21.0242 20.8194C20.6969 20.4427 20.3688 20.0784 20.0404 19.7268C17.6635 17.1828 15.3007 15.3443 13.0985 14.3039C12.0938 16.5225 11.4836 19.4533 11.3192 22.9309C10.9864 29.9716 12.4908 39.0506 15.9528 48.4731C19.4148 57.8955 24.1464 65.7888 28.9585 70.9392C31.3354 73.4832 33.6981 75.3218 35.9004 76.3622C36.905 74.1435 37.5153 71.2127 37.6797 67.7352ZM26.7028 44.5238C29.6841 52.6379 33.6068 59.618 37.7117 64.689C37.557 58.1666 36.0274 50.3071 33.046 42.193C30.0648 34.0789 26.142 27.0988 22.0371 22.0278C22.1919 28.5502 23.7215 36.4097 26.7028 44.5238ZM22.7491 10.3764C21.7512 12.7775 21.1827 15.8324 21.0529 19.3489C18.5384 16.6013 15.9842 14.5658 13.5461 13.4094C14.5217 11.6453 15.7692 10.4902 17.2406 9.94961C18.8289 9.36605 20.6819 9.49696 22.7491 10.3764ZM12.1782 13.912C8.94068 21.0913 9.79663 34.6175 15.0142 48.8179C20.2318 63.0187 28.3371 73.8815 35.4527 77.2567C34.4772 79.0208 33.2296 80.1758 31.7582 80.7164C30.0727 81.3357 28.0891 81.1504 25.8677 80.1197C23.6413 79.0868 21.2483 77.2338 18.8408 74.657C14.0287 69.5066 9.29716 61.6133 5.83515 52.1908C2.37313 42.7684 0.868706 33.6893 1.2015 26.6486C1.36801 23.1261 1.99204 20.1646 3.02001 17.9359C4.04568 15.7122 5.43746 14.2867 7.12296 13.6674C8.59425 13.1268 10.2927 13.1993 12.1782 13.912Z" fill="black"/>
</svg>
