<?xml version="1.0" encoding="utf-8"?>
<!-- Generator: Adobe Illustrator 24.2.0, SVG Export Plug-In . SVG Version: 6.00 Build 0)  -->
<svg version="1.1" id="Layer_1" xmlns="http://www.w3.org/2000/svg" xmlns:xlink="http://www.w3.org/1999/xlink" x="0px" y="0px"
	 viewBox="0 0 120 40" style="enable-background:new 0 0 120 40;" xml:space="preserve">
<style type="text/css">
	.st0{fill:#0F1319;}
</style>
<path class="st0" d="M36.6,13.2v13.2l-12.2,6.6V19.9L36.6,13.2z"/>
<path class="st0" d="M24.4,19.9v13.2l-12.2,6.6V26.5L24.4,19.9z"/>
<path class="st0" d="M12.2,39.7L0,33.1V19.9l12.2,6.6V39.7z"/>
<path class="st0" d="M0,6.6L12.2,0l12.2,6.6l-12.2,6.6L0,6.6z"/>
<path class="st0" d="M12.2,26.5L0,19.9V6.6l12.2,6.6V26.5z"/>
<path class="st0" d="M53.7,17.1v-1.2l7.5-11.2h-7.6V3.2h9.6v1.2l-7.5,11.2h7.6v1.5H53.7z"/>
<path class="st0" d="M75.2,3.2h1.7v9.2c0,0.9-0.2,1.8-0.7,2.5c-0.4,0.7-1.1,1.3-1.9,1.8c-0.8,0.4-1.8,0.6-2.8,0.6
	c-1.1,0-2-0.2-2.8-0.6c-0.8-0.4-1.4-1-1.9-1.8c-0.4-0.7-0.7-1.6-0.7-2.5V3.2h1.7v9c0,0.7,0.1,1.3,0.4,1.8c0.3,0.5,0.7,0.9,1.3,1.2
	c0.6,0.3,1.2,0.4,2,0.4c0.8,0,1.4-0.1,2-0.4c0.6-0.3,1-0.7,1.3-1.2c0.3-0.5,0.4-1.1,0.4-1.8V3.2z"/>
<path class="st0" d="M80.2,3.2h2l4.7,11.5h0.2l4.7-11.5h2v13.9h-1.6V6.5h-0.1l-4.3,10.5h-1.5L81.9,6.5h-0.1v10.5h-1.6V3.2z"/>
<path class="st0" d="M97.7,17.1H96l5.1-13.9h1.7l5.1,13.9h-1.8L102,5.4h-0.1L97.7,17.1z M98.4,11.7h7.1v1.5h-7.1V11.7z"/>
<path class="st0" d="M110.1,17.1V3.2h4.7c1.1,0,2,0.2,2.7,0.6c0.7,0.4,1.2,0.9,1.5,1.5s0.5,1.4,0.5,2.2c0,0.8-0.2,1.5-0.5,2.2
	c-0.3,0.6-0.8,1.1-1.5,1.5c-0.7,0.4-1.6,0.5-2.6,0.5H111v-1.5h3.7c0.7,0,1.3-0.1,1.8-0.3c0.5-0.2,0.8-0.5,1-0.9
	c0.2-0.4,0.3-0.9,0.3-1.4c0-0.6-0.1-1-0.3-1.5c-0.2-0.4-0.5-0.7-1-1c-0.5-0.2-1.1-0.3-1.8-0.3h-3v12.4H110.1z M116.6,10.9l3.4,6.2
	h-2l-3.4-6.2H116.6z"/>
<path class="st0" d="M65.3,26.6h-1.7c-0.1-0.5-0.3-0.9-0.5-1.3c-0.2-0.4-0.5-0.7-0.9-0.9c-0.3-0.3-0.7-0.4-1.2-0.6
	c-0.4-0.1-0.9-0.2-1.3-0.2c-0.8,0-1.6,0.2-2.3,0.6c-0.7,0.4-1.2,1-1.6,1.9c-0.4,0.8-0.6,1.8-0.6,3s0.2,2.2,0.6,3
	c0.4,0.8,0.9,1.5,1.6,1.9c0.7,0.4,1.4,0.6,2.3,0.6c0.5,0,0.9-0.1,1.3-0.2c0.4-0.1,0.8-0.3,1.2-0.6c0.4-0.3,0.7-0.6,0.9-0.9
	c0.2-0.4,0.4-0.8,0.5-1.3h1.7c-0.1,0.7-0.4,1.3-0.7,1.9c-0.3,0.6-0.7,1-1.2,1.4c-0.5,0.4-1.1,0.7-1.7,0.9c-0.6,0.2-1.3,0.3-2,0.3
	c-1.2,0-2.2-0.3-3.2-0.9c-0.9-0.6-1.6-1.4-2.2-2.5c-0.5-1.1-0.8-2.3-0.8-3.8s0.3-2.7,0.8-3.8c0.5-1.1,1.3-1.9,2.2-2.5
	c0.9-0.6,2-0.9,3.2-0.9c0.7,0,1.4,0.1,2,0.3c0.6,0.2,1.2,0.5,1.7,0.9c0.5,0.4,0.9,0.9,1.2,1.4C64.9,25.3,65.2,25.9,65.3,26.6z"/>
<path class="st0" d="M79.7,29.2c0,1.5-0.3,2.7-0.8,3.8c-0.5,1.1-1.3,1.9-2.2,2.5c-0.9,0.6-2,0.9-3.2,0.9c-1.2,0-2.2-0.3-3.2-0.9
	c-0.9-0.6-1.6-1.4-2.2-2.5c-0.5-1.1-0.8-2.3-0.8-3.8s0.3-2.7,0.8-3.8c0.5-1.1,1.3-1.9,2.2-2.5c0.9-0.6,2-0.9,3.2-0.9
	c1.2,0,2.2,0.3,3.2,0.9c0.9,0.6,1.6,1.4,2.2,2.5C79.5,26.5,79.7,27.8,79.7,29.2z M78.1,29.2c0-1.2-0.2-2.2-0.6-3
	c-0.4-0.8-0.9-1.5-1.6-1.9c-0.7-0.4-1.4-0.6-2.3-0.6c-0.8,0-1.6,0.2-2.3,0.6c-0.7,0.4-1.2,1-1.6,1.9c-0.4,0.8-0.6,1.8-0.6,3
	s0.2,2.2,0.6,3c0.4,0.8,0.9,1.5,1.6,1.9c0.7,0.4,1.4,0.6,2.3,0.6c0.8,0,1.6-0.2,2.3-0.6c0.7-0.4,1.2-1,1.6-1.9
	C77.9,31.4,78.1,30.4,78.1,29.2z"/>
<path class="st0" d="M93.5,22.3v13.9h-1.6l-7.6-10.9h-0.1v10.9h-1.7V22.3h1.6l7.6,10.9h0.1V22.3H93.5z"/>
<path class="st0" d="M104.5,25.8c-0.1-0.7-0.4-1.2-1-1.6c-0.6-0.4-1.3-0.6-2.1-0.6c-0.6,0-1.2,0.1-1.6,0.3c-0.5,0.2-0.8,0.5-1.1,0.8
	c-0.3,0.3-0.4,0.7-0.4,1.2c0,0.4,0.1,0.7,0.3,1c0.2,0.3,0.4,0.5,0.7,0.7c0.3,0.2,0.6,0.3,0.9,0.4c0.3,0.1,0.6,0.2,0.8,0.3l1.4,0.4
	c0.4,0.1,0.8,0.2,1.2,0.4c0.4,0.2,0.9,0.4,1.3,0.7c0.4,0.3,0.8,0.7,1,1.1c0.3,0.4,0.4,1,0.4,1.6c0,0.7-0.2,1.4-0.6,2
	c-0.4,0.6-1,1.1-1.7,1.4c-0.7,0.4-1.7,0.5-2.7,0.5c-1,0-1.9-0.2-2.6-0.5c-0.7-0.3-1.3-0.8-1.7-1.3c-0.4-0.6-0.6-1.2-0.7-2H98
	c0,0.5,0.2,1,0.5,1.3c0.3,0.3,0.7,0.6,1.2,0.8c0.5,0.2,1,0.2,1.5,0.2c0.6,0,1.2-0.1,1.7-0.3c0.5-0.2,0.9-0.5,1.2-0.9
	c0.3-0.4,0.4-0.8,0.4-1.3c0-0.5-0.1-0.8-0.4-1.1c-0.3-0.3-0.6-0.5-1-0.7c-0.4-0.2-0.9-0.3-1.4-0.5l-1.7-0.5
	c-1.1-0.3-1.9-0.8-2.6-1.3c-0.6-0.6-0.9-1.3-0.9-2.3c0-0.8,0.2-1.5,0.6-2c0.4-0.6,1-1,1.7-1.4c0.7-0.3,1.5-0.5,2.4-0.5
	c0.9,0,1.7,0.2,2.4,0.5c0.7,0.3,1.2,0.7,1.7,1.3c0.4,0.6,0.6,1.2,0.6,1.9H104.5z"/>
</svg>
