<?xml version="1.0" encoding="utf-8"?>
<!-- Generator: Adobe Illustrator 24.2.0, SVG Export Plug-In . SVG Version: 6.00 Build 0)  -->
<svg version="1.1" id="Layer_1" xmlns="http://www.w3.org/2000/svg" xmlns:xlink="http://www.w3.org/1999/xlink" x="0px" y="0px"
	 viewBox="0 0 100 45" style="enable-background:new 0 0 100 45;" xml:space="preserve">
<style type="text/css">
	.st0{fill:#0F1319;}
</style>
<path class="st0" d="M24.6,24.3c0.2,0,0.4,0,0.5,0.1c0.2,0.1,0.3,0.2,0.3,0.4c0,0.2,0,0.3-0.1,0.5c-0.1,0.2-0.2,0.4-0.4,0.6
	c-0.2,0.3-0.5,0.7-1,1.3c-0.5,0.6-0.9,1.1-1.4,1.5c-0.5,0.4-1.1,0.8-1.8,1.2c-0.7,0.3-1.3,0.5-1.9,0.5c-0.6,0-1.1-0.1-1.6-0.3
	c-0.4-0.2-0.8-0.5-1-0.8c-0.2-0.3-0.4-0.7-0.6-1.2c-0.2-0.5-0.3-0.9-0.3-1.2c0-0.3-0.1-0.7-0.2-1.1c0-0.3,0-0.6-0.1-0.7
	c-0.3,0.4-1,1.3-1.9,2.8c-1.1,1.8-1.9,3-2.5,3.8c-0.6,0.7-1.2,1.1-1.7,1.1c-0.3,0-0.5-0.1-0.7-0.3c-0.2-0.2-0.3-0.6-0.4-1.2
	c0-0.5,0-1.2,0.1-1.9c0.1-0.7,0.2-1.8,0.4-3.3c0.4-3.2,0.6-5.1,0.5-5.7c-0.8,0.3-1.8,1.5-3.2,3.7c-0.9,1.5-2,3.6-3.3,6.3
	C2.1,30.7,2,30.8,2,30.9c0,0.1-0.1,0.2-0.2,0.3c0,0.1-0.1,0.2-0.1,0.3c-0.1,0.1-0.1,0.2-0.2,0.3c0,0.1-0.1,0.1-0.1,0.2
	c-0.1,0.1-0.1,0.2-0.2,0.2c-0.1,0-0.2,0.1-0.3,0.1c-0.3,0-0.6-0.2-0.7-0.5c-0.3-0.7,0-2.7,0.8-6.2C1.7,22,2.5,19.8,3.4,19
	c0.2-0.2,0.5-0.3,0.8-0.2c0.3,0.1,0.5,0.3,0.6,0.6c0.1,0.4,0,1.2-0.4,2.1c-0.3,1-0.9,1.8-1.6,2.6c-0.4,1.3-0.7,2.7-0.9,4.1
	c1.5-3,2.8-5.3,3.9-6.8C6.8,19.8,7.9,19,8.9,19c0.3,0,0.6,0.1,0.8,0.3c0.2,0.3,0.4,0.7,0.4,1.3c0,0.6,0,1.3-0.1,2.1
	c-0.1,0.8-0.2,2-0.4,3.5c-0.4,2.7-0.6,4.4-0.5,5c0.5-0.4,1.5-1.7,2.9-4c0.9-1.5,1.6-2.5,2-3c0.4-0.5,0.8-0.8,1.2-0.8
	c0.2,0,0.3,0,0.5,0.1c0.1,0.1,0.2,0.2,0.3,0.3c0.1,0.1,0.2,0.3,0.2,0.5c0.1,0.2,0.1,0.4,0.1,0.6c0,0.1,0.1,0.3,0.1,0.6
	c0.1,1.2,0.3,2,0.6,2.5c0.3,0.5,0.9,0.8,1.7,0.8c0.7,0,1.4-0.3,2.2-0.9c0.8-0.6,1.4-1.2,2-1.8c0.5-0.6,0.9-1.2,1.3-1.7
	C24.3,24.4,24.4,24.3,24.6,24.3z"/>
<path class="st0" d="M57.4,10.6c0.2,0,0.3,0.1,0.5,0.2c0.1,0.1,0.2,0.3,0.2,0.5c0,0.2-0.1,0.3-0.2,0.5C57.7,12,57.6,12,57.4,12
	c-3-0.1-6.4-0.1-10.3,0.1c-0.2,0.6-0.4,1.2-0.5,1.7c-2.3,7.4-3.9,13.9-4.7,19.4c-0.6,4.3-0.6,6.8,0.1,7.6c0.1,0.1,0.2,0.3,0.1,0.5
	c0,0.2-0.1,0.3-0.2,0.5c-0.1,0.1-0.3,0.2-0.4,0.2c-0.2,0-0.4-0.1-0.5-0.2c-0.8-1-1-3.2-0.6-6.7c0.3-2.9,1-6.5,2-10.9
	c0.4-1.7,0.8-3.4,1.4-5.2c-0.5,1-1,1.8-1.5,2.7c-1.2,2.1-2.3,4-3.3,5.5c-1,1.5-1.9,2.7-2.5,3.4c-0.6,0.7-1.2,1.3-1.8,1.7
	c-0.6,0.4-1,0.6-1.2,0.7c-0.2,0-0.5,0.1-0.7,0.1c-0.8,0-1.4-0.3-1.7-0.8c-0.2-0.3-0.4-0.7-0.4-1.2c0-0.5,0-1,0.1-1.6
	c0.1-0.6,0.3-1.2,0.4-1.7c0.2-0.6,0.4-1.2,0.7-2c-1.1,1.2-2.1,2.2-3.1,3c-1,0.8-1.9,1.2-2.8,1.2c-0.2,0-0.4,0-0.5,0
	c-0.2,0-0.3-0.1-0.5-0.2c-0.2-0.1-0.3-0.2-0.5-0.4c-0.2-0.2-0.3-0.5-0.4-0.8c-0.1-0.4-0.1-0.8-0.1-1.3c0.1-0.7,0.3-1.6,0.7-2.5
	c0.4-1,0.9-1.9,1.6-2.8c0.6-0.9,1.4-1.6,2.3-2.2c0.9-0.6,1.8-0.9,2.7-0.9c0.9,0,1.6,0.3,2,1c0.2,0.4,0.3,0.8,0.3,1.3
	c0,0.5-0.1,0.9-0.2,1.2c-0.1,0.2-0.2,0.3-0.4,0.3c-0.2,0-0.3,0-0.5,0c-0.2-0.1-0.3-0.2-0.3-0.4c0-0.2,0-0.4,0.1-0.5
	c0.2-0.4,0.2-0.8,0-1.1c-0.2-0.3-0.4-0.4-0.8-0.4c-0.8,0-1.7,0.4-2.6,1.3C27.3,22,26.6,23,26,24.1c-0.6,1.1-0.9,2.1-1,3
	c-0.1,0.8,0,1.2,0.4,1.3c0.3,0,0.7,0,1.1-0.2c0.4-0.2,0.8-0.4,1.2-0.7c0.4-0.3,0.8-0.7,1.3-1.2c0.5-0.5,0.9-0.9,1.2-1.2
	c0.3-0.3,0.6-0.7,1-1.2c0.6-0.7,1-1.1,1.2-1.3c0.2-0.2,0.5-0.3,0.7-0.3c0.2,0,0.4,0,0.6,0.2c0.1,0.1,0.2,0.3,0.2,0.5
	c0,0.2,0,0.4-0.1,0.7c-0.1,0.3-0.2,0.7-0.5,1.4c-1.3,3.4-1.7,5.5-1.3,6.1c0.1,0.2,0.3,0.2,0.6,0.2c0.1,0,0.3,0,0.4-0.1
	c0.2,0,0.4-0.2,0.7-0.3c0.3-0.2,0.6-0.4,0.9-0.7c0.3-0.3,0.7-0.7,1.2-1.3c0.5-0.5,1-1.2,1.5-1.9c0.5-0.7,1.1-1.6,1.8-2.7
	c0.7-1.1,1.4-2.3,2.1-3.6c1.5-2.6,3-5.5,4.5-8.7c-4.4,0.3-8.2,0.8-11.4,1.6c-1.4,0.9-2.7,1.3-3.9,1.3c-0.3,0-0.5,0-0.7-0.1
	c-0.3-0.2-0.4-0.4-0.3-0.7c0-0.3,0.2-0.5,0.6-0.6c3.9-1.5,9.3-2.5,16.3-2.9c1-3.1,1.9-5.5,2.7-7.1c0.5-1,0.9-1.8,1.2-2.1
	C50.3,1.2,50.7,1,51,1c0.3,0,0.6,0.2,0.8,0.5c0.5,0.8-0.8,3.9-3.9,9.3C51.4,10.6,54.6,10.5,57.4,10.6z"/>
<path class="st0" d="M64.8,24.6c0.2,0,0.4,0,0.5,0.1c0.2,0.1,0.3,0.2,0.3,0.4c0,0.2,0,0.4-0.1,0.5c-0.6,1.1-1.3,2.2-2.1,3.3
	c-1.7,2.4-3,3.6-4.1,3.6c-0.5,0-0.9-0.2-1.3-0.6c-0.5-0.5-0.7-1.3-0.8-2.5c-0.1-1.2,0-2.5,0.1-3.8c0.2-2.5,0.2-3.9-0.1-4.1
	c-0.5,0-1.4,0.9-2.6,2.6C54,25.1,52.7,27,51,29.9c-1.6,2.6-2.7,4.3-3.4,5.2c-0.7,0.9-1.3,1.4-1.8,1.4c-0.4,0-0.7-0.2-0.8-0.6
	c-0.1-0.2-0.1-0.4-0.1-0.7c0-2.1,1.7-8.5,5-19.2c1.2-4,2.4-7.6,3.5-10.8c0.5-1.5,0.9-2.6,1.2-3.5C54.8,1,55,0.5,55.2,0.3
	S55.5,0,55.8,0c0.3,0,0.5,0.1,0.7,0.4c0.3,0.5,0,2-0.7,4.5C54.9,7.6,54,9.6,53,10.9c0,0-0.1,0.1-0.1,0.1c-0.7,2.3-1.4,4.6-2.2,6.9
	c-2.6,8.6-4.1,14.2-4.4,16.7c0.6-0.7,1.8-2.5,3.6-5.4c2-3.2,3.5-5.6,4.6-7c1.1-1.4,2.1-2.2,3-2.2c0.4,0,0.7,0.1,0.9,0.4
	c0.3,0.3,0.5,1,0.6,1.9c0.1,0.9,0,2-0.1,3.3c-0.2,3.1-0.1,4.9,0.3,5.3c0.1,0.1,0.2,0.1,0.3,0.1c0.3,0,0.8-0.3,1.4-0.9
	c0.6-0.6,1.2-1.4,1.8-2.3c0.7-0.9,1.2-1.9,1.8-2.9C64.5,24.7,64.7,24.6,64.8,24.6z"/>
<path class="st0" d="M76.7,24.7c0.2,0,0.3,0,0.5,0.2c0.1,0.1,0.2,0.3,0.2,0.5c0,0.2,0,0.3-0.1,0.5c-0.2,0.2-0.4,0.5-0.7,0.8
	c-0.3,0.3-0.9,0.8-1.7,1.6c-0.8,0.7-1.6,1.4-2.4,1.9c-0.8,0.5-1.7,1-2.8,1.5c-1.1,0.4-2.1,0.7-3,0.7c-1,0-1.8-0.3-2.4-0.9
	c-0.6-0.6-0.9-1.4-0.9-2.5c0-1.8,0.6-3.6,1.8-5.5c0.6-1,1.3-1.7,2-2.3c0.7-0.5,1.4-0.8,2.1-0.8c0.7,0,1.2,0.2,1.6,0.6
	c0.3,0.4,0.5,0.8,0.5,1.4c0,1-0.4,2-1.2,3c-0.8,1-1.7,1.5-2.6,1.5c-0.9,0-1.6-0.4-2.1-1.3c-0.5,1.2-0.8,2.3-0.8,3.2
	c0,0.7,0.2,1.2,0.5,1.5c0.3,0.3,0.8,0.5,1.5,0.5c0.6,0,1.2-0.1,1.9-0.3c0.7-0.2,1.3-0.5,1.9-0.8c0.6-0.3,1.2-0.7,1.8-1.2
	c0.6-0.5,1.2-0.9,1.6-1.3c0.4-0.4,0.9-0.8,1.3-1.2c0.4-0.4,0.7-0.7,0.8-0.8c0.1-0.2,0.2-0.3,0.3-0.3C76.3,24.8,76.5,24.7,76.7,24.7z
	 M69.2,21.6c-0.4,0-0.9,0.2-1.5,0.7c-0.5,0.5-1,1.1-1.5,1.8c0.1,0.1,0.2,0.2,0.2,0.2c0.3,0.7,0.7,1.1,1.2,1.1c0.3,0,0.7-0.2,1.1-0.5
	c0.4-0.4,0.7-0.8,1-1.3c0.3-0.5,0.4-0.9,0.4-1.3c0-0.2-0.1-0.4-0.2-0.5C69.7,21.6,69.5,21.6,69.2,21.6z"/>
<path class="st0" d="M87.4,32.6c-0.9,1-1.9,1.5-2.9,1.5c-1.4,0-2.5-0.8-3.2-2.3c-0.4-0.8-0.6-1.7-0.7-2.8c-1.7,1.9-3.3,2.9-4.6,2.9
	c-0.8,0-1.2-0.4-1.4-1.1c-0.3-1,0.2-2.8,1.4-5.3c1.1-2.3,1.9-3.6,2.4-3.9c0.3-0.2,0.6-0.2,0.9,0.1c0.2,0.2,0.3,0.5,0.2,1
	c-0.1,0.5-0.3,1-0.6,1.6c-0.3,0.5-0.7,1-1.3,1.3c0,0-0.1,0.1-0.2,0.1c-0.2,0.4-0.4,0.7-0.5,1c-0.4,0.8-0.7,1.6-0.8,2.2
	c-0.2,0.6-0.3,1-0.2,1.3c0,0.2,0,0.3,0.1,0.5c0,0,0.1,0,0.1,0c0.6,0,1.3-0.4,2.2-1.1c0.9-0.7,1.6-1.6,2.3-2.5c0.1-2,0.7-3,1.6-3
	c0.3,0,0.5,0.1,0.7,0.3c0.1,0.2,0.2,0.4,0.2,0.6c0,0.6-0.4,1.4-1.2,2.5c0,1.4,0.1,2.6,0.6,3.6c0.5,1.2,1.2,1.7,2.1,1.7
	c0.6,0,1.2-0.3,1.8-1c0.9-1,1.6-2.3,2.2-4c0.6-1.7,0.8-3.5,0.7-5.3c0-0.1,0-0.2,0-0.3c0,0,0,0,0-0.1c0,0,0,0,0,0
	c0-0.2,0-0.4,0.1-0.5c0.2-0.3,0.4-0.4,0.7-0.3c0.3,0.1,0.5,0.3,0.5,0.6c0,0.1,0,0.2,0,0.3c0.2,1,0.6,1.8,1.4,2.3
	c1.3,0.9,3.4,0.7,6.3-0.4c0.1,0,0.2-0.1,0.3,0c0.1,0,0.2,0.1,0.3,0.1c0.1,0.1,0.2,0.2,0.2,0.3c0.1,0.2,0.1,0.3,0,0.5
	c-0.1,0.2-0.2,0.3-0.4,0.3c-3.8,1.6-6.6,1.5-8.3-0.3c-0.2,1.5-0.6,2.9-1.1,4.2C88.8,30.6,88.2,31.7,87.4,32.6z"/>
<path class="st0" d="M64.4,45c-0.5,0-1-0.1-1.4-0.4c-0.4-0.3-0.7-0.6-0.9-1c-0.2-0.4-0.3-0.9-0.3-1.5c0-0.6,0.1-1.1,0.3-1.5
	c0.2-0.4,0.5-0.8,0.9-1c0.4-0.3,0.8-0.4,1.4-0.4c0.4,0,0.8,0.1,1.1,0.2c0.3,0.1,0.6,0.4,0.8,0.6c0.2,0.3,0.3,0.6,0.4,0.9h-0.9
	c-0.1-0.3-0.2-0.5-0.4-0.7c-0.2-0.2-0.5-0.3-0.9-0.3c-0.3,0-0.6,0.1-0.9,0.3c-0.3,0.2-0.5,0.4-0.6,0.7c-0.1,0.3-0.2,0.7-0.2,1.1
	c0,0.4,0.1,0.8,0.2,1.2c0.1,0.3,0.3,0.6,0.6,0.8c0.3,0.2,0.6,0.3,0.9,0.3c0.2,0,0.4,0,0.6-0.1c0.2-0.1,0.3-0.2,0.5-0.3
	c0.1-0.1,0.2-0.3,0.3-0.5h0.9c0,0.3-0.2,0.6-0.4,0.9c-0.2,0.3-0.4,0.5-0.8,0.6C65.2,44.9,64.8,45,64.4,45z"/>
<path class="st0" d="M70.2,45c-0.5,0-1-0.1-1.4-0.4c-0.4-0.2-0.7-0.6-0.9-1c-0.2-0.4-0.3-1-0.3-1.5c0-0.6,0.1-1.1,0.3-1.6
	c0.2-0.4,0.5-0.8,0.9-1c0.4-0.2,0.8-0.4,1.4-0.4c0.5,0,1,0.1,1.4,0.4c0.4,0.2,0.7,0.6,0.9,1c0.2,0.4,0.3,1,0.3,1.6
	c0,0.6-0.1,1.1-0.3,1.5c-0.2,0.4-0.5,0.8-0.9,1C71.2,44.9,70.7,45,70.2,45z M70.2,44.2c0.4,0,0.7-0.1,1-0.3c0.3-0.2,0.4-0.5,0.6-0.8
	c0.1-0.3,0.2-0.7,0.2-1.1c0-0.4-0.1-0.7-0.2-1.1c-0.1-0.3-0.3-0.6-0.6-0.8c-0.3-0.2-0.6-0.3-1-0.3c-0.4,0-0.7,0.1-1,0.3
	c-0.3,0.2-0.4,0.5-0.6,0.8c-0.1,0.3-0.2,0.7-0.2,1.1c0,0.4,0.1,0.7,0.2,1.1c0.1,0.3,0.3,0.6,0.6,0.8C69.5,44.1,69.8,44.2,70.2,44.2z
	"/>
<path class="st0" d="M76.5,45c-0.5,0-1-0.1-1.4-0.4c-0.4-0.2-0.7-0.6-0.9-1c-0.2-0.4-0.3-1-0.3-1.5c0-0.6,0.1-1.1,0.3-1.6
	c0.2-0.4,0.5-0.8,0.9-1c0.4-0.2,0.8-0.4,1.4-0.4c0.5,0,1,0.1,1.4,0.4c0.4,0.2,0.7,0.6,0.9,1c0.2,0.4,0.3,1,0.3,1.6
	c0,0.6-0.1,1.1-0.3,1.5c-0.2,0.4-0.5,0.8-0.9,1C77.4,44.9,77,45,76.5,45z M76.5,44.2c0.4,0,0.7-0.1,1-0.3c0.3-0.2,0.4-0.5,0.6-0.8
	c0.1-0.3,0.2-0.7,0.2-1.1c0-0.4-0.1-0.7-0.2-1.1c-0.1-0.3-0.3-0.6-0.6-0.8c-0.3-0.2-0.6-0.3-1-0.3c-0.4,0-0.7,0.1-1,0.3
	c-0.3,0.2-0.4,0.5-0.6,0.8c-0.1,0.3-0.2,0.7-0.2,1.1c0,0.4,0.1,0.7,0.2,1.1c0.1,0.3,0.3,0.6,0.6,0.8C75.8,44.1,76.1,44.2,76.5,44.2z
	"/>
<path class="st0" d="M81,44.9c-0.2,0-0.3-0.1-0.5-0.2c-0.1-0.1-0.2-0.3-0.2-0.5c0-0.2,0.1-0.3,0.2-0.5c0.1-0.1,0.3-0.2,0.5-0.2
	c0.2,0,0.3,0.1,0.5,0.2c0.1,0.1,0.2,0.3,0.2,0.5c0,0.1,0,0.2-0.1,0.3c-0.1,0.1-0.1,0.2-0.2,0.2C81.3,44.9,81.2,44.9,81,44.9z"/>
</svg>
