<svg width="226" height="229" viewBox="0 0 226 229" fill="none" xmlns="http://www.w3.org/2000/svg">
<path d="M34.0883 171.801L35.1671 173.519L18.3723 177.41L17.31 175.718L27.864 161.89L28.9429 163.608L19.9713 175.11L20.0377 175.215L34.0883 171.801ZM28.3483 174.628L23.9997 167.703L25.4686 166.751L29.8173 173.676L28.3483 174.628Z" fill="white"/>
<path d="M26.772 159.39L13.6468 170.057L12.8772 168.242L23.6529 159.756L23.5918 159.612L10.1775 161.874L9.32241 159.857L20.0737 151.314L20.0126 151.17L6.62275 153.49L5.85317 151.675L22.3988 149.075L23.1806 150.919L12.739 159.461L12.7878 159.576L25.9902 157.546L26.772 159.39Z" fill="white"/>
<path d="M21.0273 144.497L21.5169 146.478L4.46954 144.991L3.98745 143.04L18.2026 133.065L18.6922 135.047L6.68635 143.283L6.71647 143.405L21.0273 144.497ZM14.7405 145.423L12.767 137.436L14.4462 136.98L16.4197 144.967L14.7405 145.423Z" fill="white"/>
<path d="M17.9448 130.37L1.90267 132.12L1.44181 126.687C1.33526 125.431 1.46191 124.376 1.82174 123.523C2.17635 122.671 2.70799 122.011 3.41667 121.543C4.12535 121.074 4.95228 120.789 5.89747 120.686C6.84265 120.582 7.69722 120.685 8.46116 120.992C9.2251 121.3 9.84991 121.831 10.3356 122.586C10.8161 123.342 11.1091 124.343 11.2148 125.589L11.5877 129.986L9.83314 130.177L9.46553 125.843C9.39272 124.985 9.20878 124.307 8.91373 123.811C8.61822 123.31 8.23072 122.967 7.7512 122.781C7.26602 122.591 6.70227 122.531 6.05996 122.601C5.41765 122.671 4.86649 122.853 4.40649 123.146C3.94649 123.439 3.60836 123.865 3.39209 124.422C3.17061 124.979 3.09672 125.693 3.17042 126.562L3.46077 129.985L17.7796 128.422L17.9448 130.37ZM10.0964 123.587L16.9671 118.844L17.1589 121.105L10.2828 125.786L10.0964 123.587Z" fill="white"/>
<path d="M17.3395 110.971L16.9808 115.957L0.922808 115.17L1.29742 109.964C1.41019 108.397 1.82815 107.072 2.55132 105.988C3.26925 104.904 4.24811 104.095 5.48791 103.559C6.72246 103.023 8.17087 102.796 9.83312 102.878C11.5058 102.959 12.9243 103.33 14.0887 103.988C15.2478 104.647 16.1102 105.565 16.6759 106.743C17.2363 107.921 17.4575 109.331 17.3395 110.971ZM15.3965 113.916L15.6054 111.013C15.7015 109.677 15.5251 108.558 15.076 107.655C14.6269 106.751 13.9448 106.061 13.0297 105.583C12.1146 105.106 11.0037 104.835 9.69689 104.771C8.40055 104.707 7.26922 104.866 6.3029 105.246C5.33136 105.626 4.56422 106.227 4.00148 107.049C3.43352 107.871 3.10414 108.913 3.01332 110.175L2.78855 113.298L15.3965 113.916Z" fill="white"/>
<path d="M22.409 84.8056L5.83708 83.2001L6.5837 81.3394L19.9975 82.8545L20.0568 82.7068L9.20277 74.8123L10.0323 72.7449L23.4699 74.2009L23.5291 74.0532L12.6514 66.2178L13.398 64.3571L26.6517 74.2323L25.8932 76.1225L12.6704 74.8855L12.623 75.0037L23.1675 82.9154L22.409 84.8056Z" fill="white"/>
<path d="M17.8879 57.2893L31.6679 65.3246L30.6597 67.0244L16.8797 58.9892L17.8879 57.2893Z" fill="white"/>
<path d="M31.9933 37.8282L44.3012 47.9605L43.0849 49.438L27.7655 48.3527L27.6642 48.4759L37.3278 56.4313L36.071 57.958L23.7631 47.8257L24.9794 46.3482L40.3431 47.4286L40.4444 47.3055L30.7568 39.3303L31.9933 37.8282Z" fill="white"/>
<path d="M45.4743 25.7035L56.007 37.6833L54.58 38.9568L39.6749 35.4727L39.556 35.5788L47.8258 44.9848L46.3513 46.3008L35.8186 34.321L37.2455 33.0475L52.195 36.5338L52.3139 36.4276L44.0236 26.9982L45.4743 25.7035Z" fill="white"/>
<path d="M55.3779 18.9185L63.8761 32.4508L62.2202 33.5237L53.7221 19.9913L55.3779 18.9185Z" fill="white"/>
<path d="M76.724 8.01885L82.9784 22.7705L81.2399 23.5479L68.245 15.5803L68.1001 15.6451L73.0108 27.2274L71.2143 28.0307L64.9599 13.279L66.6985 12.5017L79.7345 20.4851L79.8794 20.4204L74.9565 8.80917L76.724 8.01885Z" fill="white"/>
<path d="M93.5397 8.33529C93.245 7.86773 92.9101 7.46803 92.5349 7.13618C92.1635 6.79787 91.7538 6.53504 91.3057 6.34768C90.8627 6.15893 90.3857 6.0526 89.8749 6.02866C89.364 6.00473 88.8262 6.06944 88.2614 6.2228C87.3353 6.47424 86.5522 6.94168 85.912 7.62512C85.2719 8.30856 84.8428 9.17595 84.6248 10.2273C84.4067 11.2786 84.4647 12.48 84.7986 13.8315C85.1326 15.1829 85.6408 16.2621 86.3234 17.0689C87.006 17.8757 87.7931 18.4128 88.6845 18.6804C89.5759 18.948 90.505 18.9506 91.4718 18.6881C92.3673 18.4449 93.1089 18.0402 93.6966 17.474C94.2881 16.9014 94.6881 16.2127 94.8964 15.408C95.1086 14.5968 95.0967 13.7136 94.8607 12.7584L95.4709 12.7228L90.7693 13.9994L90.355 12.3228L96.3083 10.7063L96.7226 12.383C97.0403 13.6684 97.0417 14.8607 96.7269 15.96C96.4172 17.0579 95.8462 17.9991 95.0138 18.7835C94.1853 19.5615 93.1502 20.119 91.9087 20.4561C90.5247 20.8319 89.2282 20.8369 88.0193 20.4712C86.8155 20.1041 85.7729 19.4005 84.8915 18.3603C84.0152 17.3188 83.3736 15.975 82.9668 14.3288C82.6618 13.0942 82.5528 11.9392 82.64 10.8638C82.7311 9.78186 82.9959 8.80998 83.4345 7.94814C83.8731 7.0863 84.4638 6.35665 85.2066 5.75918C85.9495 5.16172 86.8221 4.7269 87.8245 4.45473C88.6488 4.23091 89.4479 4.14677 90.2217 4.2023C90.9994 4.25137 91.724 4.42601 92.3955 4.72621C93.0707 5.01996 93.6739 5.42817 94.2048 5.95085C94.7345 6.46846 95.1641 7.08643 95.4936 7.80476L93.5397 8.33529Z" fill="white"/>
<path d="M117.056 16.9378L115.018 16.8379L122.076 0.971368L124.084 1.06969L128.817 17.5139L126.779 17.4141L122.959 3.57944L122.833 3.57329L117.056 16.9378ZM118.263 10.664L126.48 11.0665L126.355 12.8019L118.138 12.3994L118.263 10.664Z" fill="white"/>
<path d="M144.101 9.2892C144.053 8.73314 143.939 8.21991 143.759 7.7495C143.585 7.27501 143.343 6.85107 143.033 6.4777C142.729 6.10539 142.357 5.79192 141.918 5.53727C141.479 5.28261 140.976 5.09559 140.41 4.9762C139.481 4.78045 138.58 4.84468 137.708 5.16891C136.835 5.49314 136.066 6.07953 135.399 6.92808C134.731 7.77663 134.239 8.88641 133.922 10.2574C133.605 11.6284 133.565 12.8334 133.801 13.8723C134.037 14.9112 134.487 15.7547 135.151 16.4027C135.815 17.0506 136.632 17.4768 137.601 17.6812C138.5 17.8705 139.335 17.8439 140.109 17.6015C140.888 17.355 141.552 16.9164 142.099 16.2858C142.652 15.6511 143.041 14.8493 143.265 13.8803L143.818 14.1266L139.102 13.1328L139.496 11.4319L145.467 12.6904L145.074 14.3912C144.772 15.6952 144.234 16.771 143.461 17.6187C142.692 18.4674 141.764 19.0556 140.676 19.3832C139.595 19.7067 138.432 19.7372 137.187 19.4748C135.799 19.1822 134.655 18.5953 133.756 17.714C132.862 16.8338 132.263 15.7236 131.957 14.3836C131.656 13.0446 131.699 11.5401 132.085 9.8702C132.375 8.61775 132.801 7.52653 133.364 6.59654C133.933 5.66247 134.605 4.90692 135.381 4.32987C136.157 3.75283 137.006 3.36438 137.93 3.16452C138.854 2.96466 139.819 2.97068 140.824 3.18257C141.651 3.35681 142.393 3.6455 143.049 4.04863C143.711 4.44769 144.27 4.93573 144.726 5.51276C145.187 6.08571 145.534 6.72896 145.765 7.44251C145.997 8.15091 146.096 8.90414 146.061 9.70223L144.101 9.2892Z" fill="white"/>
<path d="M146.664 21.7266L152.732 6.60495L161.732 10.0694L161.081 11.6938L153.886 8.92447L151.836 14.0339L158.564 16.6238L157.912 18.2482L151.184 15.6583L149.122 20.7973L156.433 23.6114L155.781 25.2358L146.664 21.7266Z" fill="white"/>
<path d="M178.871 19.3535L170.545 33.391L168.93 32.4494L167.958 17.0492L167.824 16.9707L161.287 27.9923L159.618 27.0193L167.944 12.9818L169.559 13.9234L170.541 29.3667L170.676 29.4452L177.229 18.3962L178.871 19.3535Z" fill="white"/>
<path d="M189.627 33.8571L188.137 32.6301C188.41 32.1184 188.573 31.6057 188.627 31.0918C188.684 30.5813 188.649 30.0846 188.523 29.6016C188.403 29.1178 188.203 28.6634 187.921 28.2384C187.639 27.8135 187.293 27.4328 186.885 27.0964C186.139 26.4829 185.306 26.12 184.383 26.0078C183.464 25.8988 182.518 26.0731 181.543 26.5306C180.572 26.9914 179.637 27.7676 178.739 28.8593C177.84 29.951 177.258 31.0175 176.992 32.0587C176.73 33.1033 176.741 34.0659 177.024 34.9464C177.312 35.8302 177.828 36.5789 178.573 37.1924C178.982 37.5288 179.422 37.7945 179.893 37.9897C180.364 38.1848 180.847 38.2965 181.341 38.3247C181.843 38.3522 182.339 38.2887 182.829 38.1344C183.326 37.9793 183.798 37.7205 184.245 37.358L185.735 38.585C185.092 39.137 184.413 39.5454 183.698 39.8102C182.982 40.075 182.257 40.2046 181.523 40.1988C180.791 40.1889 180.075 40.0504 179.374 39.7832C178.678 39.5194 178.019 39.1318 177.398 38.6206C176.348 37.7564 175.631 36.7253 175.246 35.5271C174.861 34.3289 174.833 33.0526 175.161 31.6982C175.49 30.3437 176.202 29.0016 177.296 27.6719C178.391 26.3422 179.571 25.386 180.837 24.8034C182.104 24.2207 183.361 24.0031 184.611 24.1507C185.861 24.2982 187.011 24.804 188.06 25.6682C188.681 26.1794 189.188 26.7516 189.581 27.3849C189.978 28.0214 190.25 28.6996 190.397 29.4195C190.547 30.1353 190.561 30.8696 190.438 31.6226C190.319 32.3715 190.049 33.1163 189.627 33.8571Z" fill="white"/>
<path d="M195.597 33.1492L197.057 34.8105L194.294 43.2059L194.418 43.3462L203.023 41.5959L204.484 43.2572L193.519 45.3174L188.501 49.7959L187.226 48.3452L192.244 43.8667L195.597 33.1492Z" fill="white"/>
<path d="M217.106 90.4263L215.427 90.8822L213.739 84.0538L215.419 83.5979L217.106 90.4263Z" fill="white"/>
<path d="M219.924 140.739C220.721 140.809 221.41 140.56 221.992 139.991C222.573 139.421 222.974 138.657 223.196 137.699C223.358 136.998 223.387 136.361 223.284 135.788C223.18 135.22 222.965 134.747 222.64 134.371C222.314 133.999 221.901 133.761 221.401 133.656C220.982 133.567 220.599 133.592 220.252 133.73C219.908 133.873 219.6 134.084 219.327 134.362C219.059 134.64 218.821 134.941 218.612 135.265C218.409 135.59 218.235 135.891 218.09 136.169L217.29 137.686C217.087 138.076 216.833 138.504 216.528 138.969C216.221 139.439 215.85 139.872 215.417 140.267C214.987 140.668 214.484 140.968 213.908 141.165C213.333 141.363 212.678 141.384 211.943 141.23C211.095 141.051 210.382 140.665 209.801 140.073C209.22 139.486 208.827 138.722 208.621 137.781C208.415 136.846 208.452 135.77 208.733 134.553C208.995 133.419 209.403 132.476 209.958 131.722C210.511 130.974 211.166 130.431 211.924 130.093C212.68 129.761 213.494 129.654 214.366 129.773L213.909 131.752C213.305 131.679 212.768 131.777 212.299 132.046C211.834 132.321 211.445 132.709 211.131 133.21C210.821 133.718 210.593 134.286 210.448 134.915C210.279 135.647 210.244 136.329 210.344 136.96C210.45 137.593 210.675 138.125 211.02 138.554C211.37 138.985 211.831 139.26 212.402 139.38C212.923 139.49 213.38 139.433 213.775 139.208C214.169 138.983 214.524 138.652 214.839 138.216C215.154 137.779 215.452 137.299 215.734 136.775L216.736 134.943C217.374 133.78 218.103 132.907 218.923 132.323C219.743 131.739 220.681 131.558 221.738 131.781C222.616 131.966 223.326 132.367 223.868 132.984C224.415 133.607 224.775 134.364 224.949 135.255C225.127 136.152 225.099 137.105 224.866 138.115C224.63 139.136 224.239 140.005 223.693 140.722C223.152 141.441 222.517 141.966 221.787 142.299C221.056 142.637 220.292 142.735 219.495 142.594L219.924 140.739Z" fill="white"/>
<path d="M218.931 155.985L204.018 150.244L204.753 148.413L219.666 154.153L218.931 155.985Z" fill="white"/>
<path d="M207.744 177.26L193.964 169.225L194.94 167.579L210.296 166.239L210.377 166.102L199.558 159.793L200.566 158.093L214.346 166.128L213.37 167.774L197.971 169.126L197.89 169.263L208.736 175.587L207.744 177.26Z" fill="white"/>
<path d="M192.967 188.121L194.224 186.594C194.727 186.857 195.234 187.009 195.744 187.05C196.251 187.096 196.746 187.049 197.23 186.911C197.715 186.779 198.172 186.567 198.602 186.273C199.031 185.98 199.419 185.624 199.763 185.205C200.392 184.442 200.773 183.595 200.906 182.666C201.036 181.74 200.885 180.793 200.453 179.824C200.017 178.859 199.266 177.938 198.2 177.061C197.135 176.183 196.087 175.624 195.056 175.381C194.022 175.143 193.063 175.176 192.18 175.482C191.293 175.792 190.536 176.328 189.907 177.092C189.563 177.51 189.288 177.959 189.082 178.437C188.877 178.915 188.754 179.403 188.714 179.9C188.675 180.405 188.727 180.902 188.869 181.39C189.012 181.887 189.258 182.355 189.608 182.795L188.352 184.321C187.817 183.689 187.427 183.016 187.18 182.303C186.933 181.59 186.821 180.865 186.844 180.127C186.871 179.391 187.026 178.669 187.309 177.958C187.588 177.251 187.989 176.58 188.513 175.944C189.398 174.869 190.442 174.123 191.644 173.708C192.846 173.293 194.117 173.235 195.458 173.533C196.799 173.831 198.119 174.515 199.417 175.583C200.715 176.652 201.639 177.816 202.189 179.074C202.739 180.333 202.926 181.592 202.75 182.851C202.573 184.111 202.043 185.278 201.157 186.353C200.634 186.989 200.052 187.512 199.412 187.922C198.769 188.336 198.087 188.625 197.367 188.789C196.651 188.957 195.92 188.988 195.173 188.883C194.43 188.781 193.695 188.527 192.967 188.121Z" fill="white"/>
<path d="M181.47 183.851L192.003 195.831L184.654 202.389L183.522 201.103L189.397 195.86L185.838 191.812L180.344 196.715L179.212 195.428L184.706 190.525L181.127 186.454L175.157 191.781L174.026 190.495L181.47 183.851Z" fill="white"/>
<path d="M156.254 201.883L156.803 203.179L154.166 210.699C153.856 211.58 153.613 212.334 153.437 212.962C153.262 213.594 153.172 214.154 153.167 214.642C153.158 215.137 153.25 215.61 153.441 216.062C153.661 216.58 153.977 216.973 154.389 217.24C154.796 217.509 155.258 217.651 155.776 217.665C156.293 217.68 156.82 217.567 157.356 217.327C157.926 217.072 158.373 216.732 158.698 216.307C159.021 215.889 159.209 215.419 159.264 214.897C159.314 214.378 159.22 213.838 158.981 213.276L160.691 212.511C161.057 213.376 161.179 214.224 161.055 215.056C160.931 215.889 160.601 216.642 160.065 217.315C159.524 217.991 158.822 218.522 157.957 218.909C157.088 219.298 156.241 219.46 155.415 219.395C154.589 219.33 153.853 219.073 153.209 218.624C152.565 218.176 152.082 217.572 151.761 216.813C151.53 216.27 151.405 215.695 151.383 215.088C151.358 214.488 151.453 213.763 151.667 212.913C151.878 212.071 152.217 211.005 152.682 209.718L154.511 204.684L154.462 204.569L147.566 207.652L146.894 206.068L156.254 201.883Z" fill="white"/>
<path d="M137.059 208.832C138.209 208.519 139.266 208.566 140.229 208.971C141.194 209.382 142.037 210.126 142.76 211.204C143.484 212.287 144.055 213.677 144.474 215.373C144.891 217.06 145.033 218.559 144.901 219.869C144.765 221.185 144.37 222.268 143.717 223.118C143.059 223.974 142.161 224.557 141.021 224.866C139.881 225.176 138.828 225.123 137.862 224.707C136.893 224.298 136.046 223.552 135.322 222.469C134.595 221.393 134.023 220.011 133.606 218.324C133.186 216.628 133.042 215.122 133.173 213.806C133.306 212.496 133.699 211.417 134.352 210.567C135.007 209.722 135.909 209.144 137.059 208.832ZM137.473 210.508C136.334 210.818 135.584 211.607 135.224 212.876C134.864 214.144 134.935 215.795 135.438 217.827C135.771 219.179 136.201 220.29 136.726 221.161C137.245 222.034 137.836 222.646 138.499 222.998C139.156 223.35 139.861 223.425 140.614 223.22C141.744 222.913 142.489 222.117 142.85 220.832C143.213 219.552 143.143 217.898 142.643 215.871C142.309 214.519 141.882 213.41 141.364 212.542C140.846 211.675 140.258 211.067 139.602 210.719C138.941 210.373 138.231 210.302 137.473 210.508Z" fill="white"/>
<path d="M127.066 211.262L127.186 212.675L122.384 219.063C121.82 219.811 121.359 220.458 120.999 221.005C120.64 221.556 120.383 222.065 120.227 222.531C120.067 223.003 120.008 223.485 120.05 223.977C120.098 224.542 120.275 225.017 120.581 225.401C120.883 225.785 121.275 226.065 121.759 226.239C122.243 226.413 122.775 226.469 123.355 226.406C123.971 226.338 124.498 226.151 124.936 225.845C125.369 225.544 125.691 225.152 125.903 224.669C126.11 224.187 126.187 223.64 126.135 223.028L127.984 222.826C128.064 223.768 127.917 224.619 127.544 225.378C127.171 226.137 126.628 226.756 125.915 227.236C125.197 227.715 124.37 228.006 123.436 228.108C122.496 228.211 121.646 228.103 120.886 227.784C120.127 227.466 119.512 226.991 119.042 226.361C118.572 225.731 118.302 225.002 118.232 224.175C118.182 223.584 118.24 222.994 118.406 222.405C118.568 221.822 118.88 221.157 119.344 220.409C119.803 219.667 120.45 218.751 121.285 217.661L124.56 213.405L124.55 213.28L117.093 214.093L116.946 212.366L127.066 211.262Z" fill="white"/>
<path d="M111.82 212.428L111.717 213.848L105.997 219.425C105.326 220.079 104.771 220.648 104.332 221.133C103.893 221.623 103.56 222.087 103.335 222.525C103.104 222.967 102.97 223.436 102.935 223.93C102.894 224.498 102.994 224.997 103.236 225.425C103.473 225.854 103.816 226.193 104.265 226.441C104.714 226.69 105.228 226.829 105.808 226.857C106.425 226.888 106.973 226.785 107.451 226.55C107.924 226.32 108.303 225.982 108.587 225.537C108.865 225.091 109.027 224.561 109.071 223.946L110.921 224.036C110.853 224.983 110.576 225.803 110.091 226.497C109.606 227.191 108.975 227.72 108.199 228.083C107.417 228.446 106.559 228.604 105.623 228.558C104.682 228.512 103.863 228.272 103.165 227.836C102.467 227.401 101.936 226.834 101.572 226.135C101.208 225.437 101.056 224.672 101.116 223.841C101.158 223.247 101.307 222.671 101.562 222.113C101.812 221.561 102.223 220.951 102.796 220.282C103.363 219.618 104.142 218.812 105.134 217.863L109.02 214.159L109.029 214.033L101.564 213.667L101.689 211.932L111.82 212.428Z" fill="white"/>
<path d="M57.0589 204.435L57.9533 202.927L63.9821 206.443L63.0877 207.951L57.0589 204.435Z" fill="white"/>
</svg>
