<svg width="190" height="193" viewBox="0 0 190 193" fill="none" xmlns="http://www.w3.org/2000/svg">
<path d="M28.4936 144.921L29.4047 146.372L15.2224 149.657L14.3254 148.229L23.2376 136.552L24.1487 138.002L16.5726 147.715L16.6287 147.804L28.4936 144.921ZM23.6466 147.308L19.9744 141.46L21.2148 140.657L24.887 146.504L23.6466 147.308Z" fill="white"/>
<path d="M22.3155 134.44L11.2319 143.448L10.5821 141.915L19.6816 134.75L19.63 134.628L8.30236 136.538L7.58027 134.835L16.6591 127.621L16.6076 127.499L5.30056 129.458L4.65069 127.925L18.6226 125.73L19.2828 127.287L10.4654 134.5L10.5066 134.598L21.6553 132.883L22.3155 134.44Z" fill="white"/>
<path d="M17.4644 121.864L17.8778 123.537L3.48229 122.282L3.07519 120.634L15.0791 112.211L15.4925 113.884L5.35425 120.839L5.3797 120.942L17.4644 121.864ZM12.1556 122.646L10.4891 115.902L11.907 115.517L13.5735 122.261L12.1556 122.646Z" fill="white"/>
<path d="M14.8614 109.934L1.31471 111.412L0.925548 106.824C0.835568 105.764 0.942508 104.873 1.24637 104.153C1.54582 103.433 1.99476 102.876 2.59321 102.48C3.19164 102.085 3.88994 101.844 4.6881 101.757C5.48626 101.67 6.20788 101.756 6.85299 102.016C7.49809 102.275 8.02572 102.724 8.43585 103.362C8.84158 104 9.08906 104.845 9.17829 105.897L9.49322 109.61L8.01154 109.772L7.70113 106.112C7.63964 105.387 7.48432 104.815 7.23516 104.396C6.98563 103.973 6.6584 103.683 6.25347 103.526C5.84376 103.366 5.3677 103.315 4.82531 103.374C4.28291 103.434 3.81749 103.587 3.42904 103.835C3.0406 104.082 2.75507 104.441 2.57244 104.912C2.38542 105.383 2.32301 105.985 2.38525 106.719L2.63045 109.609L14.7219 108.29L14.8614 109.934ZM8.23383 104.207L14.0358 100.201L14.1978 102.111L8.39129 106.063L8.23383 104.207Z" fill="white"/>
<path d="M14.3502 93.5537L14.0473 97.7636L0.487276 97.0994L0.803617 92.7029C0.898832 91.3795 1.25178 90.2604 1.86246 89.3455C2.46871 88.4305 3.29531 87.7468 4.34225 87.2945C5.38476 86.8419 6.60785 86.6501 8.01153 86.7188C9.42403 86.788 10.6219 87.1007 11.6051 87.6569C12.5839 88.2129 13.3122 88.9884 13.7899 89.9833C14.2631 90.978 14.4499 92.1681 14.3502 93.5537ZM12.7095 96.0403L12.8859 93.5889C12.9671 92.4609 12.8181 91.5155 12.4388 90.7527C12.0596 89.9899 11.4836 89.4068 10.7109 89.0035C9.93815 88.6003 9.00002 88.3716 7.89649 88.3175C6.80181 88.2639 5.84647 88.3976 5.03046 88.7186C4.21005 89.0394 3.56224 89.5469 3.08704 90.2411C2.60744 90.9351 2.32928 91.815 2.25259 92.8808L2.06279 95.5187L12.7095 96.0403Z" fill="white"/>
<path d="M18.6312 71.4581L4.63711 70.1023L5.26759 68.5311L16.5948 69.8105L16.6449 69.6858L7.47925 63.0193L8.17977 61.2735L19.527 62.503L19.5771 62.3783L10.3914 55.7617L11.0219 54.1904L22.2139 62.5295L21.5734 64.1257L10.4075 63.0811L10.3675 63.1809L19.2717 69.8619L18.6312 71.4581Z" fill="white"/>
<path d="M14.8133 48.2221L26.4498 55.0074L25.5984 56.4429L13.962 49.6575L14.8133 48.2221Z" fill="white"/>
<path d="M26.7246 31.7883L37.1179 40.3444L36.0908 41.5921L23.1545 40.6756L23.0689 40.7796L31.2293 47.4975L30.1679 48.7867L19.7746 40.2306L20.8017 38.983L33.7755 39.8953L33.8611 39.7913L25.6804 33.0567L26.7246 31.7883Z" fill="white"/>
<path d="M38.1085 21.5496L47.0028 31.6659L45.7978 32.7413L33.2113 29.7992L33.1108 29.8888L40.0943 37.8316L38.8491 38.9429L29.9548 28.8266L31.1598 27.7512L43.7838 30.6952L43.8842 30.6056L36.8835 22.643L38.1085 21.5496Z" fill="white"/>
<path d="M46.4716 15.8201L53.6479 27.2474L52.2496 28.1533L45.0733 16.726L46.4716 15.8201Z" fill="white"/>
<path d="M64.4972 6.61592L69.7787 19.0729L68.3106 19.7293L57.3371 13.0011L57.2148 13.0558L61.3616 22.8365L59.8446 23.5148L54.5631 11.0579L56.0312 10.4014L67.0394 17.143L67.1617 17.0883L63.0046 7.28331L64.4972 6.61592Z" fill="white"/>
<path d="M78.6971 6.88313C78.4483 6.48831 78.1654 6.15078 77.8486 5.87056C77.535 5.58487 77.189 5.36292 76.8106 5.2047C76.4365 5.04532 76.0338 4.95553 75.6023 4.93532C75.1709 4.91511 74.7168 4.96975 74.2398 5.09925C73.4578 5.31158 72.7965 5.70631 72.256 6.28344C71.7154 6.86056 71.353 7.59302 71.1689 8.48082C70.9848 9.36862 71.0338 10.3831 71.3158 11.5244C71.5977 12.6656 72.027 13.5769 72.6034 14.2581C73.1798 14.9394 73.8444 15.3931 74.5971 15.619C75.3499 15.845 76.1345 15.8471 76.9509 15.6255C77.7071 15.4201 78.3333 15.0784 78.8296 14.6003C79.3291 14.1167 79.6668 13.5352 79.8428 12.8556C80.022 12.1706 80.0119 11.4248 79.8126 10.6182L80.3279 10.5882L76.3577 11.6662L76.0078 10.2504L81.0351 8.88536L81.3849 10.3012C81.6531 11.3866 81.6543 12.3935 81.3885 13.3218C81.127 14.2489 80.6448 15.0437 79.9419 15.7061C79.2422 16.363 78.3682 16.8338 77.3198 17.1185C76.1511 17.4358 75.0563 17.4401 74.0355 17.1313C73.0189 16.8213 72.1385 16.2271 71.3942 15.3487C70.6541 14.4692 70.1124 13.3344 69.7689 11.9444C69.5113 10.9018 69.4193 9.92645 69.4929 9.01829C69.5698 8.10468 69.7934 7.28399 70.1638 6.55621C70.5342 5.82844 71.033 5.21228 71.6603 4.70776C72.2876 4.20323 73.0244 3.83605 73.8709 3.60621C74.567 3.41722 75.2418 3.34616 75.8953 3.39306C76.552 3.43449 77.1639 3.58196 77.7309 3.83547C78.3011 4.08352 78.8104 4.42823 79.2587 4.86961C79.706 5.3067 80.0688 5.82854 80.3471 6.43513L78.6971 6.88313Z" fill="white"/>
<path d="M98.5555 14.1475L96.834 14.0632L102.795 0.664711L104.49 0.74774L108.487 14.634L106.766 14.5497L103.54 2.86708L103.434 2.86189L98.5555 14.1475ZM99.5746 8.84958L106.514 9.18948L106.408 10.655L99.4691 10.3151L99.5746 8.84958Z" fill="white"/>
<path d="M121.394 7.68866C121.353 7.2191 121.257 6.7857 121.104 6.38846C120.957 5.98778 120.753 5.62979 120.492 5.3145C120.234 5.00011 119.92 4.7354 119.55 4.52036C119.179 4.30532 118.755 4.14739 118.276 4.04657C117.492 3.88127 116.731 3.93551 115.995 4.2093C115.258 4.48309 114.608 4.97826 114.045 5.69482C113.481 6.41138 113.066 7.34852 112.798 8.50625C112.53 9.66398 112.496 10.6815 112.696 11.5588C112.895 12.4361 113.275 13.1484 113.836 13.6956C114.396 14.2428 115.086 14.6026 115.905 14.7752C116.663 14.9351 117.369 14.9126 118.022 14.7079C118.68 14.4997 119.24 14.1294 119.702 13.5969C120.17 13.0609 120.498 12.3838 120.687 11.5656L121.154 11.7736L117.172 10.9344L117.504 9.49808L122.547 10.5607L122.215 11.997C121.96 13.0982 121.506 14.0066 120.852 14.7225C120.203 15.4392 119.419 15.9358 118.501 16.2125C117.588 16.4857 116.606 16.5114 115.555 16.2898C114.382 16.0428 113.417 15.5471 112.658 14.8029C111.903 14.0596 111.397 13.1222 111.138 11.9906C110.884 10.8599 110.921 9.58944 111.247 8.17928C111.491 7.12165 111.851 6.20018 112.326 5.41485C112.807 4.62609 113.375 3.98806 114.03 3.50078C114.685 3.0135 115.402 2.68547 116.183 2.5167C116.963 2.34794 117.777 2.35302 118.626 2.53195C119.325 2.67908 119.951 2.92287 120.505 3.26329C121.064 3.60027 121.536 4.01239 121.921 4.49966C122.311 4.98349 122.603 5.52668 122.798 6.12923C122.994 6.72743 123.078 7.3635 123.049 8.03743L121.394 7.68866Z" fill="white"/>
<path d="M123.558 18.1913L128.682 5.42196L136.282 8.34746L135.732 9.71917L129.656 7.38066L127.925 11.6953L133.607 13.8823L133.056 15.2541L127.375 13.067L125.633 17.4066L131.807 19.783L131.256 21.1547L123.558 18.1913Z" fill="white"/>
<path d="M150.755 16.1874L143.724 28.0413L142.36 27.2461L141.54 14.2415L141.426 14.1752L135.906 23.4824L134.497 22.6607L141.527 10.8069L142.891 11.602L143.721 24.643L143.834 24.7093L149.368 15.379L150.755 16.1874Z" fill="white"/>
<path d="M159.838 28.4349L158.579 27.3988C158.81 26.9667 158.948 26.5337 158.993 26.0998C159.041 25.6687 159.012 25.2492 158.905 24.8413C158.804 24.4328 158.635 24.0491 158.397 23.6902C158.158 23.3314 157.867 23.0099 157.522 22.7258C156.892 22.2078 156.188 21.9014 155.409 21.8066C154.634 21.7146 153.834 21.8617 153.011 22.248C152.191 22.6372 151.402 23.2927 150.643 24.2145C149.884 25.1364 149.392 26.037 149.168 26.9163C148.947 27.7984 148.956 28.6112 149.195 29.3547C149.438 30.1011 149.874 30.7333 150.503 31.2513C150.848 31.5354 151.22 31.7598 151.618 31.9246C152.016 32.0894 152.423 32.1837 152.841 32.2075C153.264 32.2307 153.683 32.1771 154.097 32.0468C154.517 31.9158 154.915 31.6973 155.292 31.3912L156.551 32.4273C156.008 32.8934 155.435 33.2383 154.831 33.4619C154.227 33.6856 153.614 33.795 152.994 33.7901C152.376 33.7818 151.772 33.6648 151.18 33.4392C150.591 33.2163 150.035 32.8891 149.51 32.4574C148.624 31.7276 148.018 30.8569 147.693 29.8451C147.368 28.8333 147.345 27.7555 147.622 26.6118C147.9 25.468 148.5 24.3347 149.425 23.2118C150.349 22.089 151.346 21.2815 152.415 20.7895C153.484 20.2975 154.547 20.1138 155.602 20.2383C156.657 20.3629 157.628 20.7901 158.515 21.5198C159.039 21.9515 159.467 22.4347 159.799 22.9695C160.134 23.507 160.363 24.0797 160.487 24.6876C160.614 25.292 160.626 25.9121 160.522 26.548C160.422 27.1804 160.194 27.8093 159.838 28.4349Z" fill="white"/>
<path d="M164.879 27.8371L166.112 29.2399L163.779 36.3294L163.883 36.4479L171.15 34.9699L172.383 36.3727L163.124 38.1124L158.887 41.8943L157.81 40.6693L162.047 36.8874L164.879 27.8371Z" fill="white"/>
<path d="M183.042 76.2044L181.624 76.5894L180.199 70.8232L181.617 70.4382L183.042 76.2044Z" fill="white"/>
<path d="M185.422 118.69C186.095 118.75 186.677 118.54 187.168 118.059C187.658 117.578 187.997 116.933 188.184 116.123C188.321 115.531 188.346 114.993 188.259 114.51C188.171 114.03 187.99 113.631 187.715 113.313C187.44 112.999 187.091 112.798 186.669 112.709C186.315 112.635 185.992 112.655 185.698 112.772C185.408 112.893 185.148 113.071 184.917 113.305C184.691 113.541 184.49 113.795 184.314 114.068C184.142 114.342 183.995 114.597 183.873 114.831L183.197 116.113C183.026 116.442 182.812 116.803 182.554 117.196C182.294 117.593 181.982 117.959 181.615 118.292C181.252 118.631 180.828 118.884 180.342 119.051C179.856 119.218 179.302 119.236 178.682 119.105C177.966 118.954 177.364 118.629 176.874 118.128C176.383 117.632 176.05 116.987 175.877 116.193C175.703 115.403 175.734 114.494 175.971 113.467C176.193 112.51 176.538 111.713 177.005 111.077C177.472 110.445 178.026 109.986 178.666 109.701C179.305 109.42 179.992 109.33 180.728 109.431L180.342 111.102C179.832 111.04 179.379 111.123 178.983 111.35C178.59 111.582 178.261 111.91 177.996 112.333C177.735 112.762 177.542 113.241 177.42 113.772C177.277 114.39 177.248 114.966 177.332 115.5C177.421 116.034 177.611 116.483 177.902 116.846C178.198 117.209 178.587 117.442 179.07 117.544C179.509 117.636 179.896 117.588 180.229 117.398C180.562 117.208 180.862 116.928 181.128 116.56C181.394 116.192 181.646 115.786 181.884 115.343L182.729 113.796C183.268 112.814 183.884 112.077 184.576 111.584C185.269 111.09 186.061 110.938 186.953 111.126C187.695 111.282 188.294 111.621 188.752 112.142C189.214 112.668 189.518 113.307 189.665 114.059C189.815 114.817 189.792 115.622 189.595 116.475C189.395 117.337 189.065 118.071 188.604 118.677C188.148 119.283 187.611 119.727 186.995 120.008C186.378 120.293 185.732 120.376 185.059 120.257L185.422 118.69Z" fill="white"/>
<path d="M184.583 131.565L171.99 126.717L172.61 125.171L185.203 130.018L184.583 131.565Z" fill="white"/>
<path d="M175.136 149.53L163.5 142.745L164.324 141.356L177.291 140.224L177.36 140.108L168.224 134.781L169.075 133.345L180.711 140.131L179.888 141.52L166.883 142.662L166.815 142.777L175.974 148.118L175.136 149.53Z" fill="white"/>
<path d="M162.658 158.702L163.719 157.413C164.144 157.635 164.572 157.763 165.003 157.798C165.431 157.836 165.849 157.797 166.258 157.68C166.667 157.569 167.053 157.39 167.416 157.142C167.779 156.894 168.106 156.594 168.397 156.24C168.928 155.595 169.249 154.881 169.362 154.095C169.472 153.314 169.344 152.514 168.979 151.696C168.611 150.881 167.977 150.103 167.077 149.362C166.177 148.622 165.292 148.149 164.422 147.944C163.549 147.743 162.739 147.771 161.993 148.029C161.245 148.291 160.605 148.744 160.074 149.388C159.783 149.742 159.551 150.121 159.377 150.524C159.204 150.928 159.1 151.34 159.067 151.76C159.034 152.186 159.077 152.606 159.197 153.019C159.318 153.438 159.526 153.833 159.822 154.204L158.76 155.494C158.309 154.959 157.979 154.391 157.771 153.789C157.563 153.187 157.468 152.575 157.488 151.951C157.51 151.331 157.641 150.72 157.88 150.12C158.116 149.523 158.455 148.956 158.897 148.419C159.644 147.511 160.526 146.882 161.541 146.531C162.556 146.181 163.629 146.132 164.762 146.383C165.894 146.635 167.008 147.212 168.104 148.115C169.2 149.017 169.981 150 170.445 151.063C170.91 152.125 171.068 153.189 170.919 154.252C170.77 155.316 170.322 156.301 169.574 157.209C169.132 157.746 168.641 158.188 168.101 158.534C167.557 158.884 166.982 159.128 166.374 159.267C165.769 159.408 165.151 159.435 164.521 159.346C163.893 159.26 163.272 159.045 162.658 158.702Z" fill="white"/>
<path d="M152.949 155.096L161.843 165.213L155.638 170.751L154.682 169.664L159.643 165.237L156.638 161.819L151.998 165.959L151.043 164.873L155.682 160.732L152.659 157.294L147.619 161.793L146.663 160.707L152.949 155.096Z" fill="white"/>
<path d="M131.655 170.323L132.12 171.418L129.893 177.768C129.631 178.512 129.426 179.149 129.277 179.679C129.13 180.213 129.054 180.685 129.049 181.098C129.042 181.516 129.119 181.915 129.281 182.296C129.466 182.734 129.733 183.066 130.081 183.292C130.425 183.519 130.815 183.639 131.252 183.651C131.689 183.663 132.133 183.568 132.586 183.365C133.067 183.15 133.445 182.863 133.72 182.504C133.992 182.15 134.151 181.754 134.198 181.313C134.24 180.875 134.16 180.418 133.959 179.944L135.403 179.298C135.712 180.028 135.814 180.745 135.71 181.448C135.605 182.15 135.327 182.786 134.874 183.355C134.417 183.926 133.824 184.375 133.094 184.701C132.36 185.029 131.644 185.166 130.947 185.111C130.249 185.056 129.629 184.84 129.085 184.461C128.541 184.082 128.133 183.572 127.861 182.931C127.667 182.473 127.561 181.987 127.542 181.475C127.521 180.968 127.601 180.356 127.782 179.638C127.961 178.926 128.246 178.027 128.639 176.939L130.184 172.689L130.143 172.591L124.32 175.195L123.752 173.857L131.655 170.323Z" fill="white"/>
<path d="M115.447 176.191C116.418 175.928 117.31 175.967 118.124 176.309C118.938 176.656 119.651 177.284 120.261 178.194C120.872 179.109 121.354 180.282 121.709 181.715C122.061 183.14 122.181 184.405 122.069 185.511C121.954 186.623 121.62 187.538 121.069 188.255C120.514 188.978 119.755 189.47 118.792 189.732C117.83 189.993 116.941 189.948 116.125 189.597C115.306 189.252 114.591 188.622 113.98 187.708C113.366 186.798 112.883 185.632 112.531 184.207C112.177 182.774 112.055 181.503 112.166 180.392C112.277 179.286 112.609 178.374 113.161 177.657C113.714 176.943 114.476 176.455 115.447 176.191ZM115.797 177.607C114.834 177.868 114.201 178.535 113.897 179.606C113.593 180.677 113.653 182.071 114.077 183.787C114.359 184.929 114.722 185.867 115.165 186.603C115.604 187.34 116.103 187.857 116.663 188.154C117.218 188.451 117.813 188.514 118.449 188.341C119.403 188.082 120.032 187.41 120.337 186.325C120.643 185.244 120.585 183.847 120.162 182.135C119.88 180.994 119.52 180.057 119.082 179.325C118.644 178.592 118.148 178.079 117.594 177.785C117.036 177.493 116.437 177.433 115.797 177.607Z" fill="white"/>
<path d="M107.008 178.243L107.11 179.437L103.054 184.831C102.578 185.463 102.189 186.009 101.885 186.471C101.582 186.937 101.365 187.366 101.233 187.76C101.098 188.158 101.048 188.565 101.083 188.981C101.124 189.458 101.273 189.859 101.532 190.183C101.787 190.507 102.118 190.743 102.527 190.891C102.936 191.038 103.385 191.085 103.874 191.031C104.394 190.975 104.839 190.817 105.209 190.558C105.575 190.304 105.847 189.973 106.026 189.565C106.201 189.158 106.266 188.696 106.222 188.179L107.783 188.009C107.851 188.804 107.727 189.523 107.412 190.164C107.097 190.805 106.638 191.328 106.036 191.732C105.43 192.137 104.732 192.383 103.943 192.469C103.149 192.556 102.431 192.465 101.79 192.196C101.148 191.927 100.629 191.526 100.233 190.994C99.8359 190.462 99.6079 189.846 99.5486 189.148C99.5063 188.648 99.5552 188.15 99.6955 187.653C99.8318 187.161 100.096 186.599 100.487 185.968C100.875 185.341 101.421 184.567 102.126 183.647L104.892 180.053L104.883 179.947L98.5862 180.634L98.4624 179.176L107.008 178.243Z" fill="white"/>
<path d="M94.1334 179.228L94.0471 180.427L89.2165 185.137C88.6497 185.689 88.181 186.169 87.8105 186.579C87.4396 186.993 87.1589 187.385 86.9684 187.754C86.7732 188.128 86.6606 188.524 86.6306 188.941C86.5961 189.421 86.6809 189.842 86.8852 190.204C87.0851 190.565 87.3746 190.851 87.7537 191.062C88.1328 191.272 88.5674 191.389 89.0573 191.413C89.5782 191.438 90.0406 191.352 90.4447 191.153C90.8441 190.959 91.1636 190.674 91.4033 190.298C91.6386 189.922 91.7749 189.474 91.8123 188.954L93.3749 189.031C93.3173 189.83 93.0837 190.523 92.6739 191.109C92.264 191.695 91.7314 192.141 91.0759 192.448C90.416 192.754 89.6909 192.888 88.9008 192.849C88.1063 192.81 87.4144 192.607 86.8251 192.239C86.2358 191.872 85.7875 191.393 85.48 190.803C85.1725 190.213 85.044 189.567 85.0945 188.866C85.1306 188.364 85.2564 187.878 85.4718 187.407C85.6826 186.94 86.0298 186.425 86.5134 185.86C86.9922 185.3 87.6503 184.619 88.4875 183.818L91.7691 180.69L91.7768 180.583L85.4734 180.274L85.5789 178.809L94.1334 179.228Z" fill="white"/>
<path d="M47.8911 172.479L48.6464 171.205L53.7373 174.174L52.9821 175.447L47.8911 172.479Z" fill="white"/>
</svg>
