<svg width="122" height="36" viewBox="0 0 122 36" fill="none" xmlns="http://www.w3.org/2000/svg">
<rect width="121.565" height="36" rx="18" fill="white"/>
<path d="M14 27.3935V12.848H16.6349V19.0057H23.375V12.848H26.017V27.3935H23.375V21.2145H16.6349V27.3935H14Z" fill="black"/>
<path d="M35.7223 22.8054V16.4844H38.2933V27.3935H35.8004V25.4545H35.6868C35.4406 26.0653 35.0357 26.5649 34.4723 26.9531C33.9136 27.3414 33.2247 27.5355 32.4055 27.5355C31.6906 27.5355 31.0585 27.3769 30.5092 27.0597C29.9647 26.7377 29.5386 26.2713 29.2308 25.6605C28.9231 25.045 28.7692 24.3016 28.7692 23.4304V16.4844H31.3402V23.0327C31.3402 23.724 31.5296 24.2732 31.9084 24.6804C32.2872 25.0876 32.7843 25.2912 33.3999 25.2912C33.7786 25.2912 34.1456 25.1989 34.5007 25.0142C34.8558 24.8295 35.147 24.5549 35.3743 24.1903C35.6063 23.821 35.7223 23.3594 35.7223 22.8054Z" fill="black"/>
<path d="M41.0508 27.3935V12.848H43.6218V18.2884H43.7283C43.8609 18.0232 44.0479 17.7415 44.2894 17.4432C44.5309 17.1402 44.8576 16.8821 45.2695 16.669C45.6815 16.4512 46.207 16.3423 46.8462 16.3423C47.689 16.3423 48.449 16.5578 49.1261 16.9886C49.8079 17.4148 50.3477 18.0469 50.7454 18.8849C51.1478 19.7183 51.3491 20.741 51.3491 21.9531C51.3491 23.151 51.1526 24.169 50.7596 25.0071C50.3666 25.8452 49.8316 26.4844 49.1545 26.9247C48.4774 27.3651 47.7103 27.5852 46.8533 27.5852C46.2283 27.5852 45.7099 27.4811 45.2979 27.2727C44.886 27.0644 44.5546 26.8134 44.3036 26.5199C44.0574 26.2216 43.8656 25.9399 43.7283 25.6747H43.5792V27.3935H41.0508ZM43.5721 21.9389C43.5721 22.6444 43.6715 23.2623 43.8704 23.7926C44.074 24.3229 44.3652 24.7372 44.744 25.0355C45.1275 25.3291 45.5915 25.4759 46.136 25.4759C46.7042 25.4759 47.18 25.3243 47.5636 25.0213C47.9471 24.7135 48.2359 24.2945 48.43 23.7642C48.6289 23.2292 48.7283 22.6207 48.7283 21.9389C48.7283 21.2618 48.6313 20.6605 48.4371 20.1349C48.243 19.6094 47.9542 19.1974 47.5707 18.8991C47.1871 18.6009 46.7089 18.4517 46.136 18.4517C45.5868 18.4517 45.1204 18.5961 44.7369 18.8849C44.3533 19.1738 44.0621 19.5786 43.8633 20.0994C43.6692 20.6203 43.5721 21.2334 43.5721 21.9389Z" fill="black"/>
<path d="M65.4222 27.6065C64.3569 27.6065 63.4336 27.3722 62.6523 26.9034C61.8711 26.4347 61.265 25.7789 60.8342 24.9361C60.408 24.0933 60.195 23.1084 60.195 21.9815C60.195 20.8546 60.408 19.8674 60.8342 19.0199C61.265 18.1723 61.8711 17.5142 62.6523 17.0455C63.4336 16.5767 64.3569 16.3423 65.4222 16.3423C66.4876 16.3423 67.4109 16.5767 68.1921 17.0455C68.9734 17.5142 69.5771 18.1723 70.0032 19.0199C70.4341 19.8674 70.6495 20.8546 70.6495 21.9815C70.6495 23.1084 70.4341 24.0933 70.0032 24.9361C69.5771 25.7789 68.9734 26.4347 68.1921 26.9034C67.4109 27.3722 66.4876 27.6065 65.4222 27.6065ZM65.4364 25.5469C66.0141 25.5469 66.497 25.3883 66.8853 25.071C67.2736 24.7491 67.5624 24.3182 67.7518 23.7784C67.9459 23.2386 68.043 22.6373 68.043 21.9744C68.043 21.3068 67.9459 20.7031 67.7518 20.1634C67.5624 19.6188 67.2736 19.1856 66.8853 18.8636C66.497 18.5417 66.0141 18.3807 65.4364 18.3807C64.8446 18.3807 64.3522 18.5417 63.9592 18.8636C63.5709 19.1856 63.2797 19.6188 63.0856 20.1634C62.8962 20.7031 62.8015 21.3068 62.8015 21.9744C62.8015 22.6373 62.8962 23.2386 63.0856 23.7784C63.2797 24.3182 63.5709 24.7491 63.9592 25.071C64.3522 25.3883 64.8446 25.5469 65.4364 25.5469Z" fill="black"/>
<path d="M75.4027 12.848V27.3935H72.8317V12.848H75.4027Z" fill="black"/>
<path d="M78.0465 27.3935V16.4844H80.6175V27.3935H78.0465ZM79.3391 14.9361C78.9319 14.9361 78.5816 14.8011 78.288 14.5313C77.9944 14.2566 77.8477 13.9276 77.8477 13.544C77.8477 13.1558 77.9944 12.8267 78.288 12.5568C78.5816 12.2822 78.9319 12.1449 79.3391 12.1449C79.7511 12.1449 80.1014 12.2822 80.3903 12.5568C80.6838 12.8267 80.8306 13.1558 80.8306 13.544C80.8306 13.9276 80.6838 14.2566 80.3903 14.5313C80.1014 14.8011 79.7511 14.9361 79.3391 14.9361Z" fill="black"/>
<path d="M88.0199 27.6065C86.9546 27.6065 86.0312 27.3722 85.25 26.9034C84.4688 26.4347 83.8627 25.7789 83.4318 24.9361C83.0057 24.0933 82.7926 23.1084 82.7926 21.9815C82.7926 20.8546 83.0057 19.8674 83.4318 19.0199C83.8627 18.1723 84.4688 17.5142 85.25 17.0455C86.0312 16.5767 86.9546 16.3423 88.0199 16.3423C89.0852 16.3423 90.0085 16.5767 90.7898 17.0455C91.571 17.5142 92.1747 18.1723 92.6009 19.0199C93.0317 19.8674 93.2472 20.8546 93.2472 21.9815C93.2472 23.1084 93.0317 24.0933 92.6009 24.9361C92.1747 25.7789 91.571 26.4347 90.7898 26.9034C90.0085 27.3722 89.0852 27.6065 88.0199 27.6065ZM88.0341 25.5469C88.6117 25.5469 89.0947 25.3883 89.483 25.071C89.8712 24.7491 90.16 24.3182 90.3494 23.7784C90.5436 23.2386 90.6406 22.6373 90.6406 21.9744C90.6406 21.3068 90.5436 20.7031 90.3494 20.1634C90.16 19.6188 89.8712 19.1856 89.483 18.8636C89.0947 18.5417 88.6117 18.3807 88.0341 18.3807C87.4422 18.3807 86.9498 18.5417 86.5568 18.8636C86.1686 19.1856 85.8774 19.6188 85.6832 20.1634C85.4938 20.7031 85.3991 21.3068 85.3991 21.9744C85.3991 22.6373 85.4938 23.2386 85.6832 23.7784C85.8774 24.3182 86.1686 24.7491 86.5568 25.071C86.9498 25.3883 87.4422 25.5469 88.0341 25.5469Z" fill="black"/>
<path d="M107.565 13.3935C107.565 16.1549 105.327 18.3935 102.565 18.3935C99.8039 18.3935 97.5653 16.1549 97.5653 13.3935C97.5653 10.632 99.8039 8.39347 102.565 8.39347C105.327 8.39347 107.565 10.632 107.565 13.3935Z" fill="black"/>
<path d="M106.565 13.3935C106.565 15.6026 104.774 17.3935 102.565 17.3935C100.356 17.3935 98.5653 15.6026 98.5653 13.3935C98.5653 11.1843 100.356 9.39347 102.565 9.39347C104.774 9.39347 106.565 11.1843 106.565 13.3935Z" fill="white"/>
<path d="M101.065 15.3935V11.3935H102.574C102.874 11.3935 103.122 11.4416 103.317 11.538C103.513 11.6331 103.658 11.7613 103.754 11.9228C103.849 12.0829 103.897 12.2607 103.897 12.456C103.897 12.6278 103.864 12.7698 103.798 12.8817C103.733 12.9937 103.648 13.0823 103.541 13.1474C103.435 13.2125 103.321 13.2607 103.197 13.2919V13.331C103.329 13.3388 103.462 13.3817 103.596 13.4599C103.729 13.538 103.841 13.65 103.931 13.7958C104.02 13.9416 104.065 14.12 104.065 14.331C104.065 14.5315 104.016 14.7118 103.918 14.872C103.82 15.0321 103.664 15.1591 103.452 15.2528C103.24 15.3466 102.964 15.3935 102.624 15.3935H101.065ZM101.588 14.9638H102.624C102.966 14.9638 103.208 14.9026 103.351 14.7802C103.496 14.6565 103.568 14.5067 103.568 14.331C103.568 14.1956 103.531 14.0706 103.456 13.956C103.382 13.8401 103.276 13.7476 103.138 13.6786C103.001 13.6083 102.838 13.5732 102.65 13.5732H101.588V14.9638ZM101.588 13.1513H102.557C102.714 13.1513 102.856 13.1226 102.982 13.0653C103.11 13.0081 103.211 12.9273 103.286 12.8232C103.362 12.719 103.4 12.5966 103.4 12.456C103.4 12.2802 103.334 12.1311 103.202 12.0087C103.07 11.885 102.86 11.8232 102.574 11.8232H101.588V13.1513Z" fill="black"/>
<path fill-rule="evenodd" clip-rule="evenodd" d="M59.0604 18.473V16.4844H56.8018V15.625C56.8018 15.1989 56.8989 14.8722 57.093 14.6449C57.2919 14.4129 57.6304 14.2969 58.1087 14.2969C58.3123 14.2969 58.4969 14.3158 58.6626 14.3537C58.8284 14.3868 58.9657 14.42 59.0746 14.4531L59.5859 12.4645C59.4202 12.4077 59.1645 12.3438 58.8189 12.2727C58.4733 12.2017 58.0779 12.1662 57.6328 12.1662C57.0031 12.1662 56.4302 12.2869 55.9141 12.5284C55.398 12.7699 54.986 13.1345 54.6783 13.6222C54.3752 14.1098 54.2237 14.7206 54.2237 15.4545V16.4844H52.6115V18.473H54.2237V27.3935H56.8018V18.473H59.0604ZM56.8018 18.473V16.4844H54.2237V18.473H56.8018Z" fill="black"/>
<path d="M56.8018 18.473V16.4844H54.2237V18.473H56.8018Z" fill="black"/>
</svg>
