<svg width="358" height="358" viewBox="0 0 358 358" fill="none" xmlns="http://www.w3.org/2000/svg">
<path d="M12.6252 189.349L12.6252 189.349L12.6183 189.349C9.26626 189.029 7.16505 188.12 5.94687 186.921C4.74573 185.739 4.33818 184.211 4.51243 182.481C4.68815 180.737 5.45646 178.812 6.58194 176.924C7.70447 175.041 9.16472 173.224 10.6877 171.701L173.311 9.07749C174.83 7.5586 176.557 6.24331 178.302 5.34449C180.051 4.44332 181.784 3.97778 183.329 4.10746C184.851 4.23529 186.229 4.94281 187.308 6.47426C188.4 8.0246 189.202 10.4437 189.477 14.0045L189.478 14.0134L196.031 82.7204C195.055 90.6711 193.948 96.8038 187.894 102.857L101.319 189.432C95.2485 195.503 88.1969 197.189 81.8729 196.927L12.6252 189.349Z" stroke="url(#paint0_linear_869_1102)"/>
<path d="M28.0606 204.837L28.0606 204.837L28.0536 204.837C25.0649 204.885 23.3167 204.273 22.3911 203.366C21.4907 202.483 21.2598 201.208 21.5921 199.622C21.9252 198.032 22.8123 196.215 24.0195 194.395C25.2226 192.581 26.7237 190.794 28.2519 189.266L190.875 26.6419C192.401 25.1169 194.094 23.754 195.763 22.7655C197.439 21.7723 199.05 21.1812 200.419 21.1437C201.754 21.1071 202.861 21.5926 203.638 22.7993C204.44 24.0443 204.923 26.1086 204.814 29.2874L204.814 29.2964L203.841 90.4729C202.17 97.7164 200.558 103.367 194.481 109.444L107.906 196.019C101.809 202.116 95.2764 204.336 89.6236 204.733L28.0606 204.837Z" stroke="url(#paint1_linear_869_1102)"/>
<path d="M43.4808 220.333L43.4808 220.333L43.4742 220.334C42.1716 220.541 41.16 220.565 40.3936 220.455C39.6279 220.345 39.1384 220.105 38.8352 219.81C38.253 219.243 38.1594 218.243 38.6638 216.769C39.1571 215.327 40.1668 213.616 41.456 211.866C42.7406 210.121 44.283 208.363 45.8164 206.83L208.44 44.2064C209.971 42.6753 211.631 41.2643 213.224 40.1845C214.827 39.0979 216.32 38.3755 217.523 38.1714C218.12 38.0702 218.615 38.1018 219.009 38.2509C219.393 38.396 219.717 38.6655 219.963 39.1125C220.477 40.0429 220.655 41.7469 220.16 44.5561L220.159 44.5646L211.66 98.215C209.294 104.76 207.17 109.928 201.068 116.031L114.493 202.606C108.371 208.728 102.356 211.493 97.3606 212.547L43.4808 220.333Z" stroke="url(#paint2_linear_869_1102)"/>
<path d="M58.8847 235.845L58.8847 235.845L58.8794 235.847C57.7545 236.238 56.9111 236.424 56.3028 236.459C55.6818 236.495 55.3992 236.369 55.2782 236.253C55.1721 236.151 55.0842 235.952 55.1421 235.534C55.1999 235.117 55.3938 234.574 55.7248 233.922C57.053 231.304 60.2892 227.486 63.3811 224.394L226.005 61.7708C227.542 60.2339 229.168 58.7741 230.685 57.6016C232.211 56.4216 233.592 55.5596 234.643 55.1839C235.172 54.9947 235.559 54.9506 235.817 55.0003C236.035 55.0422 236.181 55.1512 236.279 55.3971C236.391 55.681 236.437 56.1596 236.325 56.9104C236.215 57.6511 235.959 58.6068 235.521 59.8105L235.519 59.8171L219.493 105.948C216.427 111.802 213.786 116.487 207.655 122.617L121.079 209.193C114.933 215.339 109.436 218.66 105.084 220.376L58.8847 235.845Z" stroke="url(#paint3_linear_869_1102)"/>
<path d="M74.277 251.382L74.277 251.382L74.2742 251.383C73.3243 251.963 72.6345 252.319 72.1617 252.501C72.0373 252.549 71.9351 252.581 71.8527 252.603C71.8672 252.565 71.885 252.522 71.9065 252.474C72.0613 252.131 72.3541 251.658 72.7731 251.075C74.4456 248.749 77.8507 245.054 80.9457 241.959L243.569 79.3353C246.669 76.2353 249.936 73.3065 251.772 72.1732C252.128 71.9536 252.392 71.8262 252.569 71.7668C252.56 71.814 252.546 71.8704 252.527 71.9369C252.473 72.1226 252.382 72.3601 252.246 72.6559C251.974 73.2475 251.538 74.0372 250.905 75.0557L250.903 75.0592L227.344 113.675C223.572 118.845 220.403 123.043 214.242 129.204L127.666 215.779C121.496 221.95 116.516 225.836 112.797 228.227L74.277 251.382ZM71.6195 252.637C71.6195 252.637 71.6211 252.637 71.624 252.638C71.6208 252.638 71.6194 252.637 71.6195 252.637ZM252.754 71.7267C252.754 71.7268 252.753 71.7268 252.751 71.7265C252.753 71.7266 252.754 71.7267 252.754 71.7267Z" stroke="url(#paint4_linear_869_1102)"/>
<path d="M167.976 344.7L167.976 344.7L167.977 344.707C168.297 348.059 169.206 350.16 170.405 351.378C171.586 352.579 173.114 352.987 174.844 352.813C176.589 352.637 178.514 351.869 180.402 350.743C182.285 349.621 184.102 348.16 185.625 346.638L348.248 184.014C349.767 182.495 351.082 180.768 351.981 179.023C352.882 177.274 353.348 175.541 353.218 173.996C353.09 172.474 352.383 171.096 350.851 170.017C349.301 168.925 346.882 168.123 343.321 167.848L343.312 167.847L274.605 161.294C266.655 162.27 260.522 163.377 254.468 169.431L167.893 256.006C161.822 262.077 160.137 269.128 160.398 275.452L167.976 344.7Z" stroke="url(#paint5_linear_869_1102)"/>
<path d="M152.488 329.264L152.488 329.264L152.488 329.271C152.441 332.26 153.053 334.008 153.96 334.934C154.842 335.834 156.117 336.065 157.703 335.733C159.294 335.4 161.11 334.513 162.93 333.305C164.744 332.102 166.531 330.601 168.06 329.073L330.683 166.45C332.208 164.924 333.571 163.231 334.56 161.562C335.553 159.886 336.144 158.275 336.182 156.906C336.218 155.571 335.733 154.464 334.526 153.687C333.281 152.885 331.217 152.402 328.038 152.511L328.029 152.511L266.852 153.484C259.609 155.155 253.958 156.767 247.881 162.844L161.306 249.419C155.21 255.516 152.989 262.049 152.593 267.701L152.488 329.264Z" stroke="url(#paint6_linear_869_1102)"/>
<path d="M136.992 313.845L136.992 313.845L136.991 313.851C136.785 315.154 136.76 316.165 136.871 316.932C136.981 317.698 137.221 318.187 137.516 318.49C138.082 319.072 139.082 319.166 140.556 318.662C141.998 318.168 143.709 317.159 145.46 315.869C147.204 314.585 148.962 313.042 150.495 311.509L313.119 148.886C314.65 147.354 316.061 145.694 317.141 144.102C318.228 142.499 318.95 141.005 319.154 139.802C319.255 139.206 319.224 138.711 319.075 138.317C318.929 137.933 318.66 137.609 318.213 137.362C317.283 136.849 315.579 136.671 312.769 137.165L312.761 137.167L259.11 145.665C252.566 148.032 247.397 150.155 241.295 156.258L154.72 242.833C148.598 248.955 145.832 254.97 144.779 259.965L136.992 313.845Z" stroke="url(#paint7_linear_869_1102)"/>
<path d="M121.481 298.44L121.481 298.44L121.479 298.446C121.088 299.571 120.901 300.414 120.866 301.022C120.83 301.643 120.957 301.926 121.073 302.047C121.175 302.153 121.374 302.241 121.792 302.183C122.209 302.125 122.752 301.931 123.404 301.6C126.022 300.272 129.839 297.036 132.931 293.944L295.555 131.321C297.092 129.784 298.552 128.157 299.724 126.641C300.904 125.114 301.766 123.733 302.142 122.682C302.331 122.153 302.375 121.766 302.325 121.508C302.283 121.29 302.175 121.144 301.929 121.047C301.645 120.934 301.166 120.888 300.415 121C299.675 121.11 298.719 121.367 297.515 121.804L297.509 121.806L251.378 137.832C245.524 140.898 240.839 143.54 234.708 149.671L148.133 236.246C141.987 242.392 138.666 247.889 136.95 252.242L121.481 298.44Z" stroke="url(#paint8_linear_869_1102)"/>
<path d="M105.945 283.048L105.945 283.048L105.943 283.051C105.364 284.001 105.007 284.691 104.825 285.164C104.778 285.288 104.745 285.39 104.723 285.473C104.762 285.458 104.804 285.44 104.852 285.419C105.195 285.264 105.668 284.971 106.251 284.552C108.577 282.88 112.272 279.475 115.367 276.38L277.991 113.756C281.091 110.656 284.02 107.389 285.153 105.553C285.373 105.198 285.5 104.934 285.559 104.756C285.512 104.766 285.456 104.779 285.389 104.798C285.204 104.853 284.966 104.943 284.67 105.079C284.079 105.351 283.289 105.787 282.27 106.42L282.267 106.422L243.651 129.981C238.481 133.753 234.284 136.922 228.122 143.084L141.547 229.659C135.376 235.829 131.49 240.809 129.099 244.528L105.945 283.048ZM104.689 285.706C104.689 285.706 104.689 285.704 104.688 285.701C104.688 285.705 104.689 285.706 104.689 285.706ZM285.599 104.571C285.599 104.572 285.599 104.573 285.6 104.575C285.6 104.573 285.599 104.571 285.599 104.571Z" stroke="url(#paint9_linear_869_1102)"/>
<line x1="87.7431" y1="268.875" x2="268.875" y2="87.743" stroke="black"/>
<rect x="11.333" y="122.575" width="92" height="32" rx="16" transform="rotate(-16 11.333 122.575)" fill="#F84438"/>
<path d="M32.994 138.21L30.1875 128.423L33.4946 127.474C34.2592 127.255 34.9243 127.206 35.4899 127.326C36.0545 127.444 36.5196 127.695 36.8851 128.079C37.2505 128.464 37.516 128.945 37.6813 129.522C37.8467 130.098 37.8754 130.644 37.7676 131.157C37.6597 131.671 37.3986 132.125 36.9842 132.52C36.5689 132.911 35.9821 133.216 35.2239 133.433L32.5476 134.2L32.2407 133.13L34.8787 132.373C35.4012 132.224 35.7998 132.027 36.0746 131.782C36.3525 131.537 36.523 131.254 36.5859 130.932C36.6512 130.607 36.6276 130.248 36.5152 129.856C36.4029 129.464 36.2314 129.143 36.0008 128.892C35.7702 128.641 35.4711 128.481 35.1037 128.414C34.7353 128.344 34.2867 128.385 33.7578 128.537L31.6742 129.134L34.1792 137.87L32.994 138.21ZM36.3402 132.492L40.0096 136.198L38.6332 136.593L35.0021 132.876L36.3402 132.492ZM44.4919 135.078C43.7846 135.281 43.1297 135.3 42.5272 135.135C41.927 134.966 41.4075 134.639 40.9686 134.154C40.532 133.666 40.2059 133.046 39.9903 132.294C39.7747 131.542 39.7217 130.84 39.8312 130.188C39.943 129.532 40.1997 128.972 40.6013 128.509C41.0051 128.041 41.5384 127.712 42.2011 127.522C42.5834 127.413 42.9792 127.368 43.3885 127.389C43.7978 127.409 44.1965 127.519 44.5846 127.718C44.9718 127.914 45.3233 128.22 45.6392 128.636C45.9551 129.053 46.2112 129.603 46.4076 130.288L46.5447 130.766L40.8863 132.389L40.6068 131.414L45.1182 130.12C44.9994 129.706 44.8106 129.36 44.5517 129.083C44.2961 128.804 43.99 128.614 43.6334 128.513C43.28 128.411 42.8994 128.419 42.4916 128.535C42.0424 128.664 41.6856 128.887 41.4214 129.204C41.1595 129.517 40.9916 129.876 40.9178 130.28C40.844 130.684 40.8651 131.088 40.9811 131.492L41.1675 132.142C41.3264 132.697 41.5568 133.139 41.8585 133.47C42.1624 133.797 42.5152 134.011 42.9169 134.113C43.3176 134.212 43.7458 134.196 44.2014 134.065C44.4977 133.98 44.7534 133.862 44.9686 133.711C45.1861 133.555 45.3582 133.368 45.485 133.149C45.6109 132.927 45.6851 132.674 45.7076 132.392L46.8849 132.386C46.8762 132.788 46.7767 133.168 46.5862 133.526C46.3949 133.881 46.1225 134.194 45.769 134.464C45.4146 134.731 44.9889 134.936 44.4919 135.078ZM52.7692 126.375L51.8383 126.952C51.7262 126.801 51.5851 126.664 51.4152 126.54C51.2475 126.413 51.0435 126.326 50.8031 126.281C50.5627 126.237 50.2784 126.261 49.9502 126.355C49.501 126.484 49.1563 126.695 48.9162 126.988C48.6784 127.277 48.6047 127.579 48.6951 127.894C48.7755 128.175 48.941 128.367 49.1915 128.471C49.442 128.575 49.7994 128.619 50.2638 128.603L51.4301 128.558C52.1321 128.529 52.691 128.633 53.1069 128.869C53.5219 129.102 53.8029 129.474 53.95 129.987C54.0706 130.408 54.0573 130.819 53.9102 131.219C53.7663 131.619 53.5066 131.976 53.1314 132.291C52.7561 132.605 52.2833 132.844 51.713 133.008C50.9643 133.223 50.298 133.238 49.7142 133.053C49.1303 132.869 48.6836 132.484 48.3739 131.897L49.3676 131.322C49.5829 131.688 49.8606 131.929 50.2008 132.045C50.5442 132.16 50.9468 132.152 51.4088 132.019C51.9345 131.869 52.3199 131.637 52.565 131.326C52.8124 131.01 52.8908 130.694 52.8004 130.379C52.7273 130.124 52.5769 129.936 52.3491 129.815C52.1205 129.691 51.809 129.639 51.4148 129.659L50.1091 129.723C49.3912 129.757 48.8266 129.651 48.4152 129.407C48.0062 129.159 47.729 128.782 47.5837 128.275C47.465 127.861 47.4762 127.461 47.6174 127.076C47.7618 126.69 48.0103 126.348 48.3629 126.05C48.7186 125.752 49.1545 125.528 49.6707 125.38C50.3971 125.172 51.013 125.168 51.5186 125.368C52.0273 125.567 52.4442 125.902 52.7692 126.375ZM59.3558 130.816C58.6485 131.019 57.9936 131.038 57.3911 130.873C56.7909 130.704 56.2714 130.377 55.8325 129.892C55.3959 129.404 55.0698 128.784 54.8542 128.032C54.6386 127.28 54.5856 126.578 54.6951 125.926C54.8069 125.27 55.0636 124.71 55.4652 124.246C55.869 123.779 56.4023 123.45 57.065 123.26C57.4473 123.151 57.8431 123.106 58.2524 123.127C58.6617 123.147 59.0604 123.257 59.4485 123.456C59.8356 123.652 60.1872 123.958 60.5031 124.374C60.819 124.79 61.0751 125.341 61.2715 126.026L61.4086 126.504L55.7502 128.126L55.4707 127.151L59.9821 125.858C59.8633 125.444 59.6745 125.098 59.4156 124.82C59.16 124.542 58.8538 124.352 58.4973 124.251C58.1439 124.149 57.7633 124.156 57.3555 124.273C56.9063 124.402 56.5495 124.625 56.2853 124.942C56.0234 125.255 55.8555 125.614 55.7817 126.018C55.7079 126.421 55.729 126.826 55.845 127.23L56.0314 127.88C56.1903 128.435 56.4206 128.877 56.7223 129.208C57.0263 129.534 57.3791 129.749 57.7808 129.851C58.1815 129.95 58.6097 129.934 59.0653 129.803C59.3616 129.718 59.6173 129.6 59.8325 129.449C60.05 129.293 60.2221 129.106 60.3489 128.887C60.4748 128.665 60.549 128.412 60.5715 128.13L61.7488 128.123C61.7401 128.526 61.6405 128.906 61.4501 129.264C61.2588 129.619 60.9864 129.932 60.6329 130.202C60.2785 130.469 59.8528 130.674 59.3558 130.816ZM66.2765 128.853C65.8113 128.986 65.3641 129.019 64.9347 128.953C64.5044 128.883 64.1298 128.713 63.8108 128.442C63.491 128.169 63.2625 127.793 63.1255 127.315C63.0049 126.894 62.99 126.53 63.0807 126.221C63.1706 125.909 63.3326 125.638 63.5669 125.409C63.8011 125.18 64.075 124.981 64.3885 124.812C64.7043 124.638 65.0262 124.48 65.3544 124.338C65.784 124.153 66.1332 124.006 66.4022 123.898C66.6734 123.786 66.8623 123.675 66.9687 123.565C67.0783 123.454 67.1071 123.308 67.055 123.126L67.044 123.088C66.9088 122.617 66.6747 122.287 66.3417 122.1C66.012 121.912 65.5874 121.892 65.0681 122.041C64.5296 122.195 64.1413 122.434 63.9031 122.758C63.6648 123.081 63.5219 123.395 63.4744 123.698L62.2943 123.623C62.3575 123.122 62.5128 122.701 62.7602 122.361C63.0098 122.018 63.31 121.742 63.6608 121.534C64.0139 121.323 64.3752 121.164 64.7448 121.058C64.9806 120.99 65.2596 120.941 65.5819 120.911C65.9065 120.877 66.2368 120.904 66.5729 120.994C66.9121 121.083 67.2271 121.274 67.5179 121.566C67.8086 121.859 68.0376 122.296 68.2048 122.879L69.5916 127.716L68.4637 128.039L68.1787 127.045L68.1213 127.062C68.0905 127.243 68.012 127.45 67.8856 127.683C67.7593 127.915 67.5663 128.138 67.3065 128.35C67.0467 128.563 66.7034 128.73 66.2765 128.853ZM66.158 127.79C66.604 127.662 66.9549 127.467 67.2105 127.204C67.4693 126.94 67.637 126.647 67.7136 126.325C67.7934 126.002 67.7895 125.688 67.7018 125.382L67.4058 124.35C67.3745 124.421 67.2844 124.504 67.1356 124.598C66.9891 124.688 66.8157 124.781 66.6155 124.876C66.4175 124.968 66.2235 125.054 66.0332 125.136C65.8453 125.214 65.6931 125.279 65.5766 125.329C65.2944 125.452 65.0382 125.592 64.808 125.752C64.5801 125.907 64.4123 126.091 64.3046 126.304C64.1991 126.514 64.1875 126.762 64.2698 127.049C64.3821 127.441 64.6121 127.695 64.9595 127.813C65.3093 127.927 65.7088 127.919 66.158 127.79ZM71.6501 127.125L69.5452 119.785L70.6349 119.472L70.9528 120.581L71.0292 120.559C71.0589 120.158 71.2165 119.794 71.5021 119.467C71.7877 119.14 72.1504 118.914 72.59 118.788C72.6729 118.764 72.7769 118.736 72.902 118.703C73.0272 118.671 73.1226 118.649 73.1881 118.637L73.517 119.784C73.476 119.785 73.3843 119.796 73.2418 119.816C73.1016 119.832 72.9566 119.862 72.8069 119.905C72.4501 120.007 72.1529 120.173 71.9155 120.403C71.6803 120.629 71.519 120.896 71.4314 121.204C71.3461 121.508 71.351 121.826 71.446 122.157L72.778 126.802L71.6501 127.125ZM79.4598 125.052C78.7717 125.249 78.1325 125.256 77.5423 125.074C76.9521 124.891 76.4414 124.553 76.0102 124.06C75.5791 123.566 75.2585 122.953 75.0483 122.22C74.8346 121.475 74.7829 120.778 74.8934 120.129C75.0061 119.476 75.2633 118.918 75.6648 118.454C76.0687 117.987 76.6019 117.658 77.2646 117.468C77.7807 117.32 78.2733 117.282 78.7423 117.355C79.2113 117.427 79.6273 117.597 79.9904 117.866C80.3535 118.134 80.6327 118.488 80.828 118.929L79.7002 119.252C79.5182 118.942 79.2421 118.701 78.8718 118.528C78.5038 118.35 78.0712 118.333 77.5742 118.476C77.1346 118.602 76.7819 118.827 76.5164 119.151C76.2531 119.472 76.0884 119.865 76.0224 120.333C75.9586 120.796 76.0063 121.304 76.1652 121.859C76.3278 122.426 76.5586 122.894 76.8576 123.263C77.1598 123.632 77.5084 123.885 77.9032 124.024C78.3012 124.161 78.7233 124.166 79.1693 124.038C79.4624 123.954 79.7139 123.827 79.9236 123.657C80.1333 123.486 80.2936 123.282 80.4044 123.043C80.5153 122.804 80.5674 122.541 80.5607 122.253L81.6886 121.93C81.7491 122.382 81.7033 122.817 81.5512 123.236C81.4014 123.652 81.1502 124.02 80.7976 124.342C80.4474 124.66 80.0015 124.896 79.4598 125.052ZM83.8129 118.859L85.0791 123.275L83.9513 123.598L81.1448 113.811L82.2726 113.487L83.3031 117.081L83.3987 117.054C83.462 116.625 83.6338 116.25 83.9139 115.929C84.1963 115.603 84.6259 115.357 85.2025 115.192C85.7027 115.048 86.1696 115.023 86.6031 115.116C87.0357 115.206 87.4144 115.426 87.7394 115.778C88.0666 116.126 88.3206 116.615 88.5015 117.246L89.839 121.91L88.7111 122.233L87.3956 117.645C87.2284 117.062 86.9478 116.655 86.5538 116.423C86.162 116.187 85.7001 116.146 85.1681 116.298C84.7985 116.404 84.4895 116.577 84.2412 116.817C83.996 117.057 83.8319 117.35 83.749 117.698C83.6692 118.045 83.6905 118.432 83.8129 118.859Z" fill="white"/>
<rect x="175.998" y="44.8884" width="135" height="31" rx="15.5" transform="rotate(6 175.998 44.8884)" fill="white"/>
<rect x="175.998" y="44.8884" width="135" height="31" rx="15.5" transform="rotate(6 175.998 44.8884)" stroke="black"/>
<path d="M198.471 60.8249L197.245 60.6961C197.209 60.3357 197.115 60.0126 196.962 59.7265C196.812 59.4408 196.618 59.1938 196.38 58.9855C196.145 58.7742 195.878 58.6061 195.578 58.4813C195.278 58.3564 194.96 58.2763 194.623 58.241C194.01 58.1765 193.439 58.2731 192.908 58.5306C192.381 58.7885 191.94 59.2036 191.583 59.776C191.229 60.3487 191.006 61.0735 190.914 61.9503C190.822 62.8271 190.889 63.5823 191.116 64.216C191.346 64.8501 191.692 65.348 192.154 65.7098C192.619 66.072 193.158 66.2853 193.771 66.3497C194.107 66.3851 194.435 66.3729 194.755 66.3131C195.074 66.2534 195.371 66.1462 195.643 65.9916C195.92 65.8341 196.161 65.6311 196.367 65.3828C196.577 65.1316 196.737 64.8351 196.846 64.4933L198.072 64.6222C197.925 65.13 197.708 65.5755 197.422 65.9586C197.135 66.3417 196.795 66.6575 196.402 66.9062C196.01 67.1516 195.58 67.3247 195.113 67.4255C194.649 67.5268 194.162 67.5505 193.651 67.4968C192.787 67.4061 192.041 67.1144 191.413 66.6218C190.785 66.1292 190.319 65.4737 190.015 64.6552C189.711 63.8368 189.615 62.8936 189.728 61.8256C189.84 60.7576 190.13 59.8549 190.597 59.1175C191.065 58.3802 191.657 57.8358 192.373 57.4846C193.09 57.1334 193.88 57.0031 194.744 57.0939C195.255 57.1476 195.727 57.2722 196.159 57.4676C196.595 57.6634 196.98 57.9237 197.312 58.2486C197.645 58.5702 197.912 58.9482 198.113 59.3826C198.314 59.8136 198.434 60.2944 198.471 60.8249ZM202.631 68.4607C201.946 68.3887 201.361 68.1623 200.878 67.7815C200.398 67.4012 200.044 66.9024 199.816 66.2852C199.59 65.6683 199.519 64.9676 199.602 64.1831C199.685 63.392 199.901 62.7165 200.249 62.1566C200.602 61.5971 201.052 61.1812 201.6 60.9089C202.152 60.637 202.771 60.537 203.456 60.6091C204.142 60.6811 204.725 60.9074 205.205 61.2877C205.688 61.6684 206.042 62.1689 206.267 62.7891C206.495 63.4096 206.567 64.1154 206.484 64.9065C206.402 65.691 206.185 66.3614 205.833 66.9176C205.484 67.4742 205.034 67.8884 204.482 68.1604C203.934 68.4327 203.317 68.5328 202.631 68.4607ZM202.741 67.4125C203.262 67.4672 203.705 67.3788 204.069 67.1471C204.433 66.9155 204.719 66.5906 204.926 66.1725C205.134 65.7543 205.264 65.2915 205.317 64.7838C205.371 64.2762 205.34 63.7947 205.224 63.3393C205.109 62.884 204.897 62.5035 204.589 62.1978C204.281 61.8922 203.867 61.712 203.346 61.6573C202.826 61.6025 202.383 61.6926 202.018 61.9276C201.654 62.1626 201.367 62.4907 201.16 62.9122C200.952 63.3336 200.822 63.7981 200.768 64.3057C200.715 64.8134 200.746 65.2932 200.862 65.7453C200.978 66.1974 201.19 66.5746 201.498 66.8769C201.806 67.1792 202.221 67.3578 202.741 67.4125ZM209.517 64.4055L209.037 68.974L207.87 68.8514L208.669 61.2569L209.796 61.3754L209.671 62.562L209.77 62.5724C209.989 62.2054 210.291 61.924 210.679 61.7281C211.066 61.5289 211.547 61.4594 212.12 61.5197C212.634 61.5737 213.073 61.7265 213.437 61.978C213.801 62.2262 214.067 62.5741 214.237 63.0219C214.407 63.4663 214.458 64.0116 214.39 64.6576L213.883 69.4833L212.716 69.3607L213.215 64.6141C213.277 64.0175 213.171 63.5364 212.896 63.1709C212.622 62.8022 212.214 62.5894 211.674 62.5325C211.301 62.4934 210.96 62.5392 210.65 62.6698C210.343 62.8009 210.089 63.0125 209.888 63.3046C209.687 63.5968 209.564 63.9638 209.517 64.4055ZM219.084 70.1899C218.372 70.1151 217.776 69.8825 217.297 69.4923C216.818 69.102 216.472 68.5973 216.257 67.9782C216.042 67.3591 215.974 66.6704 216.054 65.9123C216.135 65.141 216.348 64.4752 216.694 63.915C217.043 63.3518 217.49 62.9306 218.036 62.6514C218.586 62.3692 219.203 62.2641 219.889 62.3362C220.423 62.3923 220.894 62.5418 221.302 62.7846C221.709 63.0274 222.031 63.3412 222.267 63.726C222.504 64.1107 222.63 64.5439 222.646 65.0255L221.479 64.9028C221.426 64.5474 221.261 64.22 220.982 63.9208C220.707 63.6186 220.313 63.4405 219.799 63.3865C219.344 63.3387 218.932 63.4154 218.565 63.6167C218.201 63.8151 217.9 64.1185 217.664 64.5269C217.432 64.9323 217.285 65.4218 217.225 65.9954C217.163 66.5821 217.202 67.1027 217.341 67.5572C217.483 68.0121 217.711 68.3777 218.025 68.654C218.343 68.9306 218.732 69.0932 219.194 69.1417C219.497 69.1736 219.778 69.1498 220.036 69.0703C220.294 68.9908 220.52 68.8612 220.712 68.6814C220.904 68.5016 221.051 68.2771 221.153 68.0079L222.319 68.1305C222.206 68.5719 222.001 68.9585 221.703 69.2904C221.408 69.6194 221.037 69.867 220.59 70.0333C220.146 70.1966 219.644 70.2488 219.084 70.1899ZM226.96 71.0178C226.228 70.9409 225.614 70.713 225.117 70.3342C224.624 69.9524 224.265 69.4548 224.039 68.8412C223.818 68.2247 223.748 67.5274 223.829 66.7495C223.911 65.9716 224.125 65.3009 224.471 64.7374C224.82 64.1709 225.268 63.748 225.814 63.4688C226.363 63.1866 226.981 63.0816 227.667 63.1537C228.062 63.1952 228.446 63.3022 228.818 63.4746C229.189 63.647 229.518 63.8981 229.803 64.228C230.089 64.5547 230.3 64.9701 230.437 65.4744C230.574 65.9787 230.605 66.5852 230.531 67.2939L230.479 67.7883L224.625 67.173L224.731 66.1644L229.398 66.655C229.443 66.2265 229.398 65.8351 229.262 65.4809C229.129 65.127 228.916 64.8363 228.623 64.6089C228.334 64.3819 227.978 64.2462 227.556 64.2019C227.092 64.153 226.677 64.2261 226.314 64.4212C225.953 64.6133 225.663 64.8827 225.444 65.2296C225.224 65.5764 225.092 65.9591 225.048 66.3777L224.977 67.0502C224.917 67.6237 224.965 68.1203 225.121 68.5399C225.28 68.9566 225.527 69.2875 225.861 69.5326C226.196 69.7744 226.599 69.92 227.07 69.9696C227.377 70.0018 227.658 69.988 227.914 69.9283C228.174 69.8656 228.404 69.7565 228.604 69.6008C228.804 69.4419 228.967 69.2358 229.093 68.9825L230.188 69.4174C230.029 69.7873 229.794 70.1025 229.483 70.3632C229.173 70.6205 228.803 70.8083 228.374 70.9265C227.946 71.0414 227.474 71.0718 226.96 71.0178ZM231.597 74.2246L232.694 63.7821L233.822 63.9006L233.695 65.107L233.833 65.1215C233.933 64.9987 234.069 64.8431 234.242 64.6546C234.419 64.4633 234.659 64.3019 234.963 64.1705C235.271 64.0362 235.671 63.995 236.166 64.047C236.805 64.1142 237.352 64.3333 237.806 64.7043C238.261 65.0753 238.594 65.5686 238.806 66.184C239.018 66.7995 239.082 67.5061 238.998 68.3038C238.913 69.1081 238.703 69.7909 238.368 70.3521C238.032 70.9101 237.605 71.3252 237.087 71.5973C236.569 71.8661 235.993 71.9672 235.36 71.9007C234.873 71.8494 234.49 71.7276 234.214 71.5353C233.938 71.3396 233.732 71.1296 233.595 70.9053C233.459 70.6778 233.356 70.4902 233.285 70.3428L233.186 70.3324L232.764 74.3472L231.597 74.2246ZM233.442 67.6999C233.382 68.2735 233.413 68.7883 233.535 69.2443C233.657 69.6971 233.867 70.0641 234.164 70.3453C234.462 70.6231 234.844 70.7867 235.312 70.8359C235.8 70.8871 236.221 70.8014 236.574 70.5786C236.931 70.3528 237.215 70.0294 237.426 69.6083C237.641 69.1843 237.776 68.702 237.833 68.1614C237.889 67.6274 237.857 67.1375 237.738 66.6917C237.621 66.2429 237.412 65.8759 237.108 65.5907C236.809 65.3026 236.412 65.1326 235.917 65.0806C235.443 65.0307 235.031 65.1091 234.683 65.3158C234.335 65.5192 234.056 65.8265 233.846 66.2376C233.637 66.6455 233.502 67.133 233.442 67.6999ZM244.482 65.021L244.378 66.0099L240.442 65.5962L240.546 64.6073L244.482 65.021ZM241.884 62.9084L243.051 63.031L242.29 70.2695C242.256 70.5992 242.278 70.8514 242.356 71.0263C242.438 71.1982 242.552 71.3201 242.697 71.3921C242.847 71.4611 243.007 71.5046 243.179 71.5227C243.307 71.5362 243.413 71.5407 243.497 71.5361C243.581 71.5283 243.649 71.5221 243.699 71.5174L243.826 72.5905C243.744 72.6119 243.63 72.6299 243.486 72.6447C243.34 72.6628 243.159 72.6604 242.941 72.6375C242.612 72.6028 242.296 72.498 241.995 72.323C241.696 72.1484 241.459 71.9051 241.282 71.5932C241.108 71.2817 241.044 70.905 241.09 70.4633L241.884 62.9084ZM252.638 73.5566L249.513 73.2282L250.577 63.1022L253.841 63.4452C254.823 63.5484 255.642 63.8395 256.298 64.3183C256.955 64.7939 257.43 65.4287 257.723 66.2227C258.016 67.0134 258.108 67.9328 257.998 68.981C257.887 70.0358 257.604 70.9242 257.148 71.6461C256.692 72.3648 256.084 72.8907 255.322 73.2239C254.561 73.5538 253.666 73.6647 252.638 73.5566ZM250.853 72.2693L252.673 72.4606C253.51 72.5486 254.221 72.46 254.806 72.1948C255.39 71.9296 255.849 71.5129 256.182 70.9447C256.515 70.3765 256.724 69.6804 256.811 68.8563C256.897 68.0389 256.837 67.3211 256.632 66.703C256.428 66.0816 256.077 65.5848 255.579 65.2126C255.082 64.8371 254.438 64.6077 253.647 64.5246L251.689 64.3188L250.853 72.2693ZM262.53 74.7563C261.798 74.6794 261.184 74.4515 260.687 74.0727C260.194 73.6909 259.835 73.1933 259.609 72.5797C259.387 71.9632 259.317 71.266 259.399 70.4881C259.481 69.7101 259.695 69.0394 260.04 68.4759C260.39 67.9094 260.838 67.4866 261.383 67.2073C261.933 66.9252 262.551 66.8201 263.236 66.8922C263.632 66.9338 264.015 67.0407 264.387 67.2131C264.759 67.3855 265.088 67.6367 265.373 67.9666C265.658 68.2932 265.87 68.7087 266.007 69.213C266.144 69.7172 266.175 70.3237 266.1 71.0324L266.048 71.5269L260.194 70.9116L260.3 69.9029L264.968 70.3935C265.013 69.965 264.967 69.5736 264.831 69.2194C264.698 68.8655 264.486 68.5749 264.193 68.3475C263.904 68.1204 263.548 67.9847 263.126 67.9404C262.661 67.8915 262.247 67.9646 261.883 68.1597C261.523 68.3518 261.233 68.6213 261.013 68.9681C260.794 69.3149 260.662 69.6976 260.618 70.1163L260.547 70.7887C260.487 71.3622 260.535 71.8588 260.691 72.2785C260.85 72.6951 261.097 73.026 261.431 73.2711C261.766 73.5129 262.168 73.6585 262.64 73.7081C262.946 73.7403 263.228 73.7266 263.484 73.6668C263.744 73.6042 263.974 73.495 264.173 73.3394C264.373 73.1804 264.537 72.9743 264.663 72.721L265.757 73.1559C265.598 73.5258 265.364 73.8411 265.053 74.1017C264.743 74.359 264.373 74.5468 263.944 74.665C263.515 74.7799 263.044 74.8103 262.53 74.7563ZM273.465 69.7869L272.385 69.9734C272.338 69.7917 272.258 69.6118 272.147 69.4334C272.04 69.2522 271.883 69.0957 271.677 68.9641C271.471 68.8324 271.198 68.7488 270.858 68.7131C270.393 68.6642 269.995 68.7306 269.663 68.9123C269.334 69.0911 269.152 69.3436 269.118 69.6699C269.088 69.96 269.169 70.2002 269.362 70.3905C269.555 70.5807 269.87 70.7555 270.307 70.9147L271.405 71.31C272.067 71.5462 272.546 71.8516 272.844 72.2261C273.141 72.5973 273.262 73.0482 273.206 73.5789C273.16 74.014 272.994 74.3898 272.708 74.7063C272.425 75.0231 272.05 75.257 271.584 75.408C271.118 75.559 270.591 75.6035 270.001 75.5415C269.226 75.4601 268.603 75.2246 268.13 74.835C267.658 74.4455 267.388 73.9205 267.321 73.2603L268.458 73.0998C268.52 73.5196 268.687 73.8471 268.959 74.0823C269.234 74.3179 269.611 74.4608 270.089 74.511C270.633 74.5682 271.077 74.4982 271.421 74.3011C271.768 74.101 271.959 73.8378 271.994 73.5114C272.021 73.2477 271.952 73.0172 271.786 72.8198C271.621 72.6191 271.352 72.4542 270.979 72.325L269.744 71.8953C269.066 71.6574 268.582 71.3482 268.292 70.9678C268.005 70.5845 267.89 70.1307 267.945 69.6066C267.99 69.1781 268.15 68.8117 268.425 68.5074C268.704 68.2034 269.062 67.9794 269.501 67.8356C269.942 67.692 270.43 67.6483 270.964 67.7044C271.716 67.7834 272.288 68.0102 272.682 68.3849C273.08 68.7599 273.34 69.2272 273.465 69.7869ZM274.74 75.8797L275.539 68.2852L276.705 68.4078L275.907 76.0024L274.74 75.8797ZM276.265 67.0818C276.037 67.0579 275.849 66.9598 275.701 66.7876C275.556 66.6157 275.494 66.4209 275.517 66.2034C275.54 65.9858 275.641 65.8081 275.818 65.6701C275.999 65.5325 276.204 65.4757 276.431 65.4996C276.659 65.5235 276.845 65.6214 276.99 65.7933C277.139 65.9655 277.202 66.1604 277.179 66.378C277.156 66.5955 277.054 66.7731 276.873 66.9107C276.695 67.0487 276.492 67.1057 276.265 67.0818ZM280.794 79.5553C280.23 79.4961 279.753 79.3727 279.363 79.185C278.973 79.0007 278.654 78.7773 278.409 78.5148C278.166 78.256 277.979 77.9865 277.849 77.7061L278.847 77.1512C278.938 77.3007 279.055 77.473 279.198 77.6679C279.34 77.8662 279.544 78.046 279.811 78.2073C280.08 78.3722 280.444 78.4788 280.902 78.5269C281.515 78.5914 282.037 78.4962 282.467 78.2415C282.897 77.9867 283.145 77.5429 283.211 76.91L283.374 75.3674L283.275 75.357C283.174 75.4864 283.035 75.645 282.855 75.8328C282.679 76.0176 282.436 76.1736 282.126 76.301C281.819 76.4255 281.419 76.4617 280.925 76.4097C280.311 76.3453 279.776 76.1424 279.319 75.8011C278.865 75.4601 278.525 74.9978 278.3 74.4142C278.078 73.831 278.008 73.1438 278.092 72.3527C278.173 71.5748 278.381 70.9118 278.716 70.3637C279.05 69.8124 279.478 69.4041 279.999 69.1389C280.521 68.8705 281.101 68.7698 281.74 68.8371C282.235 68.889 282.618 69.0127 282.891 69.208C283.168 69.4003 283.372 69.6085 283.505 69.8324C283.642 70.0534 283.747 70.2343 283.818 70.3752L283.937 70.3876L284.064 69.1812L285.191 69.2997L284.37 77.1118C284.301 77.7644 284.097 78.2796 283.758 78.6571C283.421 79.0383 282.994 79.2983 282.476 79.4372C281.961 79.5797 281.4 79.6191 280.794 79.5553ZM281.193 75.3782C281.661 75.4274 282.068 75.3618 282.413 75.1815C282.759 75.0012 283.037 74.7188 283.247 74.3343C283.458 73.9499 283.592 73.4774 283.651 72.9171C283.709 72.3699 283.677 71.8783 283.556 71.4424C283.435 71.0065 283.226 70.6528 282.928 70.3816C282.63 70.1103 282.243 69.9497 281.769 69.8998C281.274 69.8478 280.849 69.9298 280.493 70.1457C280.141 70.3619 279.86 70.6723 279.65 71.0769C279.445 71.4818 279.315 71.9414 279.261 72.4556C279.205 72.983 279.239 73.4581 279.361 73.8808C279.487 74.3007 279.701 74.6431 280.003 74.9081C280.308 75.1702 280.705 75.3269 281.193 75.3782ZM288.176 72.6728L287.696 77.2414L286.529 77.1187L287.327 69.5242L288.454 69.6427L288.33 70.8293L288.429 70.8397C288.647 70.4728 288.95 70.1913 289.337 69.9954C289.725 69.7962 290.205 69.7267 290.779 69.787C291.293 69.8411 291.732 69.9938 292.095 70.2453C292.459 70.4935 292.726 70.8415 292.895 71.2892C293.065 71.7337 293.116 72.2789 293.048 72.925L292.541 77.7507L291.374 77.628L291.873 72.8814C291.936 72.2848 291.83 71.8038 291.555 71.4383C291.28 71.0695 290.873 70.8567 290.332 70.7999C289.96 70.7607 289.618 70.8065 289.308 70.9372C289.001 71.0682 288.747 71.2798 288.547 71.572C288.346 71.8642 288.222 72.2311 288.176 72.6728Z" fill="black"/>
<rect x="143.542" y="219.046" width="132" height="31" rx="15.5" transform="rotate(-5 143.542 219.046)" fill="black"/>
<rect x="143.542" y="219.046" width="132" height="31" rx="15.5" transform="rotate(-5 143.542 219.046)" stroke="white"/>
<path d="M161.688 227.816L162.575 237.959L161.347 238.067L160.459 227.924L161.688 227.816ZM164.879 237.758L164.214 230.151L165.343 230.052L165.447 231.24L165.546 231.232C165.669 230.812 165.897 230.474 166.231 230.219C166.564 229.96 166.979 229.809 167.474 229.766C167.976 229.722 168.403 229.799 168.757 229.998C169.113 230.193 169.403 230.485 169.627 230.875L169.706 230.868C169.867 230.458 170.132 230.12 170.501 229.855C170.87 229.587 171.327 229.428 171.872 229.381C172.552 229.321 173.127 229.486 173.597 229.874C174.066 230.258 174.34 230.898 174.418 231.793L174.864 236.884L173.695 236.987L173.25 231.895C173.2 231.334 173.012 230.946 172.684 230.732C172.356 230.518 171.983 230.429 171.567 230.465C171.033 230.512 170.632 230.71 170.367 231.06C170.101 231.406 169.99 231.824 170.033 232.316L170.466 237.269L169.277 237.373L168.821 232.163C168.784 231.73 168.613 231.394 168.309 231.155C168.005 230.912 167.632 230.81 167.189 230.848C166.886 230.875 166.609 230.981 166.359 231.166C166.112 231.35 165.92 231.593 165.784 231.895C165.65 232.193 165.6 232.528 165.632 232.901L166.048 237.656L164.879 237.758ZM177.251 239.55L176.335 229.09L177.465 228.991L177.57 230.2L177.709 230.188C177.783 230.048 177.887 229.869 178.021 229.651C178.158 229.43 178.363 229.225 178.637 229.038C178.913 228.848 179.298 228.731 179.794 228.688C180.434 228.632 181.013 228.742 181.529 229.02C182.046 229.297 182.467 229.718 182.793 230.282C183.118 230.846 183.316 231.527 183.386 232.326C183.456 233.132 183.38 233.842 183.158 234.457C182.935 235.069 182.595 235.557 182.138 235.924C181.681 236.286 181.135 236.495 180.501 236.551C180.013 236.594 179.614 236.547 179.306 236.411C178.998 236.271 178.756 236.105 178.579 235.911C178.402 235.713 178.265 235.549 178.167 235.418L178.068 235.426L178.419 239.448L177.251 239.55ZM177.817 232.793C177.867 233.368 177.996 233.867 178.203 234.292C178.409 234.713 178.685 235.033 179.03 235.252C179.375 235.468 179.782 235.556 180.251 235.515C180.74 235.472 181.136 235.308 181.441 235.021C181.748 234.732 181.965 234.36 182.092 233.906C182.221 233.449 182.263 232.95 182.215 232.408C182.168 231.874 182.044 231.399 181.841 230.984C181.641 230.566 181.366 230.245 181.013 230.023C180.664 229.798 180.242 229.706 179.747 229.75C179.271 229.791 178.882 229.947 178.58 230.216C178.277 230.482 178.062 230.837 177.934 231.281C177.807 231.721 177.768 232.225 177.817 232.793ZM185.781 225.709L186.669 235.852L185.5 235.954L184.612 225.811L185.781 225.709ZM192.013 235.544C191.28 235.608 190.633 235.501 190.073 235.224C189.517 234.944 189.069 234.524 188.731 233.964C188.395 233.402 188.193 232.73 188.125 231.951C188.057 231.172 188.139 230.473 188.371 229.854C188.606 229.231 188.965 228.73 189.447 228.352C189.933 227.97 190.519 227.749 191.206 227.689C191.602 227.655 191.999 227.686 192.397 227.785C192.795 227.883 193.165 228.067 193.508 228.336C193.851 228.602 194.138 228.97 194.368 229.439C194.599 229.908 194.745 230.497 194.807 231.207L194.851 231.702L188.987 232.215L188.898 231.205L193.574 230.796C193.536 230.367 193.417 229.991 193.216 229.669C193.018 229.347 192.753 229.103 192.423 228.935C192.095 228.768 191.72 228.702 191.298 228.739C190.832 228.78 190.439 228.931 190.12 229.192C189.803 229.449 189.569 229.769 189.42 230.151C189.27 230.534 189.214 230.934 189.251 231.354L189.31 232.027C189.36 232.602 189.502 233.08 189.735 233.462C189.971 233.841 190.276 234.119 190.651 234.295C191.025 234.469 191.449 234.535 191.921 234.494C192.228 234.467 192.502 234.4 192.742 234.292C192.985 234.181 193.19 234.03 193.356 233.839C193.522 233.645 193.643 233.412 193.719 233.139L194.876 233.357C194.79 233.75 194.62 234.105 194.365 234.42C194.109 234.731 193.782 234.986 193.384 235.184C192.985 235.379 192.528 235.499 192.013 235.544ZM196.927 234.954L196.261 227.347L197.39 227.248L197.494 228.437L197.593 228.428C197.716 228.008 197.945 227.67 198.278 227.415C198.612 227.156 199.026 227.005 199.521 226.962C200.023 226.918 200.451 226.995 200.804 227.194C201.161 227.389 201.451 227.681 201.674 228.071L201.754 228.064C201.914 227.654 202.179 227.316 202.548 227.051C202.918 226.783 203.375 226.625 203.919 226.577C204.599 226.517 205.174 226.682 205.644 227.07C206.114 227.455 206.388 228.094 206.466 228.989L206.911 234.081L205.743 234.183L205.297 229.091C205.248 228.53 205.059 228.142 204.731 227.928C204.403 227.714 204.031 227.625 203.615 227.662C203.08 227.708 202.68 227.906 202.414 228.256C202.148 228.602 202.037 229.021 202.08 229.513L202.513 234.465L201.325 234.569L200.869 229.359C200.831 228.927 200.66 228.591 200.357 228.351C200.052 228.108 199.679 228.006 199.237 228.045C198.933 228.071 198.656 228.177 198.406 228.362C198.159 228.546 197.968 228.789 197.831 229.091C197.698 229.389 197.647 229.724 197.68 230.097L198.096 234.852L196.927 234.954ZM212.252 233.773C211.519 233.837 210.872 233.731 210.313 233.454C209.756 233.173 209.308 232.753 208.97 232.194C208.634 231.631 208.432 230.96 208.364 230.181C208.296 229.401 208.378 228.702 208.61 228.083C208.845 227.46 209.204 226.96 209.686 226.581C210.172 226.2 210.758 225.979 211.445 225.919C211.841 225.884 212.238 225.916 212.636 226.014C213.034 226.112 213.404 226.296 213.747 226.566C214.09 226.832 214.377 227.199 214.607 227.668C214.838 228.137 214.984 228.726 215.046 229.436L215.09 229.932L209.226 230.445L209.137 229.434L213.813 229.025C213.775 228.596 213.656 228.22 213.455 227.899C213.257 227.577 212.993 227.332 212.662 227.165C212.334 226.997 211.959 226.932 211.537 226.969C211.071 227.009 210.678 227.16 210.359 227.421C210.042 227.678 209.809 227.998 209.659 228.38C209.51 228.763 209.453 229.164 209.49 229.583L209.549 230.257C209.599 230.831 209.741 231.309 209.974 231.692C210.21 232.07 210.515 232.348 210.89 232.525C211.264 232.698 211.688 232.764 212.16 232.723C212.467 232.696 212.741 232.629 212.981 232.522C213.224 232.41 213.429 232.259 213.595 232.069C213.761 231.874 213.882 231.641 213.958 231.368L215.115 231.586C215.029 231.98 214.859 232.334 214.604 232.649C214.348 232.961 214.021 233.216 213.623 233.414C213.224 233.608 212.767 233.728 212.252 233.773ZM217.934 228.505L218.335 233.081L217.166 233.183L216.5 225.576L217.63 225.477L217.734 226.666L217.833 226.657C217.977 226.255 218.221 225.921 218.563 225.655C218.906 225.386 219.364 225.226 219.939 225.175C220.454 225.13 220.914 225.197 221.319 225.374C221.723 225.548 222.051 225.839 222.303 226.246C222.555 226.65 222.709 227.176 222.765 227.823L223.188 232.657L222.02 232.759L221.604 228.004C221.551 227.407 221.355 226.955 221.016 226.648C220.676 226.339 220.235 226.208 219.694 226.255C219.321 226.288 218.994 226.398 218.715 226.585C218.438 226.772 218.229 227.028 218.088 227.354C217.947 227.679 217.896 228.062 217.934 228.505ZM227.967 224.573L228.054 225.563L224.111 225.908L224.025 224.918L227.967 224.573ZM225.014 222.995L226.183 222.892L226.817 230.143C226.846 230.473 226.916 230.717 227.026 230.873C227.139 231.027 227.274 231.125 227.431 231.167C227.591 231.207 227.757 231.219 227.928 231.204C228.057 231.193 228.162 231.177 228.244 231.156C228.325 231.133 228.39 231.114 228.438 231.099L228.768 232.128C228.691 232.165 228.583 232.204 228.444 232.247C228.305 232.292 228.126 232.324 227.908 232.343C227.578 232.372 227.248 232.33 226.919 232.215C226.593 232.101 226.313 231.907 226.08 231.635C225.849 231.362 225.715 231.005 225.676 230.562L225.014 222.995ZM232.645 232.009C232.163 232.051 231.717 231.998 231.309 231.851C230.9 231.701 230.564 231.462 230.303 231.136C230.041 230.806 229.889 230.393 229.845 229.898C229.807 229.462 229.862 229.102 230.01 228.816C230.158 228.527 230.368 228.292 230.642 228.112C230.916 227.931 231.223 227.788 231.563 227.682C231.906 227.572 232.252 227.478 232.601 227.401C233.058 227.301 233.429 227.224 233.714 227.169C234.001 227.111 234.208 227.038 234.333 226.95C234.462 226.863 234.518 226.725 234.502 226.536L234.498 226.497C234.456 226.008 234.289 225.64 233.997 225.393C233.71 225.145 233.297 225.045 232.758 225.092C232.2 225.141 231.774 225.301 231.478 225.573C231.182 225.845 230.982 226.126 230.878 226.414L229.734 226.115C229.892 225.636 230.124 225.253 230.432 224.966C230.742 224.676 231.09 224.463 231.474 224.326C231.861 224.186 232.246 224.099 232.629 224.065C232.873 224.044 233.156 224.049 233.478 224.081C233.804 224.109 234.123 224.199 234.435 224.351C234.751 224.503 235.024 224.751 235.254 225.093C235.483 225.436 235.625 225.909 235.678 226.513L236.116 231.525L234.947 231.628L234.857 230.598L234.798 230.603C234.733 230.775 234.616 230.963 234.448 231.167C234.279 231.372 234.047 231.553 233.752 231.712C233.456 231.871 233.087 231.97 232.645 232.009ZM232.731 230.943C233.194 230.903 233.575 230.778 233.876 230.569C234.181 230.359 234.401 230.103 234.538 229.802C234.678 229.5 234.734 229.191 234.706 228.874L234.613 227.804C234.568 227.868 234.464 227.932 234.3 227.996C234.139 228.057 233.951 228.115 233.736 228.17C233.525 228.222 233.318 228.27 233.115 228.315C232.916 228.355 232.754 228.389 232.63 228.417C232.33 228.483 232.052 228.572 231.795 228.685C231.542 228.793 231.342 228.942 231.195 229.131C231.052 229.317 230.993 229.558 231.019 229.855C231.055 230.262 231.232 230.555 231.551 230.737C231.872 230.915 232.266 230.984 232.731 230.943ZM240.892 223.442L240.979 224.433L237.037 224.778L236.95 223.787L240.892 223.442ZM237.939 221.864L239.108 221.762L239.743 229.012C239.772 229.343 239.841 229.586 239.951 229.743C240.064 229.896 240.199 229.994 240.356 230.037C240.516 230.076 240.682 230.088 240.854 230.073C240.982 230.062 241.087 230.046 241.169 230.025C241.25 230.002 241.315 229.983 241.363 229.968L241.693 230.998C241.616 231.034 241.508 231.074 241.369 231.116C241.23 231.161 241.051 231.194 240.833 231.213C240.503 231.241 240.174 231.199 239.844 231.085C239.518 230.97 239.238 230.777 239.005 230.504C238.775 230.232 238.64 229.874 238.602 229.432L237.939 221.864ZM243.316 230.896L242.65 223.288L243.819 223.186L244.485 230.793L243.316 230.896ZM243.134 221.968C242.906 221.988 242.703 221.928 242.524 221.787C242.349 221.646 242.252 221.467 242.232 221.249C242.213 221.031 242.278 220.837 242.426 220.668C242.578 220.498 242.767 220.403 242.995 220.384C243.223 220.364 243.425 220.424 243.6 220.565C243.779 220.706 243.877 220.885 243.897 221.103C243.916 221.321 243.849 221.515 243.698 221.684C243.55 221.854 243.362 221.948 243.134 221.968ZM249.73 230.494C249.043 230.554 248.426 230.443 247.879 230.162C247.336 229.88 246.893 229.458 246.551 228.896C246.212 228.333 246.008 227.659 245.94 226.873C245.87 226.081 245.953 225.376 246.189 224.76C246.428 224.144 246.791 223.65 247.277 223.278C247.767 222.906 248.355 222.689 249.042 222.629C249.729 222.569 250.344 222.68 250.888 222.962C251.435 223.243 251.877 223.667 252.216 224.233C252.559 224.799 252.765 225.478 252.834 226.27C252.903 227.056 252.817 227.755 252.578 228.368C252.342 228.981 251.98 229.474 251.49 229.846C251.003 230.218 250.417 230.434 249.73 230.494ZM249.638 229.444C250.16 229.399 250.577 229.227 250.891 228.93C251.204 228.633 251.423 228.26 251.546 227.81C251.67 227.36 251.709 226.881 251.665 226.372C251.621 225.864 251.498 225.397 251.298 224.972C251.098 224.547 250.817 224.214 250.457 223.973C250.096 223.731 249.655 223.634 249.134 223.679C248.612 223.725 248.195 223.898 247.882 224.198C247.568 224.498 247.35 224.875 247.227 225.328C247.104 225.782 247.064 226.262 247.109 226.771C247.153 227.279 247.275 227.744 247.475 228.166C247.675 228.588 247.955 228.918 248.315 229.156C248.675 229.394 249.116 229.49 249.638 229.444ZM255.716 225.199L256.116 229.776L254.947 229.878L254.282 222.271L255.411 222.172L255.515 223.361L255.614 223.352C255.759 222.95 256.002 222.616 256.345 222.35C256.687 222.08 257.146 221.92 257.72 221.87C258.235 221.825 258.695 221.891 259.1 222.069C259.505 222.243 259.833 222.534 260.085 222.941C260.336 223.345 260.49 223.87 260.547 224.517L260.97 229.351L259.801 229.453L259.385 224.699C259.333 224.101 259.137 223.649 258.797 223.343C258.457 223.033 258.017 222.902 257.475 222.949C257.102 222.982 256.776 223.092 256.496 223.28C256.22 223.467 256.011 223.723 255.87 224.048C255.728 224.373 255.677 224.757 255.716 225.199Z" fill="white"/>
<rect x="226.016" y="231" width="79" height="32" rx="16" transform="rotate(24 226.016 231)" fill="#D6D8E8"/>
<path d="M235.735 248.366L236.18 247.367L243.156 250.473L242.711 251.472L239.786 250.17L236.09 258.473L234.963 257.971L238.66 249.669L235.735 248.366ZM242.456 261.481C241.784 261.182 241.27 260.775 240.915 260.262C240.564 259.746 240.376 259.162 240.351 258.509C240.331 257.854 240.48 257.169 240.798 256.454C241.116 255.74 241.526 255.168 242.03 254.739C242.537 254.308 243.093 254.044 243.699 253.948C244.309 253.849 244.929 253.94 245.558 254.22C245.922 254.382 246.254 254.602 246.554 254.881C246.854 255.16 247.089 255.5 247.258 255.902C247.429 256.301 247.502 256.762 247.476 257.284C247.45 257.806 247.293 258.392 247.003 259.043L246.801 259.497L241.423 257.103L241.836 256.176L246.123 258.085C246.298 257.692 246.376 257.305 246.356 256.927C246.339 256.549 246.227 256.207 246.019 255.9C245.814 255.595 245.517 255.356 245.13 255.183C244.703 254.993 244.286 254.935 243.88 255.008C243.478 255.079 243.119 255.246 242.803 255.508C242.487 255.77 242.243 256.093 242.072 256.477L241.797 257.095C241.562 257.622 241.454 258.109 241.473 258.556C241.496 259.002 241.628 259.393 241.87 259.729C242.114 260.063 242.452 260.326 242.885 260.518C243.166 260.644 243.438 260.718 243.7 260.74C243.967 260.761 244.219 260.728 244.457 260.642C244.697 260.552 244.916 260.407 245.114 260.205L246.02 260.957C245.755 261.259 245.434 261.487 245.058 261.638C244.684 261.787 244.274 261.852 243.83 261.831C243.386 261.808 242.929 261.692 242.456 261.481ZM254.392 260.134L253.308 259.978C253.319 259.791 253.299 259.595 253.248 259.391C253.202 259.185 253.101 258.988 252.945 258.799C252.79 258.61 252.556 258.446 252.245 258.307C251.818 258.117 251.418 258.057 251.046 258.127C250.678 258.196 250.427 258.38 250.294 258.68C250.175 258.946 250.178 259.2 250.303 259.44C250.428 259.681 250.674 259.945 251.04 260.231L251.962 260.946C252.519 261.375 252.88 261.814 253.047 262.262C253.215 262.707 253.191 263.173 252.974 263.661C252.796 264.06 252.522 264.366 252.152 264.579C251.784 264.793 251.356 264.899 250.866 264.899C250.377 264.899 249.861 264.778 249.319 264.537C248.607 264.22 248.087 263.803 247.758 263.287C247.43 262.77 247.335 262.188 247.475 261.539L248.606 261.738C248.536 262.156 248.593 262.519 248.779 262.827C248.968 263.136 249.282 263.388 249.721 263.584C250.221 263.806 250.665 263.877 251.053 263.796C251.445 263.713 251.708 263.522 251.842 263.222C251.949 262.98 251.955 262.739 251.858 262.5C251.763 262.258 251.558 262.018 251.243 261.78L250.201 260.99C249.63 260.554 249.265 260.11 249.107 259.659C248.953 259.206 248.983 258.738 249.198 258.257C249.373 257.863 249.639 257.564 249.994 257.36C250.353 257.157 250.763 257.055 251.225 257.053C251.689 257.053 252.167 257.163 252.657 257.381C253.347 257.688 253.822 258.081 254.081 258.559C254.343 259.038 254.446 259.563 254.392 260.134ZM259.862 260.698L259.458 261.606L255.842 259.996L256.247 259.088L259.862 260.698ZM258.045 257.886L259.116 258.363L256.156 265.012C256.021 265.315 255.964 265.562 255.984 265.752C256.009 265.941 256.08 266.092 256.196 266.205C256.317 266.317 256.456 266.408 256.613 266.478C256.731 266.531 256.831 266.568 256.912 266.59C256.995 266.608 257.061 266.623 257.11 266.634L256.899 267.694C256.815 267.689 256.701 267.671 256.559 267.64C256.415 267.613 256.243 267.554 256.043 267.465C255.741 267.33 255.473 267.133 255.24 266.874C255.01 266.615 254.86 266.311 254.787 265.959C254.718 265.609 254.774 265.231 254.955 264.826L258.045 257.886ZM258.368 268.392L261.474 261.415L262.546 261.893L259.44 268.869L258.368 268.392ZM262.537 260.495C262.328 260.402 262.18 260.251 262.092 260.041C262.007 259.833 262.009 259.629 262.097 259.429C262.186 259.229 262.337 259.091 262.549 259.015C262.763 258.94 262.975 258.949 263.184 259.042C263.393 259.135 263.54 259.286 263.625 259.494C263.713 259.704 263.712 259.909 263.624 260.108C263.535 260.308 263.383 260.446 263.168 260.521C262.956 260.597 262.746 260.588 262.537 260.495ZM264.344 266.023L262.475 270.22L261.403 269.743L264.509 262.767L265.545 263.228L265.06 264.318L265.15 264.358C265.472 264.077 265.847 263.903 266.275 263.836C266.706 263.766 267.184 263.849 267.711 264.083C268.183 264.294 268.553 264.574 268.821 264.926C269.091 265.274 269.237 265.688 269.26 266.166C269.284 266.641 269.164 267.176 268.9 267.769L266.926 272.202L265.854 271.725L267.796 267.364C268.04 266.816 268.087 266.326 267.939 265.894C267.792 265.458 267.47 265.13 266.973 264.909C266.631 264.756 266.292 264.694 265.957 264.723C265.624 264.752 265.317 264.875 265.036 265.091C264.755 265.307 264.524 265.618 264.344 266.023ZM270.471 277.089C269.953 276.858 269.538 276.594 269.225 276.295C268.91 275.999 268.677 275.688 268.524 275.362C268.373 275.041 268.279 274.727 268.242 274.42L269.363 274.201C269.403 274.371 269.461 274.571 269.536 274.801C269.611 275.033 269.749 275.267 269.953 275.503C270.158 275.743 270.471 275.957 270.892 276.144C271.455 276.395 271.98 276.466 272.468 276.356C272.956 276.247 273.329 275.902 273.588 275.32L274.219 273.903L274.128 273.863C273.993 273.955 273.811 274.062 273.582 274.185C273.357 274.307 273.078 274.38 272.744 274.405C272.414 274.429 272.022 274.34 271.568 274.138C271.004 273.887 270.558 273.529 270.229 273.063C269.902 272.598 269.722 272.053 269.688 271.429C269.657 270.805 269.803 270.13 270.127 269.404C270.445 268.689 270.848 268.123 271.335 267.705C271.824 267.284 272.357 267.028 272.934 266.937C273.513 266.843 274.096 266.926 274.684 267.188C275.138 267.39 275.464 267.626 275.663 267.896C275.867 268.164 275.997 268.426 276.055 268.68C276.116 268.932 276.16 269.137 276.184 269.293L276.293 269.341L276.787 268.233L277.822 268.694L274.627 275.87C274.361 276.47 274.007 276.896 273.568 277.151C273.13 277.409 272.643 277.524 272.107 277.496C271.574 277.473 271.028 277.337 270.471 277.089ZM272.142 273.24C272.572 273.431 272.979 273.494 273.363 273.43C273.747 273.365 274.099 273.182 274.418 272.882C274.737 272.581 275.011 272.173 275.24 271.659C275.464 271.156 275.586 270.679 275.605 270.227C275.625 269.775 275.535 269.374 275.336 269.024C275.136 268.673 274.818 268.401 274.382 268.207C273.928 268.005 273.498 267.952 273.093 268.047C272.691 268.144 272.328 268.352 272.004 268.672C271.683 268.994 271.417 269.391 271.207 269.863C270.991 270.347 270.876 270.809 270.862 271.249C270.852 271.687 270.949 272.079 271.155 272.425C271.364 272.768 271.693 273.04 272.142 273.24Z" fill="black"/>
<defs>
<linearGradient id="paint0_linear_869_1102" x1="90.8406" y1="90.841" x2="145.729" y2="145.73" gradientUnits="userSpaceOnUse">
<stop/>
<stop offset="1" stop-opacity="0.15"/>
</linearGradient>
<linearGradient id="paint1_linear_869_1102" x1="108.405" y1="108.405" x2="152.316" y2="152.316" gradientUnits="userSpaceOnUse">
<stop/>
<stop offset="1" stop-opacity="0.15"/>
</linearGradient>
<linearGradient id="paint2_linear_869_1102" x1="125.969" y1="125.97" x2="158.902" y2="158.903" gradientUnits="userSpaceOnUse">
<stop/>
<stop offset="1" stop-opacity="0.15"/>
</linearGradient>
<linearGradient id="paint3_linear_869_1102" x1="143.534" y1="143.534" x2="165.489" y2="165.49" gradientUnits="userSpaceOnUse">
<stop/>
<stop offset="1" stop-opacity="0.15"/>
</linearGradient>
<linearGradient id="paint4_linear_869_1102" x1="161.099" y1="161.099" x2="172.076" y2="172.077" gradientUnits="userSpaceOnUse">
<stop/>
<stop offset="1" stop-opacity="0.15"/>
</linearGradient>
<linearGradient id="paint5_linear_869_1102" x1="266.485" y1="266.485" x2="211.596" y2="211.596" gradientUnits="userSpaceOnUse">
<stop/>
<stop offset="1" stop-opacity="0.15"/>
</linearGradient>
<linearGradient id="paint6_linear_869_1102" x1="248.92" y1="248.92" x2="205.009" y2="205.009" gradientUnits="userSpaceOnUse">
<stop/>
<stop offset="1" stop-opacity="0.15"/>
</linearGradient>
<linearGradient id="paint7_linear_869_1102" x1="231.356" y1="231.356" x2="198.422" y2="198.423" gradientUnits="userSpaceOnUse">
<stop/>
<stop offset="1" stop-opacity="0.15"/>
</linearGradient>
<linearGradient id="paint8_linear_869_1102" x1="213.791" y1="213.791" x2="191.836" y2="191.836" gradientUnits="userSpaceOnUse">
<stop/>
<stop offset="1" stop-opacity="0.15"/>
</linearGradient>
<linearGradient id="paint9_linear_869_1102" x1="196.227" y1="196.227" x2="185.25" y2="185.249" gradientUnits="userSpaceOnUse">
<stop/>
<stop offset="1" stop-opacity="0.15"/>
</linearGradient>
</defs>
</svg>
