<?xml version="1.0" encoding="utf-8"?>
<!-- Generator: Adobe Illustrator 24.2.0, SVG Export Plug-In . SVG Version: 6.00 Build 0)  -->
<svg version="1.1" xmlns="http://www.w3.org/2000/svg" xmlns:xlink="http://www.w3.org/1999/xlink" x="0px" y="0px"
	 viewBox="0 0 2067.06 1250.04" style="enable-background:new 0 0 2067.06 1250.04;" xml:space="preserve">
<style type="text/css">
	.st0{display:none;}
	.st1{display:inline;fill:#FFFFFF;stroke:#000000;stroke-miterlimit:10;}
	.st2{fill:none;stroke:#000000;stroke-miterlimit:10;}
	.st3{display:inline;}
</style>
<g id="Guides_For_Artboard" class="st0">
</g>
<g id="Layer_1" class="st0">
	<polygon class="st1" points="2044.8,1241.36 3.96,1241.36 3.96,8.46 2046.04,8.46 	"/>
</g>
<g id="Layer_2">
	<g>
		<g>
			<g>
				
					<ellipse transform="matrix(0.7071 -0.7071 0.7071 0.7071 -24.9223 1203.8794)" class="st2" cx="1440.75" cy="632.02" rx="588.4" ry="588.4"/>
			</g>
			<g>
				
					<ellipse transform="matrix(0.7071 -0.7071 0.7071 0.7071 -49.0141 1145.7168)" class="st2" cx="1358.5" cy="632.02" rx="588.4" ry="588.4"/>
			</g>
			<g>
				
					<ellipse transform="matrix(0.7071 -0.7071 0.7071 0.7071 -73.1058 1087.5542)" class="st2" cx="1276.24" cy="632.02" rx="588.4" ry="588.4"/>
			</g>
			<g>
				
					<ellipse transform="matrix(0.7071 -0.7071 0.7071 0.7071 -97.1976 1029.3916)" class="st2" cx="1193.99" cy="632.02" rx="588.4" ry="588.4"/>
			</g>
			<g>
				
					<ellipse transform="matrix(0.7071 -0.7071 0.7071 0.7071 -121.2893 971.229)" class="st2" cx="1111.73" cy="632.02" rx="588.4" ry="588.4"/>
			</g>
			<g>
				
					<ellipse transform="matrix(0.7071 -0.7071 0.7071 0.7071 -145.3811 913.0663)" class="st2" cx="1029.48" cy="632.02" rx="588.4" ry="588.4"/>
			</g>
			<g>
				
					<ellipse transform="matrix(0.7071 -0.7071 0.7071 0.7071 -169.4728 854.9037)" class="st2" cx="947.22" cy="632.02" rx="588.4" ry="588.4"/>
			</g>
			<g>
				
					<ellipse transform="matrix(0.7071 -0.7071 0.7071 0.7071 -193.5645 796.7411)" class="st2" cx="864.97" cy="632.02" rx="588.4" ry="588.4"/>
			</g>
			<g>
				
					<ellipse transform="matrix(0.7071 -0.7071 0.7071 0.7071 -217.6563 738.5786)" class="st2" cx="782.72" cy="632.02" rx="588.4" ry="588.4"/>
			</g>
			<g>
				
					<ellipse transform="matrix(0.7071 -0.7071 0.7071 0.7071 -241.748 680.4159)" class="st2" cx="700.46" cy="632.02" rx="588.4" ry="588.4"/>
			</g>
			<g>
				
					<ellipse transform="matrix(0.7071 -0.7071 0.7071 0.7071 -265.8398 622.2533)" class="st2" cx="618.21" cy="632.02" rx="588.4" ry="588.4"/>
			</g>
		</g>
	</g>
	<g class="st0">
		<g class="st3">
			<g>
				<ellipse class="st2" cx="476.65" cy="193.63" rx="299.2" ry="17.46"/>
			</g>
			<g>
				<ellipse class="st2" cx="476.65" cy="206.85" rx="277.04" ry="17.63"/>
			</g>
			<g>
				<ellipse class="st2" cx="476.65" cy="220.2" rx="256.52" ry="17.81"/>
			</g>
			<g>
				<ellipse class="st2" cx="476.65" cy="233.69" rx="237.52" ry="17.99"/>
			</g>
			<g>
				<ellipse class="st2" cx="476.65" cy="247.31" rx="219.92" ry="18.17"/>
			</g>
			<g>
				<ellipse class="st2" cx="476.65" cy="261.07" rx="203.63" ry="18.36"/>
			</g>
			<g>
				<ellipse class="st2" cx="476.65" cy="274.97" rx="188.55" ry="18.54"/>
			</g>
			<g>
				<ellipse class="st2" cx="476.65" cy="289.01" rx="174.58" ry="18.73"/>
			</g>
			<g>
				<ellipse class="st2" cx="476.65" cy="303.2" rx="161.65" ry="18.92"/>
			</g>
			<g>
				<ellipse class="st2" cx="476.65" cy="317.52" rx="149.68" ry="19.11"/>
			</g>
			<g>
				<ellipse class="st2" cx="476.65" cy="331.99" rx="138.59" ry="19.3"/>
			</g>
			<g>
				<ellipse class="st2" cx="476.65" cy="346.61" rx="128.32" ry="19.5"/>
			</g>
			<g>
				<ellipse class="st2" cx="476.65" cy="361.37" rx="118.82" ry="19.69"/>
			</g>
			<g>
				<ellipse class="st2" cx="476.65" cy="376.28" rx="110.02" ry="19.89"/>
			</g>
			<g>
				<ellipse class="st2" cx="476.65" cy="391.35" rx="101.87" ry="20.09"/>
			</g>
			<g>
				<ellipse class="st2" cx="476.65" cy="406.56" rx="94.32" ry="20.3"/>
			</g>
			<g>
				<ellipse class="st2" cx="476.65" cy="421.93" rx="87.34" ry="20.5"/>
			</g>
			<g>
				<ellipse class="st2" cx="476.65" cy="437.46" rx="80.87" ry="20.71"/>
			</g>
			<g>
				<ellipse class="st2" cx="476.65" cy="453.14" rx="74.88" ry="20.92"/>
			</g>
			<g>
				<ellipse class="st2" cx="476.65" cy="468.98" rx="69.33" ry="21.13"/>
			</g>
			<g>
				<ellipse class="st2" cx="476.65" cy="484.98" rx="64.19" ry="21.34"/>
			</g>
		</g>
	</g>
	<g class="st0">
		<g class="st3">
			<g>
				<ellipse class="st2" cx="1686.48" cy="757.34" rx="46.96" ry="237.79"/>
			</g>
			<g>
				<ellipse class="st2" cx="1686.95" cy="762.85" rx="51.31" ry="220.92"/>
			</g>
			<g>
				<ellipse class="st2" cx="1687.45" cy="767.97" rx="56.07" ry="205.25"/>
			</g>
			<g>
				<ellipse class="st2" cx="1688" cy="772.73" rx="61.26" ry="190.69"/>
			</g>
			<g>
				<ellipse class="st2" cx="1688.61" cy="777.15" rx="66.94" ry="177.17"/>
			</g>
			<g>
				<ellipse class="st2" cx="1689.26" cy="781.26" rx="73.15" ry="164.6"/>
			</g>
			<g>
				<ellipse class="st2" cx="1689.98" cy="785.07" rx="79.93" ry="152.93"/>
			</g>
			<g>
				<ellipse class="st2" cx="1690.77" cy="788.62" rx="87.34" ry="142.08"/>
			</g>
			<g>
				<ellipse class="st2" cx="1691.63" cy="791.91" rx="95.43" ry="132"/>
			</g>
			<g>
				<ellipse class="st2" cx="1692.57" cy="794.97" rx="104.28" ry="122.64"/>
			</g>
			<g>
				<circle class="st2" cx="1693.6" cy="797.82" r="113.94"/>
			</g>
		</g>
	</g>
	<g class="st0">
		<g class="st3">
			<g>
				<path class="st2" d="M330.74,570.09c65.11,76.41,124.44,106.1,178.26,103.64c78.71-3.6,91.73-73.5,250.81-186.56
					c125.51-89.2,222.64-120.47,257.03-130.59c56.26-16.55,104.83-23.61,138.88-26.95"/>
			</g>
			<g>
				<path class="st2" d="M316.74,571.09c65.11,76.41,124.44,106.1,178.26,103.64c78.71-3.6,91.73-73.5,250.81-186.56
					c125.51-89.2,222.64-120.47,257.03-130.59c56.26-16.55,104.83-23.61,138.88-26.95"/>
			</g>
			<g>
				<path class="st2" d="M302.74,572.09c65.11,76.41,124.44,106.1,178.26,103.64c78.71-3.6,91.73-73.5,250.81-186.56
					c125.51-89.2,222.64-120.47,257.03-130.59c56.26-16.55,104.83-23.61,138.88-26.95"/>
			</g>
			<g>
				<path class="st2" d="M288.74,573.09c65.11,76.41,124.44,106.1,178.26,103.64c78.71-3.6,91.73-73.5,250.81-186.56
					c125.51-89.2,222.64-120.47,257.03-130.59c56.26-16.55,104.83-23.61,138.88-26.95"/>
			</g>
			<g>
				<path class="st2" d="M274.74,574.09c65.11,76.41,124.44,106.1,178.26,103.64c78.71-3.6,91.73-73.5,250.81-186.56
					c125.51-89.2,222.64-120.47,257.03-130.59c56.26-16.55,104.83-23.61,138.88-26.95"/>
			</g>
			<g>
				<path class="st2" d="M260.74,575.09c65.11,76.41,124.44,106.1,178.26,103.64c78.71-3.6,91.73-73.5,250.81-186.56
					c125.51-89.2,222.64-120.47,257.03-130.59c56.26-16.55,104.83-23.61,138.88-26.95"/>
			</g>
			<g>
				<path class="st2" d="M246.74,576.09c65.11,76.41,124.44,106.1,178.26,103.64c78.71-3.6,91.73-73.5,250.81-186.56
					c125.51-89.2,222.64-120.47,257.03-130.59c56.26-16.55,104.83-23.61,138.88-26.95"/>
			</g>
			<g>
				<path class="st2" d="M232.74,577.09c65.11,76.41,124.44,106.1,178.26,103.64c78.71-3.6,91.73-73.5,250.81-186.56
					c125.51-89.2,222.64-120.47,257.03-130.59c56.26-16.55,104.83-23.61,138.88-26.95"/>
			</g>
			<g>
				<path class="st2" d="M218.74,578.09c65.11,76.41,124.44,106.1,178.26,103.64c78.71-3.6,91.73-73.5,250.81-186.56
					c125.51-89.2,222.64-120.47,257.03-130.59c56.26-16.55,104.83-23.61,138.88-26.95"/>
			</g>
			<g>
				<path class="st2" d="M204.74,579.09c65.11,76.41,124.44,106.1,178.26,103.64c78.71-3.6,91.73-73.5,250.81-186.56
					c125.51-89.2,222.64-120.47,257.03-130.59c56.26-16.55,104.83-23.61,138.88-26.95"/>
			</g>
			<g>
				<path class="st2" d="M190.74,580.09c65.11,76.41,124.44,106.1,178.26,103.64c78.71-3.6,91.73-73.5,250.81-186.56
					c125.51-89.2,222.64-120.47,257.03-130.59c56.26-16.55,104.83-23.61,138.88-26.95"/>
			</g>
		</g>
	</g>
	<g class="st0">
		<g class="st3">
			<g>
				<path class="st2" d="M1174.4,625.58c-11.68-65.57-7.97-131.25,11.49-164.71c27.59-47.43,78.75-16.24,107.31,24.78
					c54.29,77.97,44.28,216.38,75.7,224.5c21.98,5.68,44.64-57.46,53.46-100.09c22.87-110.52-19.77-216.12-22.81-223.41"/>
			</g>
			<g>
				<path class="st2" d="M1158.06,643.07c-12.43-62.44-8.48-125,12.23-156.87c29.35-45.17,83.78-15.47,114.16,23.6
					c57.76,74.26,47.11,206.08,80.53,213.81c23.38,5.41,47.49-54.73,56.87-95.32c24.33-105.25-21.04-205.83-24.27-212.77"/>
			</g>
			<g>
				<path class="st2" d="M1140.68,659.74c-13.22-59.47-9.02-119.04,13.01-149.4c31.22-43.02,89.12-14.73,121.45,22.47
					c61.44,70.72,50.11,196.27,85.67,203.63c24.87,5.15,50.52-52.12,60.5-90.78c25.88-100.24-22.38-196.03-25.82-202.64"/>
			</g>
			<g>
				<path class="st2" d="M1122.19,675.61c-14.06-56.64-9.6-113.38,13.84-142.28c33.22-40.97,94.81-14.03,129.2,21.4
					c65.36,67.35,53.31,186.92,91.14,193.93c26.46,4.91,53.74-49.64,64.36-86.46c27.53-95.47-23.81-186.69-27.47-192.99"/>
			</g>
			<g>
				<path class="st2" d="M1102.52,690.73c-14.96-53.94-10.21-107.98,14.72-135.51c35.34-39.02,100.86-13.36,137.45,20.38
					c69.54,64.15,56.71,178.02,96.96,184.7c28.15,4.67,57.17-47.27,68.47-82.34c29.29-90.92-25.33-177.8-29.22-183.8"/>
			</g>
			<g>
				<path class="st2" d="M1081.59,705.12c-15.92-51.37-10.86-102.84,15.66-129.05c37.59-37.16,107.3-12.73,146.22,19.41
					c73.97,61.09,60.33,169.54,103.14,175.9c29.95,4.45,60.82-45.02,72.84-78.42c31.16-86.59-26.94-169.34-31.08-175.05"/>
			</g>
			<g>
				<path class="st2" d="M1059.32,718.83c-16.93-48.93-11.56-97.94,16.66-122.91c39.99-35.39,114.15-12.12,155.55,18.49
					c78.7,58.18,64.19,161.47,109.73,167.53c31.86,4.24,64.7-42.88,77.49-74.69c33.15-82.47-28.66-161.27-33.07-166.71"/>
			</g>
			<g>
				<path class="st2" d="M1035.64,731.89c-18.01-46.6-12.3-93.27,17.72-117.06c42.54-33.71,121.44-11.54,165.48,17.61
					c83.72,55.41,68.28,153.78,116.73,159.55c33.89,4.04,68.83-40.84,82.44-71.13c35.26-78.54-30.49-153.59-35.18-158.77"/>
			</g>
			<g>
				<path class="st2" d="M1010.44,744.32c-19.16-44.38-13.08-88.83,18.85-111.48c45.26-32.1,129.19-10.99,176.04,16.77
					c89.06,52.77,72.64,146.46,124.18,151.95c36.06,3.84,73.23-38.89,87.7-67.74c37.51-74.8-32.44-146.28-37.42-151.21"/>
			</g>
			<g>
				<path class="st2" d="M983.64,756.17c-20.39-42.26-13.92-84.6,20.06-106.17c48.15-30.57,137.43-10.47,187.28,15.97
					c94.75,50.26,77.28,139.48,132.11,144.72c38.36,3.66,77.9-37.04,93.29-64.52c39.91-71.24-34.51-139.31-39.81-144.01"/>
			</g>
			<g>
				<path class="st2" d="M955.12,767.45c-21.69-40.25-14.8-80.57,21.34-101.12c51.22-29.12,146.21-9.97,199.23,15.21
					c100.8,47.87,82.21,132.84,140.54,137.82c40.8,3.49,82.87-35.28,99.25-61.45c42.46-67.85-36.71-132.68-42.36-137.15"/>
			</g>
		</g>
	</g>
	<g class="st0">
		<g class="st3">
			<g>
				<path class="st2" d="M1831.09,201.48c28.86-253.23-200.25-401.31-224.66-430.75c-106.71-128.73-299.14,47.68-327.86,170.8
					c-50.78,217.69,351.33-149.39,497.19,452.77C1779.9,411.41,1813,360.15,1831.09,201.48z"/>
			</g>
			<g>
				<path class="st2" d="M1817.09,207.48c28.86-253.23-200.25-401.31-224.66-430.75c-106.71-128.73-299.14,47.68-327.86,170.8
					c-50.78,217.69,351.33-149.39,497.19,452.77C1765.9,417.41,1799,366.15,1817.09,207.48z"/>
			</g>
			<g>
				<path class="st2" d="M1803.09,213.48c28.86-253.23-200.25-401.31-224.66-430.75c-106.71-128.73-299.14,47.68-327.86,170.8
					c-50.78,217.69,351.33-149.39,497.19,452.77C1751.9,423.41,1785,372.15,1803.09,213.48z"/>
			</g>
			<g>
				<path class="st2" d="M1789.09,219.48c28.86-253.23-200.25-401.31-224.66-430.75c-106.71-128.73-299.14,47.68-327.86,170.8
					c-50.78,217.69,351.33-149.39,497.19,452.77C1737.9,429.41,1771,378.15,1789.09,219.48z"/>
			</g>
			<g>
				<path class="st2" d="M1775.09,225.48c28.86-253.23-200.25-401.31-224.66-430.75c-106.71-128.73-299.14,47.68-327.86,170.8
					c-50.78,217.69,351.33-149.39,497.19,452.77C1723.9,435.41,1757,384.15,1775.09,225.48z"/>
			</g>
			<g>
				<path class="st2" d="M1761.09,231.48c28.86-253.23-200.25-401.31-224.66-430.75c-106.71-128.73-299.14,47.68-327.86,170.8
					c-50.78,217.69,351.33-149.39,497.19,452.77C1709.9,441.41,1743,390.15,1761.09,231.48z"/>
			</g>
			<g>
				<path class="st2" d="M1747.09,237.48c28.86-253.23-200.25-401.31-224.66-430.75c-106.71-128.73-299.14,47.68-327.86,170.8
					c-50.78,217.69,351.33-149.39,497.19,452.77C1695.9,447.41,1729,396.15,1747.09,237.48z"/>
			</g>
			<g>
				<path class="st2" d="M1733.09,243.48c28.86-253.23-200.25-401.31-224.66-430.75c-106.71-128.73-299.14,47.68-327.86,170.8
					c-50.78,217.69,351.33-149.39,497.19,452.77C1681.9,453.41,1715,402.15,1733.09,243.48z"/>
			</g>
			<g>
				<path class="st2" d="M1719.09,249.48c28.86-253.23-200.25-401.31-224.66-430.75c-106.71-128.73-299.14,47.68-327.86,170.8
					c-50.78,217.69,351.33-149.39,497.19,452.77C1667.9,459.41,1701,408.15,1719.09,249.48z"/>
			</g>
			<g>
				<path class="st2" d="M1705.09,255.48c28.86-253.23-200.25-401.31-224.66-430.75C1373.72-304,1181.29-127.59,1152.57-4.47
					c-50.78,217.69,351.33-149.39,497.19,452.77C1653.9,465.41,1687,414.15,1705.09,255.48z"/>
			</g>
			<g>
				<path class="st2" d="M1691.09,261.48c28.86-253.23-200.25-401.31-224.66-430.75C1359.72-298,1167.29-121.59,1138.57,1.53
					c-50.78,217.69,351.33-149.39,497.19,452.77C1639.9,471.41,1673,420.15,1691.09,261.48z"/>
			</g>
		</g>
	</g>
	<g class="st0">
		<g class="st3">
			<g>
				<path class="st2" d="M1061.35,266.14c-257.33,58.3-373.97-565.51-512.34-431.52"/>
			</g>
			<g>
				<path class="st2" d="M1085.56,255.81c-281.18,54.17-408.63-525.4-559.83-400.91"/>
			</g>
			<g>
				<path class="st2" d="M1112.01,246.22C804.77,296.54,665.5-241.92,500.3-126.26"/>
			</g>
			<g>
				<path class="st2" d="M1140.91,237.31C805.19,284.06,653.02-216.21,472.5-108.75"/>
			</g>
			<g>
				<path class="st2" d="M1172.5,229.03C805.66,272.47,639.38-192.32,442.13-92.48"/>
			</g>
			<g>
				<path class="st2" d="M1207.01,221.34C806.17,261.69,624.48-170.12,408.94-77.37"/>
			</g>
			<g>
				<path class="st2" d="M1244.71,214.19c-437.99,37.5-636.52-363.7-872.04-277.52"/>
			</g>
			<g>
				<path class="st2" d="M1285.92,207.55c-478.59,34.84-695.52-337.9-952.87-257.84"/>
			</g>
			<g>
				<path class="st2" d="M1330.94,201.38C807.99,233.75,570.95-112.55,289.75-38.17"/>
			</g>
			<g>
				<path class="st2" d="M1380.13,195.65C808.71,225.72,549.7-96.02,242.44-26.91"/>
			</g>
			<g>
				<path class="st2" d="M1433.89,190.32C809.5,218.26,526.48-80.65,190.74-16.45"/>
			</g>
		</g>
	</g>
	<g class="st0">
		<g class="st3">
			<g>
				<path class="st2" d="M488.67,1283.15c483.04,105.88,1395.09-308.81,1086.37-301.16c-65.65,1.63-1137.38-22.01-719.31-239.05"/>
			</g>
			<g>
				<path class="st2" d="M470.67,1283.15c483.04,105.88,1395.09-308.81,1086.37-301.16c-65.65,1.63-1137.38-22.01-719.31-239.05"/>
			</g>
			<g>
				<path class="st2" d="M452.67,1283.15c483.04,105.88,1395.09-308.81,1086.37-301.16c-65.65,1.63-1137.38-22.01-719.31-239.05"/>
			</g>
			<g>
				<path class="st2" d="M434.67,1283.15c483.04,105.88,1395.09-308.81,1086.37-301.16c-65.65,1.63-1137.38-22.01-719.31-239.05"/>
			</g>
			<g>
				<path class="st2" d="M416.67,1283.15c483.04,105.88,1395.09-308.81,1086.37-301.16c-65.65,1.63-1137.38-22.01-719.31-239.05"/>
			</g>
			<g>
				<path class="st2" d="M398.67,1283.15c483.04,105.88,1395.09-308.81,1086.37-301.16c-65.65,1.63-1137.38-22.01-719.31-239.05"/>
			</g>
			<g>
				<path class="st2" d="M380.67,1283.15c483.04,105.88,1395.09-308.81,1086.37-301.16c-65.65,1.63-1137.38-22.01-719.31-239.05"/>
			</g>
			<g>
				<path class="st2" d="M362.67,1283.15c483.04,105.88,1395.09-308.81,1086.37-301.16c-65.65,1.63-1137.38-22.01-719.31-239.05"/>
			</g>
			<g>
				<path class="st2" d="M344.67,1283.15c483.04,105.88,1395.09-308.81,1086.37-301.16c-65.65,1.63-1137.38-22.01-719.31-239.05"/>
			</g>
			<g>
				<path class="st2" d="M326.67,1283.15c483.04,105.88,1395.09-308.81,1086.37-301.16c-65.65,1.63-1137.38-22.01-719.31-239.05"/>
			</g>
			<g>
				<path class="st2" d="M308.67,1283.15c483.04,105.88,1395.09-308.81,1086.37-301.16c-65.65,1.63-1137.38-22.01-719.31-239.05"/>
			</g>
		</g>
	</g>
</g>
</svg>
