<svg width="104" height="121" viewBox="0 0 104 121" fill="none" xmlns="http://www.w3.org/2000/svg">
<path fill-rule="evenodd" clip-rule="evenodd" d="M50.0099 61.2187C54.6612 73.878 56.947 86.1384 56.9842 96.1481C50.532 88.4954 44.3361 77.6717 39.6848 65.0124C35.0335 52.3531 32.7478 40.0928 32.7105 30.0831C39.1628 37.7357 45.3587 48.5595 50.0099 61.2187ZM56.9172 99.3229C56.9429 98.7797 56.9612 98.2286 56.9723 97.6698C50.157 89.8662 43.6073 78.5877 38.7462 65.3573C33.885 52.1269 31.5745 39.2908 31.7162 28.9311C31.346 28.5124 30.9752 28.1042 30.6039 27.7069C27.004 23.8539 23.4029 21.0575 20.0234 19.4895C19.9188 19.4409 19.8145 19.3936 19.7105 19.3475C19.6611 19.45 19.6122 19.5536 19.5639 19.6583C18.0035 23.0413 17.0696 27.504 16.8206 32.7712C16.3229 43.3012 18.5721 56.8432 23.7278 70.8754C28.8835 84.9075 35.937 96.6843 43.1338 104.387C46.7337 108.24 50.3349 111.037 53.7144 112.605C53.819 112.653 53.9233 112.7 54.0273 112.747C54.0767 112.644 54.1256 112.54 54.1739 112.436C55.7343 109.053 56.6682 104.59 56.9172 99.3229ZM50.9486 60.8739C46.0875 47.6435 39.5377 36.3649 32.7225 28.5614C32.7335 28.0026 32.7519 27.4514 32.7776 26.9083C33.0185 21.8119 33.9007 17.4686 35.3711 14.1278C38.6548 15.7218 42.1391 18.4608 45.6223 22.1888C45.9935 22.5862 46.3643 22.9943 46.7346 23.4131C46.5929 33.7727 48.9034 46.6088 53.7645 59.8392C58.6257 73.0696 65.1754 84.3482 71.9906 92.1517C71.9796 92.7105 71.9612 93.2617 71.9355 93.8048C71.6946 98.9012 70.8125 103.244 69.342 106.585C66.0584 104.991 62.574 102.252 59.0908 98.5242C58.7196 98.1269 58.3488 97.7188 57.9786 97.3C58.1202 86.9404 55.8097 74.1043 50.9486 60.8739ZM72.9603 93.2366C72.7595 98.676 71.8516 103.372 70.2521 107C73.3999 108.339 76.2812 108.563 78.7861 107.643C81.1154 106.787 83.052 104.966 84.5439 102.256C80.7927 100.58 76.8445 97.4809 72.9603 93.2366ZM85.0027 101.366C84.8986 101.319 84.7943 101.272 84.6898 101.224C81.3102 99.6556 77.7091 96.8592 74.1092 93.0062C73.738 92.6089 73.3671 92.2007 72.9969 91.7819C73.1386 81.4223 70.8281 68.5862 65.9669 55.3558C61.1058 42.1254 54.5561 30.8469 47.7409 23.0433C47.7519 22.4845 47.7703 21.9333 47.7959 21.3902C48.0449 16.123 48.9788 11.6603 50.5393 8.27726C50.5876 8.17258 50.6364 8.06899 50.6858 7.9665C50.7898 8.01262 50.8941 8.05993 50.9987 8.10845C54.3783 9.67646 57.9794 12.4729 61.5793 16.3259C68.7762 24.0287 75.8296 35.8056 80.9853 49.8377C86.141 63.8699 88.3903 77.4119 87.8925 87.9419C87.6436 93.209 86.7096 97.6717 85.1492 101.055C85.1009 101.159 85.0521 101.263 85.0027 101.366ZM85.472 102.643C83.8887 105.558 81.7716 107.611 79.131 108.581C76.3127 109.617 73.1505 109.326 69.8272 107.906C68.2142 111.14 65.9922 113.409 63.174 114.444C60.5334 115.414 57.5907 115.221 54.4966 114.024C52.9134 116.939 50.7962 118.992 48.1556 119.962C36.2324 124.343 18.1515 104.991 7.77083 76.7383C-2.60987 48.4855 -1.35941 22.0307 10.5638 17.6498C13.2044 16.6796 16.147 16.8734 19.2412 18.0702C20.8244 15.1549 22.9415 13.102 25.5822 12.1317C28.4004 11.0963 31.5626 11.3867 34.8859 12.8072C36.499 9.573 38.7209 7.30428 41.5392 6.2688C44.1798 5.29858 47.1224 5.49242 50.2165 6.6892C51.7998 3.77385 53.9169 1.72095 56.5575 0.750732C68.4807 -3.63011 86.5616 15.722 96.9423 43.9748C107.323 72.2276 106.073 98.6824 94.1493 103.063C91.5087 104.033 88.5661 103.84 85.472 102.643ZM51.1446 7.0761C52.6365 4.36578 54.5731 2.5452 56.9024 1.68938C59.5606 0.712705 62.6425 1.02469 66.0171 2.59039C69.3966 4.15839 72.9977 6.95483 76.5976 10.8078C83.7945 18.5107 90.8479 30.2875 96.0037 44.3197C101.159 58.3518 103.409 71.8938 102.911 82.4238C102.662 87.691 101.728 92.1537 100.168 95.5367C98.6094 98.9148 96.4626 101.148 93.8045 102.125C91.4752 102.98 88.8206 102.847 85.9287 101.747C90.9735 91.21 89.7769 70.8659 81.9239 49.4928C74.071 28.1198 61.8114 11.8404 51.1446 7.0761ZM49.7597 7.58491C46.8679 6.48528 44.2133 6.35162 41.884 7.20745C39.3791 8.12782 37.3283 10.1639 35.7962 13.2226C39.3645 14.9522 43.0964 17.943 46.7712 21.9584C46.9835 16.2089 47.9857 11.2905 49.7597 7.58491ZM47.7289 24.565C54.1812 32.2177 60.377 43.0414 65.0283 55.7007C69.6796 68.3599 71.9653 80.6203 72.0026 90.63C65.5503 82.9773 59.3545 72.1536 54.7032 59.4943C50.0519 46.8351 47.7662 34.5747 47.7289 24.565ZM31.7528 27.4765C31.9536 22.0371 32.8615 17.3416 34.4611 13.7131C31.3132 12.374 28.432 12.15 25.927 13.0704C23.5978 13.9262 21.6612 15.7468 20.1692 18.4571C23.9204 20.1326 27.8686 23.2321 31.7528 27.4765ZM62.8291 113.506C65.334 112.585 67.3849 110.549 68.9169 107.491C65.3486 105.761 61.6167 102.77 57.942 98.7547C57.7297 104.504 56.7275 109.423 54.9534 113.128C57.8452 114.228 60.4998 114.361 62.8291 113.506ZM18.7844 18.9659C13.7396 29.503 14.9362 49.8471 22.7892 71.2202C30.6421 92.5933 42.9017 108.873 53.5686 113.637C52.0766 116.347 50.14 118.168 47.8107 119.024C45.1526 120 42.0706 119.688 38.6961 118.123C35.3165 116.555 31.7154 113.758 28.1155 109.905C20.9186 102.202 13.8652 90.4256 8.70948 76.3934C3.55377 62.3613 1.30451 48.8193 1.80223 38.2893C2.0512 33.0221 2.98514 28.5594 4.54557 25.1763C6.1037 21.7983 8.25049 19.5651 10.9087 18.5885C13.2379 17.7326 15.8926 17.8663 18.7844 18.9659Z" fill="white"/>
</svg>
