<?xml version="1.0" encoding="utf-8"?>
<!-- Generator: Adobe Illustrator 24.2.0, SVG Export Plug-In . SVG Version: 6.00 Build 0)  -->
<svg version="1.1" id="Layer_1" xmlns="http://www.w3.org/2000/svg" xmlns:xlink="http://www.w3.org/1999/xlink" x="0px" y="0px"
	 viewBox="0 0 104 80" style="enable-background:new 0 0 104 80;" xml:space="preserve">
<style type="text/css">
	.st0{fill:#7FE85A;}
</style>
<path class="st0" d="M0.97,17.58c0-4.73,1.86-8.75,5.59-12.07c3.73-3.55,8.12-5.32,13.17-5.32c2.13,0,4.39,0.47,6.78,1.42l-0.4-0.35
	l2.39,1.06h0.4c0.8,0.47,1.73,1.06,2.79,1.77c0,0.24,0.4,0.71,1.2,1.42c6.65,5.92,9.45,14.79,8.38,26.62
	c-1.06,17.04-11.18,32.41-30.33,46.14c-1.06,0.95-2.26,1.42-3.59,1.42c-2.13,0-3.86-0.83-5.19-2.48c-2.39-2.84-2-5.44,1.2-7.81
	c15.7-11.36,24.21-23.66,25.54-36.91c-2.93,1.66-5.99,2.48-9.18,2.48c-5.06,0-9.45-1.66-13.17-4.97
	C2.84,26.45,0.97,22.31,0.97,17.58z M62.84,17.58c0-4.73,1.86-8.75,5.59-12.07c3.73-3.55,8.12-5.32,13.17-5.32
	c2.13,0,4.39,0.47,6.78,1.42l-0.4-0.35c0.8,0.24,1.6,0.59,2.39,1.06h0.4c1.06,0.47,2,1.06,2.79,1.77c0,0.24,0.4,0.71,1.2,1.42
	c6.65,5.92,9.45,14.79,8.38,26.62c-1.07,17.04-11.18,32.41-30.33,46.14c-1.06,0.95-2.26,1.42-3.59,1.42c-2.13,0-3.73-0.83-4.79-2.48
	c-2.66-2.84-2.39-5.44,0.8-7.81c15.7-11.36,24.21-23.66,25.54-36.91c-2.93,1.66-5.99,2.48-9.18,2.48c-5.06,0-9.45-1.66-13.17-4.97
	C64.7,26.45,62.84,22.31,62.84,17.58z"/>
</svg>
