<svg width="271" height="241" viewBox="0 0 271 241" fill="none" xmlns="http://www.w3.org/2000/svg">
<rect y="95.0566" width="224" height="160" rx="80" transform="rotate(-25 0 95.0566)" fill="#85EE00"/>
<path d="M91.3126 153.527C91.5747 154.089 91.9305 154.521 92.38 154.825C92.8445 155.087 93.3681 155.22 93.9507 155.222C94.5202 155.196 95.114 155.038 95.7323 154.75C96.5473 154.37 97.2134 153.854 97.7306 153.202C98.276 152.538 98.6087 151.784 98.7288 150.941C98.849 150.098 98.6863 149.199 98.2407 148.243L100.095 150.458C100.671 151.694 100.805 152.898 100.495 154.069C100.214 155.226 99.6236 156.272 98.7242 157.204C97.8528 158.124 96.827 158.859 95.6466 159.409C94.4101 159.986 93.1605 160.278 91.8979 160.285C90.6634 160.279 89.5274 159.97 88.4897 159.359C87.439 158.72 86.6057 157.74 85.9898 156.419C85.4132 155.183 85.2037 153.963 85.3614 152.76C85.5191 151.558 86.0487 150.456 86.95 149.454C87.8383 148.424 89.0974 147.529 90.7274 146.768C91.9358 146.205 93.0627 145.833 94.108 145.654C95.1684 145.433 96.1069 145.355 96.9237 145.419C97.7685 145.47 98.4101 145.598 98.8484 145.804L100.067 148.418C99.0331 148.182 97.9794 148.16 96.9059 148.352C95.8194 148.517 94.7562 148.842 93.7164 149.326C92.8733 149.72 92.2306 150.139 91.7884 150.585C91.3743 151.017 91.1259 151.475 91.0433 151.959C90.9608 152.442 91.0505 152.964 91.3126 153.527ZM85.5065 146.688L81.7533 143.922C82.516 142.916 83.5166 141.834 84.7552 140.675C85.9807 139.487 87.4928 138.474 89.2914 137.636C90.9495 136.863 92.5363 136.413 94.0518 136.288C95.5673 136.163 96.9067 136.394 98.0698 136.981C99.2479 137.526 100.138 138.445 100.741 139.738L107.169 153.523L101.858 156L95.9998 143.437C95.7508 142.903 95.4428 142.5 95.0757 142.226C94.7236 141.911 94.32 141.706 93.8648 141.61C93.4096 141.515 92.9169 141.522 92.3867 141.632C91.8566 141.743 91.2964 141.936 90.7062 142.211C89.8069 142.63 89.0022 143.142 88.292 143.747C87.5688 144.324 86.971 144.876 86.4988 145.404C86.0266 145.933 85.6958 146.36 85.5065 146.688Z" fill="black"/>
<path d="M107.716 129.66L116.759 149.051L111.363 151.567L102.321 132.176L107.716 129.66ZM116.081 132.739C115.558 132.572 115.061 132.496 114.589 132.511C114.132 132.485 113.622 132.603 113.06 132.865C112.385 133.179 111.895 133.631 111.587 134.219C111.28 134.807 111.157 135.497 111.218 136.29C111.295 137.041 111.55 137.88 111.982 138.807L109.737 137.955C109.016 136.41 108.676 134.909 108.716 133.454C108.742 131.97 109.056 130.661 109.655 129.526C110.283 128.377 111.117 127.561 112.157 127.076C112.859 126.748 113.593 126.56 114.357 126.512C115.122 126.463 115.798 126.593 116.386 126.9L116.081 132.739Z" fill="black"/>
<path d="M126.022 132.928C126.546 134.052 127.244 134.924 128.115 135.544C129.014 136.151 129.996 136.497 131.062 136.582C132.115 136.639 133.161 136.424 134.201 135.939C135.044 135.546 135.8 135.04 136.469 134.42C137.138 133.8 137.677 133.121 138.085 132.383C138.509 131.604 138.745 130.827 138.794 130.051L141.409 135.658C141.022 136.591 140.367 137.495 139.441 138.372C138.53 139.207 137.372 139.952 135.967 140.607C133.887 141.577 131.822 142.027 129.771 141.957C127.748 141.874 125.905 141.297 124.241 140.224C122.593 139.111 121.304 137.557 120.373 135.562C119.43 133.538 119.068 131.551 119.288 129.601C119.536 127.638 120.278 125.855 121.515 124.252C122.78 122.636 124.452 121.343 126.532 120.373C127.937 119.718 129.259 119.324 130.497 119.191C131.763 119.045 132.865 119.096 133.801 119.344L136.435 124.993C135.81 124.532 135.055 124.234 134.171 124.098C133.302 123.922 132.415 123.891 131.51 124.005C130.592 124.091 129.739 124.317 128.953 124.684C127.913 125.169 127.089 125.861 126.482 126.76C125.875 127.659 125.515 128.648 125.402 129.727C125.318 130.793 125.524 131.86 126.022 132.928Z" fill="black"/>
<path d="M136.216 99.9476L151.548 132.828L146.068 135.384L130.736 102.503L136.216 99.9476ZM153.126 117.723C152.733 116.88 152.287 116.215 151.787 115.73C151.302 115.203 150.755 114.911 150.146 114.853C149.524 114.766 148.834 114.9 148.075 115.254C147.316 115.608 146.72 116.091 146.287 116.703C145.869 117.275 145.629 117.934 145.567 118.681C145.492 119.401 145.651 120.182 146.044 121.025L144.948 121.536C144.228 119.99 143.846 118.475 143.803 116.989C143.761 115.504 144.089 114.153 144.788 112.938C145.487 111.722 146.595 110.761 148.113 110.053C149.63 109.345 151.019 109.057 152.277 109.189C153.523 109.292 154.64 109.78 155.629 110.654C156.618 111.527 157.493 112.778 158.253 114.408L164.11 126.971L158.63 129.526L153.126 117.723Z" fill="black"/>
<path d="M155.856 98.0769C155.436 97.1776 155.398 96.2887 155.741 95.4103C156.085 94.5318 156.72 93.8763 157.647 93.4439C158.575 93.0114 159.485 92.9461 160.378 93.248C161.3 93.5367 161.971 94.1308 162.39 95.0301C162.796 95.9013 162.814 96.7827 162.442 97.6742C162.099 98.5527 161.464 99.2082 160.537 99.6406C159.609 100.073 158.699 100.138 157.805 99.8365C156.912 99.5346 156.262 98.9481 155.856 98.0769ZM159.945 105.305L165.214 102.848L174.257 122.239L168.987 124.697L159.945 105.305Z" fill="black"/>
<path d="M186.267 102.269C185.874 101.426 185.428 100.761 184.928 100.276C184.443 99.7496 183.896 99.4572 183.287 99.399C182.665 99.3126 181.975 99.4463 181.216 99.8002C180.457 100.154 179.861 100.637 179.428 101.25C179.01 101.821 178.77 102.48 178.708 103.228C178.646 103.975 178.805 104.756 179.185 105.571L184.689 117.375L179.209 119.93L170.167 100.539L175.647 97.9833L177.023 100.934C177.102 99.5629 177.502 98.3669 178.224 97.3462C178.932 96.2974 179.975 95.4519 181.352 94.8098C182.898 94.089 184.3 93.7944 185.559 93.9259C186.846 94.0443 188.004 94.5476 189.034 95.4358C190.051 96.296 190.92 97.4989 191.641 99.0446L197.42 111.438L191.771 114.072L186.267 102.269Z" fill="black"/>
</svg>
