<svg width="271" height="241" viewBox="0 0 271 241" fill="none" xmlns="http://www.w3.org/2000/svg">
<rect y="95.0566" width="224" height="160" rx="80" transform="rotate(-25 0 95.0566)" fill="#85EE00"/>
<path d="M133.73 138.479C133.821 138.674 133.669 138.934 133.386 139.066C133.078 139.246 132.781 139.194 132.677 138.97C132.586 138.775 132.737 138.515 133.02 138.383C133.299 138.217 133.625 138.255 133.73 138.479ZM130.493 139.455C130.515 139.681 130.815 139.815 131.135 139.737C131.434 139.716 131.681 139.482 131.648 139.26C131.616 139.038 131.326 138.9 130.993 138.949C130.707 138.999 130.47 139.228 130.493 139.455ZM134.725 137.279C134.475 137.479 134.366 137.755 134.5 137.966C134.62 138.147 134.932 138.156 135.193 137.951C135.444 137.751 135.553 137.475 135.433 137.293C135.317 137.122 134.995 137.118 134.725 137.279ZM123.728 96.944C110.203 103.251 104.642 118.337 110.945 131.853C115.985 142.661 127.104 148.735 138.343 147.456C139.696 147.098 139.776 146.124 139.48 145.49C139.199 144.886 137.615 141.567 136.661 139.521C136.661 139.521 130.517 144.165 127.048 140.468C127.048 140.468 124.614 138.15 122.674 138.165C122.674 138.165 119.727 137.677 122.13 136.592C122.13 136.592 124.649 135.654 127.066 137.351C130.956 140.117 134.03 137.366 135.125 136.073C134.622 134.409 134.751 133.032 135.153 132.061C129.421 133.999 123.553 135.774 119.181 126.399C117.932 123.719 118.046 122.029 118.806 119.586C118.257 119.071 116.211 116.846 115.974 112.851C117.717 111.267 123.929 112.345 123.929 112.345C125.625 110.89 127.59 109.629 129.667 108.661C131.744 107.692 133.972 106.997 136.177 106.634C136.177 106.634 139.34 101.172 141.678 100.865C144.591 103.624 144.975 106.612 145.017 107.364C147.382 108.361 148.965 109.26 150.21 111.93C154.595 121.334 149.201 124.763 144.037 127.919C145.293 128.27 146.735 129.377 147.803 131.668C149.334 134.952 151.2 139.029 151.573 139.828C151.868 140.461 152.676 141.022 153.809 140.221C162.052 132.438 164.351 120.107 159.311 109.3C153.008 95.7834 137.253 90.6372 123.728 96.944ZM125.009 137.266C124.927 137.423 125.061 137.633 125.313 137.741C125.542 137.824 125.798 137.788 125.866 137.602C125.947 137.446 125.813 137.235 125.561 137.127C125.332 137.044 125.076 137.08 125.009 137.266ZM123.587 136.968C123.578 137.127 123.748 137.237 123.989 137.243C124.19 137.268 124.372 137.148 124.376 136.98C124.386 136.821 124.215 136.711 123.975 136.704C123.753 136.737 123.61 136.839 123.587 136.968ZM128.364 138.964C128.268 139.163 128.462 139.429 128.773 139.509C129.102 139.629 129.398 139.526 129.452 139.311C129.52 139.125 129.325 138.86 129.044 138.766C128.725 138.642 128.419 138.749 128.364 138.964ZM126.585 138.05C126.474 138.22 126.592 138.473 126.853 138.625C127.114 138.776 127.422 138.751 127.504 138.594C127.6 138.395 127.482 138.142 127.222 137.99C126.981 137.83 126.682 137.85 126.585 138.05Z" fill="black"/>
</svg>
