<svg width="271" height="240" viewBox="0 0 271 240" fill="none" xmlns="http://www.w3.org/2000/svg">
<rect y="95" width="224" height="160" rx="80" transform="rotate(-25 0 95)" fill="#85EE00"/>
<path d="M143.724 96.5603L180.58 79.3744L176.972 119.75L143.724 96.5603ZM108.776 112.687L141.502 97.426L141.567 97.5661L156.694 130.006L123.968 145.267L116.388 129.011L116.387 129.009L114.574 129.853C118.743 138.838 114.784 149.55 105.792 153.742C96.7905 157.94 86.0258 154.074 81.8329 145.082C77.6399 136.091 81.598 125.36 90.5998 121.162C99.5914 116.969 110.342 120.821 114.545 129.791L116.357 128.944L116.356 128.943L108.776 112.687Z" stroke="black" stroke-width="2"/>
</svg>
