<svg width="271" height="241" viewBox="0 0 271 241" fill="none" xmlns="http://www.w3.org/2000/svg">
<rect y="95.0469" width="224" height="160" rx="80" transform="rotate(-25 0 95.0469)" fill="#85EE00"/>
<path d="M79.264 144.208C81.1796 144.938 83.1722 145.277 85.2416 145.225C87.311 145.172 89.3083 144.697 91.2333 143.799C91.399 143.722 91.6281 143.606 91.9205 143.45L90.4467 146.933C88.4361 147.399 86.4305 147.393 84.4302 146.914C82.4261 146.427 80.6415 145.535 79.0762 144.238L79.0644 144.244L81.4484 149.356C81.6586 149.787 81.9851 150.095 82.4279 150.283C82.8706 150.47 83.3181 150.482 83.7705 150.319L83.787 150.355L78.7456 152.706L78.729 152.67C79.1446 152.429 79.4229 152.078 79.5639 151.618C79.7129 151.155 79.6844 150.702 79.4784 150.261L73.237 136.876C73.0268 136.446 72.7021 136.141 72.263 135.961C71.8203 135.774 71.3727 135.762 70.9204 135.925L70.9039 135.889L78.9276 132.148C80.1583 131.574 81.3223 131.238 82.4193 131.139C83.5164 131.04 84.5124 131.22 85.4073 131.676C86.2986 132.125 86.9778 132.851 87.445 133.853C88.2507 135.58 88.25 137.319 87.4427 139.069C86.6397 140.808 85.1523 142.149 82.9806 143.095C81.8534 143.582 80.6146 143.953 79.264 144.208ZM77.7835 132.969L74.5172 134.492L78.9982 144.102C79.2685 144.043 79.5959 143.962 79.9804 143.86C80.3648 143.758 80.6846 143.671 80.9397 143.6C81.1911 143.521 81.3247 143.478 81.3405 143.471C81.3562 143.463 81.3778 143.458 81.4052 143.455C81.4367 143.44 81.4604 143.429 81.4762 143.422C81.4841 143.418 81.5017 143.415 81.529 143.412C81.5527 143.401 81.5685 143.393 81.5764 143.39C81.8514 143.3 82.2451 143.145 82.7574 142.925C82.789 142.911 82.8342 142.894 82.8931 142.876C82.9562 142.847 82.9996 142.827 83.0233 142.816C83.8753 142.418 84.5618 141.954 85.0826 141.423C85.6076 140.881 85.9583 140.304 86.1346 139.694C86.3152 139.071 86.3659 138.428 86.2867 137.764C86.2074 137.1 86.0023 136.413 85.6712 135.703C85.3989 135.119 85.1225 134.619 84.8417 134.202C84.5574 133.778 84.1886 133.378 83.7353 133.003C83.2863 132.617 82.795 132.357 82.2612 132.221C81.7317 132.074 81.0798 132.057 80.3057 132.168C79.5394 132.275 78.6987 132.543 77.7835 132.969Z" fill="black"/>
<path d="M90.9286 134C91.5996 132.247 92.874 130.932 94.7517 130.056C96.6294 129.181 98.4517 129.051 100.219 129.668C101.99 130.274 103.307 131.503 104.172 133.357C105.037 135.211 105.133 137.015 104.462 138.769C103.799 140.519 102.529 141.832 100.651 142.707C99.4202 143.281 98.1884 143.534 96.9557 143.465C95.7194 143.388 94.5967 143 93.5877 142.298C92.575 141.589 91.7836 140.623 91.2133 139.4C90.3488 137.546 90.2538 135.746 90.9286 134ZM101.468 141.894C102.533 141.398 103.195 140.604 103.455 139.513C103.722 138.418 103.532 137.176 102.885 135.787C102.55 135.069 102.128 134.392 101.62 133.755C101.108 133.11 100.539 132.549 99.9133 132.073C99.2955 131.592 98.6517 131.211 97.9818 130.927C97.3082 130.636 96.6172 130.483 95.9088 130.468C95.2083 130.449 94.5464 130.584 93.9232 130.875C92.8581 131.372 92.1918 132.167 91.9243 133.262C91.661 134.345 91.8513 135.577 92.4951 136.958C92.9182 137.865 93.4775 138.704 94.1731 139.475C94.8649 140.238 95.6131 140.864 96.4176 141.353C97.2184 141.835 98.065 142.136 98.9574 142.258C99.8577 142.376 100.694 142.255 101.468 141.894Z" fill="black"/>
<path d="M117.584 116.701L118.398 116.84L117.481 118.982L115.982 118.456C115.569 118.313 115.16 118.321 114.755 118.481C114.346 118.634 114.04 118.906 113.839 119.297L113.691 119.568C113.645 119.676 113.518 119.99 113.309 120.51C113.133 120.957 112.988 121.365 112.872 121.736C112.855 121.802 112.829 121.901 112.794 122.032C112.756 122.156 112.726 122.246 112.705 122.304C112.68 122.374 112.665 122.424 112.66 122.455L112.627 122.6L112.554 122.908L112.547 122.954C113.447 123.072 114.251 123.365 114.959 123.832C115.675 124.296 116.213 124.904 116.574 125.658C117.208 126.976 117.187 128.374 116.512 129.851C115.833 131.32 114.699 132.43 113.109 133.181C112.111 133.656 111.068 133.902 109.981 133.919L108.901 138.586L113.229 134.983L115.423 133.168L115.699 133.111C115.886 133.082 116.123 133.053 116.408 133.026C116.697 132.987 117.035 132.959 117.421 132.942C117.803 132.918 118.21 132.935 118.64 132.993C119.067 133.044 119.499 133.126 119.936 133.239C120.373 133.352 120.795 133.535 121.201 133.788C121.61 134.048 121.981 134.36 122.314 134.723C122.659 135.091 122.951 135.565 123.193 136.144C123.434 136.723 123.601 137.38 123.694 138.114C123.793 138.904 123.703 139.772 123.424 140.718C123.149 141.673 122.77 142.498 122.287 143.193C122.283 143.205 122.255 143.247 122.202 143.32C122.157 143.388 122.111 143.453 122.062 143.514C122.026 143.58 121.965 143.665 121.88 143.772C121.803 143.875 121.711 143.986 121.602 144.103C121.502 144.218 121.382 144.341 121.242 144.473C121.113 144.61 120.957 144.76 120.774 144.922C120.59 145.084 120.393 145.248 120.182 145.414C119.143 146.235 117.938 146.883 116.565 147.36C114.395 148.103 112.129 148.031 109.766 147.145C109.076 146.881 108.378 146.538 107.673 146.118C106.286 145.286 104.738 144.283 103.029 143.111C102.693 142.884 102.436 142.725 102.259 142.634C101.653 142.322 101.026 142.307 100.38 142.589L100.374 142.577L103.759 140.999C103.782 141.007 103.81 141.027 103.845 141.06C103.875 141.084 103.898 141.102 103.913 141.114C105.212 142.045 106.198 142.728 106.872 143.164C108.793 144.4 110.313 145.29 111.431 145.835C112.2 146.207 112.973 146.475 113.752 146.64C114.53 146.806 115.18 146.882 115.703 146.869C116.236 146.86 116.758 146.795 117.268 146.672C117.781 146.558 118.126 146.464 118.303 146.391C118.489 146.314 118.654 146.237 118.801 146.159C119.966 145.548 120.922 144.757 121.669 143.784C122.189 143.004 122.518 142.226 122.656 141.451C122.866 140.316 122.799 139.276 122.455 138.332C122.198 137.635 121.83 137.043 121.353 136.555C120.876 136.067 120.335 135.699 119.73 135.453C119.129 135.215 118.545 135.045 117.979 134.944C117.417 134.851 116.825 134.805 116.201 134.808C114.609 134.811 113.202 135.318 111.983 136.328L108.81 138.946L108.6 138.9L109.759 133.907C108.708 133.879 107.761 133.629 106.917 133.158C106.07 132.679 105.443 132.015 105.038 131.167L105.021 131.131C104.617 130.264 104.496 129.345 104.659 128.376C104.821 127.407 105.243 126.499 105.925 125.653C106.606 124.807 107.465 124.137 108.503 123.644C109.766 123.036 111.038 122.798 112.32 122.93L112.333 122.866L112.406 122.559L112.445 122.396C112.446 122.377 112.449 122.352 112.453 122.321C112.462 122.278 112.473 122.249 112.485 122.234C112.55 121.983 112.608 121.778 112.659 121.619C112.787 121.214 112.923 120.815 113.066 120.421C113.083 120.375 113.108 120.306 113.142 120.213C113.176 120.12 113.205 120.04 113.23 119.97C113.252 119.893 113.277 119.823 113.306 119.762L113.542 119.248L113.548 119.231L113.797 118.683C114.132 117.96 114.652 117.415 115.355 117.049C116.054 116.675 116.797 116.559 117.584 116.701ZM106.623 128.757C106.927 129.575 107.39 130.32 108.01 130.991C108.635 131.651 109.324 132.16 110.078 132.52L110.897 129.025L111.937 124.55C110.588 123.757 109.347 123.568 108.214 123.981C107.352 124.296 106.769 124.899 106.464 125.791C106.156 126.674 106.209 127.663 106.623 128.757ZM114.897 128.025C114.382 126.651 113.464 125.538 112.143 124.684L111.112 129.084L110.291 132.607C111.388 133.085 112.393 133.159 113.305 132.83C114.167 132.515 114.75 131.911 115.055 131.02C115.364 130.117 115.311 129.119 114.897 128.025Z" fill="black"/>
<path d="M128.595 129.345C129.534 129.032 130.235 128.494 130.695 127.732C131.153 126.962 131.33 126.044 131.226 124.977L132.552 124.359C132.407 125.512 131.972 126.565 131.245 127.519C130.518 128.473 129.558 129.228 128.367 129.783C127.026 130.409 125.687 130.648 124.352 130.503C123.012 130.349 121.836 129.846 120.823 128.993C120.805 128.973 120.774 128.949 120.732 128.92C120.694 128.88 120.668 128.854 120.652 128.842C119.942 128.203 119.367 127.415 118.929 126.476C118.359 125.253 118.13 124.03 118.241 122.806C118.349 121.574 118.772 120.464 119.512 119.476C120.252 118.487 121.237 117.706 122.468 117.132C123.77 116.525 125.063 116.282 126.349 116.403C127.643 116.52 128.797 116.976 129.811 117.771C129.826 117.783 129.845 117.803 129.868 117.831C129.895 117.847 129.914 117.857 129.925 117.862L129.994 117.916L128.574 119.63L127.735 120.641L122.243 127.279C123.167 128.231 124.189 128.908 125.307 129.308C126.43 129.697 127.526 129.709 128.595 129.345ZM119.933 123.53C120.387 124.874 121.104 126.072 122.084 127.123L128.409 119.462C127.495 118.572 126.494 117.949 125.405 117.592C124.325 117.232 123.266 117.226 122.228 117.575C121.057 117.968 120.26 118.7 119.837 119.771C119.419 120.83 119.451 122.083 119.933 123.53Z" fill="black"/>
<path d="M139.306 109.986L140.12 110.125L139.209 112.279L137.704 111.742C137.292 111.598 136.879 111.608 136.465 111.772C136.056 111.925 135.751 112.197 135.549 112.588L135.394 112.905C135.373 112.963 135.334 113.054 135.276 113.177C135.226 113.296 135.186 113.387 135.157 113.448C135.086 113.625 134.984 113.899 134.849 114.269C134.727 114.605 134.567 115.116 134.369 115.804L137.763 123.082C137.969 123.524 138.293 123.839 138.736 124.026C139.186 124.21 139.638 124.22 140.09 124.057L140.107 124.093L135.29 126.339L135.274 126.303C135.697 126.058 135.979 125.705 136.12 125.246C136.266 124.774 136.237 124.322 136.035 123.888L133.154 117.71L133.237 117.888L132.481 116.267C132.234 115.738 131.946 115.335 131.614 115.057C131.371 114.844 131.087 114.751 130.763 114.777C130.439 114.803 130.169 114.934 129.952 115.169L129.554 115.614L129.468 115.553L131.687 112.833C132.215 113.039 132.659 113.302 133.02 113.623C133.386 113.933 133.705 114.38 133.977 114.964L134.22 115.485C134.354 114.99 134.487 114.553 134.618 114.175L134.921 113.342C134.967 113.215 135.005 113.121 135.034 113.059L135.016 113.053L135.507 111.974C135.843 111.251 136.362 110.706 137.065 110.34C137.772 109.962 138.52 109.844 139.306 109.986Z" fill="black"/>
<path d="M156.488 114.668C156.864 115.021 157.302 115.239 157.802 115.323C158.31 115.403 158.796 115.334 159.262 115.117L159.278 115.153L153.539 117.829L153.522 117.794C154.003 117.569 154.286 117.197 154.371 116.678C154.459 116.147 154.312 115.697 153.928 115.328L152.003 113.517L151.918 113.427L144.439 116.915L144.522 119.627C144.545 120.068 144.71 120.443 145.018 120.751C145.332 121.056 145.71 121.216 146.149 121.232L146.166 121.267L143.113 122.691L143.096 122.655C143.943 121.732 144.345 120.647 144.301 119.399L144.246 117.768L144.112 114.143L143.831 105.816L140.675 102.85L140.784 102.713L142.131 101.09L155.981 114.198L155.992 114.193L156.488 114.668ZM144.428 116.675L151.742 113.264L151.633 113.156L150.836 112.404L144.047 106.032L144.334 114.125L144.428 116.675Z" fill="black"/>
<path d="M163.59 98.6624L164.404 98.8014L163.493 100.956L161.989 100.418C161.576 100.274 161.163 100.284 160.749 100.448C160.34 100.601 160.035 100.873 159.833 101.264L159.678 101.582C159.657 101.639 159.618 101.73 159.56 101.853C159.51 101.972 159.471 102.063 159.442 102.124C159.371 102.301 159.268 102.575 159.133 102.945C159.011 103.281 158.851 103.792 158.653 104.48L162.047 111.758C162.253 112.2 162.577 112.515 163.02 112.702C163.47 112.886 163.922 112.896 164.374 112.733L164.391 112.769L159.574 115.015L159.558 114.979C159.981 114.734 160.263 114.381 160.404 113.922C160.55 113.451 160.521 112.998 160.319 112.564L157.438 106.387L157.521 106.564L156.765 104.943C156.518 104.414 156.23 104.011 155.898 103.733C155.655 103.52 155.371 103.427 155.047 103.453C154.723 103.479 154.453 103.61 154.236 103.845L153.839 104.29L153.753 104.23L155.971 101.509C156.499 101.715 156.943 101.978 157.305 102.299C157.67 102.609 157.989 103.056 158.261 103.64L158.504 104.161C158.638 103.666 158.771 103.229 158.902 102.851L159.205 102.018C159.251 101.891 159.289 101.797 159.318 101.735L159.301 101.729L159.791 100.65C160.127 99.9269 160.646 99.3822 161.349 99.0159C162.057 98.638 162.804 98.5201 163.59 98.6624Z" fill="black"/>
<path d="M171.261 102.073C171.257 102.085 171.256 102.095 171.26 102.102C171.267 102.118 171.267 102.128 171.259 102.132L170.869 104.014L172.26 106.996C172.466 107.438 172.79 107.752 173.233 107.94C173.684 108.123 174.135 108.134 174.587 107.971L174.604 108.006L169.787 110.252L169.771 110.217C170.194 109.971 170.476 109.619 170.618 109.159C170.763 108.688 170.734 108.236 170.532 107.802L163.838 93.4466C163.728 93.2099 163.543 93.0705 163.283 93.0283C163.023 92.9862 162.803 93.06 162.622 93.2498L162.009 93.8815L161.965 93.7868L163.264 92.2158L164.611 90.5935L170.715 103.682L171.117 101.766C171.336 100.482 171.517 99.4709 171.662 98.731C171.811 97.9795 171.995 97.2407 172.213 96.5145C172.428 95.7804 172.644 95.2235 172.86 94.8439C173.074 94.4564 173.367 94.0652 173.74 93.6704C174.113 93.2755 174.515 92.9535 174.946 92.7044C175.377 92.4552 175.928 92.184 176.598 91.8908L176.627 94.053C175.254 94.6737 174.197 95.4451 173.456 96.3673C172.722 97.2859 172.167 98.404 171.793 99.7218L178.143 102.495C179.701 103.18 180.679 103.588 181.077 103.72C181.714 103.932 182.377 104.046 183.065 104.061L180.095 105.446L171.355 101.626L171.261 102.073Z" fill="black"/>
<path d="M180.64 87.3901L178.357 82.4938L180.011 81.7224C180.394 81.544 180.738 81.4629 181.045 81.4792C181.35 81.4938 181.615 81.5868 181.838 81.7581C182.062 81.9294 182.241 82.1593 182.376 82.4478C182.51 82.7363 182.57 83.0196 182.556 83.2978C182.543 83.5759 182.443 83.8356 182.259 84.0768C182.074 84.3164 181.792 84.5247 181.412 84.7016L180.073 85.3259L179.824 84.7904L181.143 84.175C181.405 84.0531 181.597 83.9167 181.721 83.7659C181.846 83.6143 181.912 83.4517 181.919 83.278C181.926 83.1019 181.884 82.9159 181.792 82.7199C181.701 82.5238 181.584 82.3696 181.442 82.2571C181.301 82.1447 181.131 82.0861 180.933 82.0815C180.734 82.0753 180.502 82.1339 180.238 82.2572L179.195 82.7433L181.233 87.1137L180.64 87.3901ZM181.919 84.1159L184.15 85.7536L183.461 86.0746L181.25 84.4281L181.919 84.1159Z" fill="black"/>
<path d="M182.663 80.4857L183.371 80.1557L186.93 83.4441L186.988 83.4174L186.756 78.5771L187.464 78.2471L189.747 83.1434L189.193 83.4021L187.458 79.682L187.41 79.7043L187.615 84.1379L187.079 84.3876L183.814 81.381L183.767 81.4033L185.501 85.1234L184.947 85.382L182.663 80.4857Z" fill="black"/>
</svg>
