<svg width="271" height="241" viewBox="0 0 271 241" fill="none" xmlns="http://www.w3.org/2000/svg">
<rect y="95.0322" width="224" height="160" rx="80" transform="rotate(-25 0 95.0322)" fill="#85EE00"/>
<path d="M110.943 122.24L108.548 123.357L113.31 133.568C113.644 134.284 113.783 134.993 113.728 135.696C113.679 136.396 113.435 137.043 112.997 137.636C112.561 138.221 111.942 138.701 111.139 139.076C110.341 139.448 109.577 139.613 108.849 139.57C108.118 139.522 107.463 139.294 106.885 138.887C106.311 138.478 105.858 137.915 105.524 137.199L100.762 126.988L98.3756 128.101L103.227 138.505C103.744 139.612 104.461 140.472 105.38 141.084C106.296 141.691 107.339 142.02 108.51 142.07C109.678 142.114 110.893 141.842 112.154 141.254C113.421 140.663 114.413 139.906 115.13 138.983C115.844 138.054 116.263 137.044 116.387 135.952C116.508 134.854 116.311 133.752 115.795 132.645L110.943 122.24Z" fill="black"/>
<path fill-rule="evenodd" clip-rule="evenodd" d="M127.227 133.906L132.349 131.518C133.955 130.768 135.177 129.813 136.015 128.651C136.85 127.485 137.29 126.17 137.335 124.707C137.385 123.241 137.026 121.685 136.258 120.037C135.492 118.394 134.536 117.125 133.392 116.23C132.25 115.327 130.976 114.82 129.571 114.711C128.163 114.596 126.684 114.9 125.134 115.623L119.851 118.087L127.227 133.906ZM131.245 129.493L128.642 130.707L123.21 119.059L125.96 117.777C127.113 117.239 128.183 117.013 129.17 117.098C130.156 117.184 131.047 117.568 131.842 118.25C132.642 118.93 133.331 119.891 133.91 121.132C134.493 122.383 134.79 123.537 134.799 124.592C134.806 125.642 134.517 126.582 133.933 127.413C133.346 128.238 132.45 128.931 131.245 129.493Z" fill="black"/>
<path d="M150.75 122.937L143.373 107.118L140.986 108.231L148.363 124.05L150.75 122.937Z" fill="black"/>
<path d="M160.617 106.609L153.947 102.187L151.182 103.476L159.883 109.048L158.528 119.31L161.309 118.013L162.263 110.139L162.387 110.082L169.033 114.412L171.814 113.115L163.166 107.518L164.406 97.3101L161.641 98.5995L160.741 106.552L160.617 106.609Z" fill="black"/>
<path fill-rule="evenodd" clip-rule="evenodd" d="M91.9402 119.466C81.4288 124.367 76.8812 136.862 81.7827 147.373L88.9672 162.781L178.692 120.941C189.203 116.04 193.751 103.545 188.849 93.0339L181.665 77.6266L91.9402 119.466ZM174.837 81.9139L181.599 96.4148C185.554 104.896 183.357 114.669 176.839 120.702L178.269 120.035C188.28 115.367 192.611 103.467 187.943 93.4565L181.181 78.9556L174.837 81.9139ZM171.019 123.416C181.029 118.748 185.361 106.848 180.692 96.8374L173.931 82.3365L99.6133 116.991C89.6025 121.659 85.2714 133.559 89.9395 143.57L96.7014 158.071L171.019 123.416ZM89.0332 143.992L95.7951 158.493L89.4509 161.452L82.689 146.951C78.0209 136.94 82.352 125.04 92.3628 120.372L93.7933 119.705C87.2753 125.738 85.0782 135.511 89.0332 143.992Z" fill="black"/>
</svg>
