<svg width="72" height="72" viewBox="0 0 72 72" fill="none" xmlns="http://www.w3.org/2000/svg">
<path d="M0 6C0 2.68629 2.68629 0 6 0H18C21.3137 0 24 2.68629 24 6V36V66C24 69.3137 21.3137 72 18 72H6C2.68629 72 0 69.3137 0 66V6Z" fill="white"/>
<path d="M66 72C69.3137 72 72 69.3137 72 66V54C72 50.6863 69.3137 48 66 48H54C50.6863 48 48 45.3137 48 42V30C48 26.6863 45.3137 24 42 24H30C26.6863 24 24 21.3137 24 18V54C24 50.6863 26.6863 48 30 48H42C45.3137 48 48 50.6863 48 54V66C48 69.3137 50.6863 72 54 72H66Z" fill="white"/>
</svg>
