<svg width="100" height="27" viewBox="0 0 100 27" fill="none" xmlns="http://www.w3.org/2000/svg">
<path d="M55.3704 13.8205H48.4383V1.79487H55.1209C55.8932 1.79487 56.5466 1.90855 57.0812 2.1359C57.6277 2.36325 58.0435 2.69829 58.3286 3.14103C58.6256 3.58376 58.7741 4.12222 58.7741 4.75641C58.7741 5.46239 58.5662 6.06068 58.1504 6.55128C57.7465 7.04188 57.0871 7.34103 56.1723 7.44872V7.57436C57.194 7.69402 57.9544 8.01709 58.4533 8.54359C58.9523 9.05812 59.2018 9.71026 59.2018 10.5C59.2018 11.1821 59.0533 11.7744 58.7563 12.2769C58.4593 12.7795 58.0257 13.1624 57.4554 13.4256C56.8852 13.6889 56.1902 13.8205 55.3704 13.8205ZM50.3451 8.4359V12.0795H55.1566C55.8694 12.0795 56.3981 11.9359 56.7426 11.6487C57.099 11.3496 57.2772 10.8769 57.2772 10.2308C57.2772 9.59658 57.099 9.14188 56.7426 8.86667C56.3981 8.57949 55.8694 8.4359 55.1566 8.4359H50.3451ZM50.3451 3.5359V6.83846H54.8536C55.5308 6.83846 56.0357 6.70684 56.3684 6.44359C56.701 6.16838 56.8673 5.74957 56.8673 5.18718C56.8673 4.62479 56.707 4.21197 56.3862 3.94872C56.0654 3.6735 55.5724 3.5359 54.9071 3.5359H50.3451Z" fill="white"/>
<path d="M62.3728 13.8205H60.4482V4.9H62.2125V7.43077L62.3728 7.52051V13.8205ZM62.3728 8.81282H61.9451V7.30513H62.3372C62.4204 6.81453 62.5867 6.37778 62.8362 5.99487C63.0856 5.6 63.4183 5.28889 63.8341 5.06154C64.2618 4.83419 64.7786 4.72051 65.3845 4.72051C66.0616 4.72051 66.6141 4.8641 67.0418 5.15128C67.4694 5.43846 67.7783 5.82137 67.9684 6.3C68.1704 6.77863 68.2714 7.29915 68.2714 7.86154V9.02821H66.3646V8.23846C66.3646 7.59231 66.222 7.11966 65.9369 6.82051C65.6518 6.52137 65.1766 6.37179 64.5113 6.37179C63.7509 6.37179 63.2044 6.5812 62.8718 7C62.5392 7.4188 62.3728 8.02308 62.3728 8.81282Z" fill="white"/>
<path d="M77.8558 13.8205H76.0915V11.5231L75.9668 11.4692V8.41795C75.9668 7.67607 75.7886 7.16154 75.4322 6.87436C75.0877 6.57521 74.4877 6.42564 73.6323 6.42564C72.8126 6.42564 72.2008 6.56923 71.7969 6.85641C71.3929 7.14359 71.191 7.61624 71.191 8.27436V8.34615H69.2842V8.27436C69.2842 7.59231 69.4624 6.98803 69.8188 6.46154C70.1752 5.92308 70.6861 5.49829 71.3513 5.18718C72.0285 4.87607 72.8364 4.72051 73.7749 4.72051C74.7134 4.72051 75.4797 4.88205 76.0737 5.20513C76.6796 5.51624 77.1251 5.94701 77.4102 6.49744C77.7073 7.04786 77.8558 7.68205 77.8558 8.4V13.8205ZM72.082 14C71.1672 14 70.4366 13.7966 69.8901 13.3897C69.3555 12.9709 69.0882 12.3966 69.0882 11.6667C69.0882 11.2 69.201 10.8111 69.4268 10.5C69.6644 10.1769 69.997 9.92564 70.4247 9.74615C70.8524 9.56667 71.3573 9.44103 71.9394 9.36923L76.145 8.92051V10.0692L72.4918 10.4821C71.9929 10.5419 71.6187 10.6496 71.3692 10.8051C71.1316 10.9487 71.0128 11.194 71.0128 11.541C71.0128 11.9 71.1375 12.1692 71.387 12.3487C71.6484 12.5162 72.0523 12.6 72.5988 12.6C73.2759 12.6 73.864 12.5162 74.363 12.3487C74.8619 12.1692 75.254 11.894 75.5391 11.5231C75.8242 11.1521 75.9668 10.6735 75.9668 10.0872L76.2163 10.1231V11.5949H75.9668C75.7292 12.3487 75.2718 12.941 74.5946 13.3718C73.9294 13.7906 73.0918 14 72.082 14Z" fill="white"/>
<path d="M88.8225 13.8205H86.8979V8.97436C86.8979 8.13675 86.6959 7.50855 86.292 7.08974C85.9 6.67094 85.2406 6.46154 84.3139 6.46154C83.3517 6.46154 82.6388 6.71282 82.1755 7.21538C81.7241 7.70598 81.4983 8.4359 81.4983 9.40513L81.1597 9.42308L81.0706 7.6641H81.4627C81.5577 7.16154 81.7478 6.68889 82.0329 6.24615C82.3299 5.79145 82.7339 5.4265 83.2447 5.15128C83.7675 4.8641 84.403 4.72051 85.1515 4.72051C85.9712 4.72051 86.6544 4.88803 87.2008 5.22308C87.7473 5.55812 88.1513 6.00684 88.4126 6.56923C88.6859 7.13162 88.8225 7.75983 88.8225 8.45385V13.8205ZM81.4983 13.8205H79.5738V4.9H81.338V7.7L81.4983 7.78974V13.8205Z" fill="white"/>
<path d="M94.4401 14C93.5015 14 92.7055 13.8085 92.0521 13.4256C91.4106 13.0308 90.9235 12.4863 90.5909 11.7923C90.2582 11.0863 90.0919 10.2786 90.0919 9.36923C90.0919 8.4359 90.2582 7.62222 90.5909 6.92821C90.9235 6.23419 91.4047 5.69573 92.0343 5.31282C92.664 4.91795 93.4243 4.72051 94.3153 4.72051C95.3608 4.72051 96.1865 4.96581 96.7923 5.45641C97.3982 5.94701 97.7903 6.56923 97.9685 7.32308H98.414V9.31538H98.0754C98.0754 8.37009 97.8081 7.6641 97.2735 7.19744C96.7389 6.7188 95.9786 6.47949 94.9925 6.47949C94.3866 6.47949 93.8579 6.57521 93.4065 6.76667C92.955 6.94615 92.6105 7.2453 92.3729 7.6641C92.1472 8.08291 92.0343 8.65128 92.0343 9.36923C92.0343 10.0752 92.1472 10.6376 92.3729 11.0564C92.6105 11.4752 92.955 11.7744 93.4065 11.9538C93.8579 12.1333 94.3985 12.2231 95.0281 12.2231C95.6578 12.2231 96.1983 12.1274 96.6498 11.9359C97.1131 11.7325 97.4636 11.4214 97.7012 11.0026C97.9507 10.5838 98.0754 10.0692 98.0754 9.45897H98.414L98.5387 11.2538H98.111C97.9328 12.1393 97.523 12.8214 96.8814 13.3C96.2518 13.7667 95.438 14 94.4401 14ZM100 13.8205H98.2358V11.0205L98.0754 10.7872V1.79487H100V13.8205Z" fill="white"/>
<path d="M50.5128 18.4981V24.5897H49.5973V19.4201H49.5619L48.1148 20.372V19.4915L49.6239 18.4981H50.5128Z" fill="#666666"/>
<path d="M54.16 18.4148C54.4297 18.4168 54.6955 18.4663 54.9573 18.5635C55.2192 18.6607 55.4554 18.8193 55.6661 19.0394C55.8787 19.2595 56.048 19.557 56.174 19.9317C56.302 20.3045 56.367 20.7686 56.369 21.3238C56.369 21.8572 56.3158 22.3321 56.2095 22.7486C56.1032 23.163 55.9506 23.513 55.7517 23.7985C55.5549 24.0841 55.3157 24.3012 55.0341 24.4499C54.7526 24.5987 54.4356 24.673 54.0832 24.673C53.7229 24.673 53.403 24.6016 53.1234 24.4589C52.8438 24.3161 52.6165 24.1188 52.4412 23.867C52.266 23.6131 52.1567 23.3216 52.1134 22.9925H53.0141C53.0732 23.2542 53.1933 23.4664 53.3744 23.629C53.5575 23.7896 53.7938 23.8699 54.0832 23.8699C54.5262 23.8699 54.8717 23.6756 55.1198 23.2869C55.3678 22.8963 55.4928 22.351 55.4948 21.651H55.4476C55.3452 21.8215 55.2172 21.9683 55.0637 22.0912C54.9121 22.2141 54.7418 22.3093 54.5527 22.3768C54.3637 22.4442 54.1619 22.4779 53.9474 22.4779C53.5989 22.4779 53.2819 22.3916 52.9964 22.2191C52.711 22.0466 52.4836 21.8096 52.3142 21.5082C52.1449 21.2068 52.0603 20.8628 52.0603 20.4761C52.0603 20.0914 52.1469 19.7424 52.3202 19.4291C52.4954 19.1158 52.7395 18.8679 53.0525 18.6854C53.3675 18.501 53.7367 18.4108 54.16 18.4148ZM54.1629 19.1881C53.9326 19.1881 53.7249 19.2456 53.5398 19.3607C53.3567 19.4737 53.212 19.6274 53.1057 19.8217C52.9994 20.014 52.9462 20.2282 52.9462 20.4642C52.9462 20.7001 52.9974 20.9143 53.0998 21.1067C53.2041 21.297 53.3459 21.4487 53.525 21.5617C53.7062 21.6728 53.9129 21.7283 54.1452 21.7283C54.3185 21.7283 54.4799 21.6946 54.6295 21.6272C54.7792 21.5598 54.9101 21.4666 55.0223 21.3476C55.1345 21.2266 55.2221 21.0898 55.2851 20.9371C55.3481 20.7844 55.3796 20.6238 55.3796 20.4553C55.3796 20.2312 55.3265 20.023 55.2202 19.8306C55.1158 19.6383 54.9721 19.4836 54.789 19.3666C54.6059 19.2476 54.3972 19.1881 54.1629 19.1881Z" fill="#666666"/>
<path d="M59.4794 24.673C59.0561 24.673 58.682 24.5997 58.3572 24.4529C58.0343 24.3062 57.7813 24.1039 57.5982 23.8461C57.4151 23.5883 57.3246 23.2949 57.3265 22.9657C57.3246 22.7079 57.3767 22.4709 57.483 22.2548C57.5913 22.0367 57.738 21.8552 57.9231 21.7105C58.1081 21.5637 58.3149 21.4705 58.5432 21.4309V21.3952C58.242 21.3218 58.0008 21.1592 57.8197 20.9074C57.6386 20.6555 57.549 20.366 57.551 20.0388C57.549 19.7275 57.6307 19.4499 57.7961 19.206C57.9634 18.9601 58.1928 18.7668 58.4842 18.626C58.7755 18.4852 59.1073 18.4148 59.4794 18.4148C59.8476 18.4148 60.1763 18.4862 60.4657 18.6289C60.7571 18.7697 60.9865 18.9631 61.1538 19.209C61.3212 19.4529 61.4058 19.7295 61.4078 20.0388C61.4058 20.366 61.3133 20.6555 61.1302 20.9074C60.9471 21.1592 60.7089 21.3218 60.4155 21.3952V21.4309C60.642 21.4705 60.8457 21.5637 61.0269 21.7105C61.2099 21.8552 61.3556 22.0367 61.4639 22.2548C61.5742 22.4709 61.6303 22.7079 61.6323 22.9657C61.6303 23.2949 61.5378 23.5883 61.3547 23.8461C61.1716 24.1039 60.9176 24.3062 60.5927 24.4529C60.2699 24.5997 59.8987 24.673 59.4794 24.673ZM59.4794 23.9205C59.7294 23.9205 59.946 23.8789 60.1291 23.7956C60.3122 23.7103 60.4539 23.5923 60.5543 23.4416C60.6548 23.2889 60.7059 23.1104 60.7079 22.9062C60.7059 22.694 60.6508 22.5066 60.5425 22.344C60.4362 22.1814 60.2915 22.0535 60.1084 21.9603C59.9253 21.8671 59.7156 21.8205 59.4794 21.8205C59.2412 21.8205 59.0295 21.8671 58.8445 21.9603C58.6594 22.0535 58.5137 22.1814 58.4074 22.344C58.3011 22.5066 58.2489 22.694 58.2509 22.9062C58.2489 23.1104 58.2971 23.2889 58.3956 23.4416C58.496 23.5923 58.6387 23.7103 58.8238 23.7956C59.0088 23.8789 59.2274 23.9205 59.4794 23.9205ZM59.4794 21.0858C59.6802 21.0858 59.8584 21.0452 60.0139 20.9639C60.1694 20.8826 60.2915 20.7696 60.3801 20.6248C60.4707 20.48 60.5169 20.3105 60.5189 20.1162C60.5169 19.9258 60.4717 19.7592 60.3831 19.6165C60.2964 19.4737 60.1754 19.3636 60.0198 19.2863C59.8643 19.207 59.6841 19.1673 59.4794 19.1673C59.2707 19.1673 59.0876 19.207 58.9301 19.2863C58.7746 19.3636 58.6535 19.4737 58.5669 19.6165C58.4802 19.7592 58.4379 19.9258 58.4399 20.1162C58.4379 20.3105 58.4812 20.48 58.5698 20.6248C58.6584 20.7696 58.7805 20.8826 58.936 20.9639C59.0935 21.0452 59.2746 21.0858 59.4794 21.0858Z" fill="#666666"/>
<path d="M64.8018 24.673C64.532 24.6691 64.2662 24.6195 64.0044 24.5243C63.7445 24.4291 63.5083 24.2705 63.2956 24.0484C63.083 23.8263 62.9127 23.5279 62.7847 23.1531C62.6587 22.7783 62.5957 22.3103 62.5957 21.7491C62.5957 21.2177 62.6479 20.7458 62.7522 20.3333C62.8586 19.9208 63.0111 19.5728 63.21 19.2893C63.4088 19.0037 63.649 18.7866 63.9306 18.6379C64.2121 18.4891 64.5281 18.4148 64.8785 18.4148C65.2388 18.4148 65.5587 18.4862 65.8383 18.6289C66.1179 18.7717 66.3443 18.969 66.5175 19.2208C66.6928 19.4727 66.804 19.7592 66.8513 20.0805H65.9505C65.8895 19.8266 65.7684 19.6194 65.5873 19.4588C65.4062 19.2982 65.1699 19.2179 64.8785 19.2179C64.4356 19.2179 64.09 19.4122 63.842 19.8009C63.5959 20.1895 63.4718 20.7299 63.4699 21.4219H63.5142C63.6185 21.2494 63.7465 21.1027 63.8981 20.9817C64.0516 20.8588 64.2229 20.7646 64.4119 20.6992C64.6029 20.6317 64.8037 20.598 65.0144 20.598C65.3648 20.598 65.6818 20.6843 65.9653 20.8568C66.2508 21.0273 66.4782 21.2633 66.6475 21.5647C66.8168 21.8661 66.9015 22.2112 66.9015 22.5998C66.9015 22.9885 66.8138 23.3405 66.6386 23.6558C66.4654 23.9711 66.2212 24.2209 65.9062 24.4053C65.5912 24.5878 65.2231 24.677 64.8018 24.673ZM64.7988 23.8997C65.0311 23.8997 65.2388 23.8422 65.4219 23.7272C65.605 23.6121 65.7497 23.4575 65.856 23.2631C65.9623 23.0688 66.0155 22.8517 66.0155 22.6117C66.0155 22.3777 65.9633 22.1646 65.859 21.9722C65.7566 21.7799 65.6149 21.6272 65.4337 21.5142C65.2546 21.4011 65.0498 21.3446 64.8195 21.3446C64.6442 21.3446 64.4818 21.3783 64.3322 21.4457C64.1845 21.5132 64.0546 21.6064 63.9424 21.7253C63.8302 21.8443 63.7416 21.9811 63.6766 22.1358C63.6136 22.2885 63.5821 22.4501 63.5821 22.6207C63.5821 22.8487 63.6343 23.0599 63.7386 23.2542C63.8449 23.4485 63.9896 23.6052 64.1727 23.7242C64.3578 23.8412 64.5665 23.8997 64.7988 23.8997Z" fill="#666666"/>
<path fill-rule="evenodd" clip-rule="evenodd" d="M11.2862 2.52639C10.1159 0.936432 8.67989 0 7.12812 0C3.19137 0 0 6.02694 0 13.4615C0 20.8961 3.19137 26.9231 7.12812 26.9231C8.67989 26.9231 10.1159 25.9866 11.2862 24.3967C12.4565 25.9866 13.8925 26.9231 15.4443 26.9231C16.996 26.9231 18.432 25.9866 19.6023 24.3967C20.7727 25.9866 22.2086 26.9231 23.7604 26.9231C25.3122 26.9231 26.7481 25.9866 27.9185 24.3967C29.0888 25.9866 30.5248 26.9231 32.0766 26.9231C36.0133 26.9231 39.2047 20.8961 39.2047 13.4615C39.2047 6.02694 36.0133 0 32.0766 0C30.5248 0 29.0888 0.936432 27.9185 2.52639C26.7481 0.936432 25.3122 0 23.7604 0C22.2086 0 20.7727 0.936432 19.6023 2.52639C18.432 0.936432 16.996 0 15.4443 0C13.8925 0 12.4565 0.936432 11.2862 2.52639ZM13.6622 13.4615C13.6622 17.1005 12.8799 20.3653 11.6443 22.6987C11.5281 22.9182 11.4086 23.1283 11.2862 23.3287C11.1638 23.1283 11.0443 22.9182 10.928 22.6987C9.69246 20.3653 8.91015 17.1005 8.91015 13.4615C8.91015 9.82256 9.69246 6.55776 10.928 4.22434C11.0443 4.00485 11.1638 3.79481 11.2862 3.59436C11.4086 3.79481 11.5281 4.00485 11.6443 4.22434C12.8799 6.55776 13.6622 9.82256 13.6622 13.4615ZM10.9277 3.04667C9.33338 5.51542 8.31614 9.26414 8.31614 13.4615C8.31614 17.6589 9.33338 21.4077 10.9277 23.8764C9.80359 25.4768 8.47167 26.3248 7.12812 26.3248C5.48592 26.3248 3.8611 25.0579 2.61191 22.6987C1.37632 20.3653 0.59401 17.1005 0.59401 13.4615C0.59401 9.82256 1.37632 6.55776 2.61191 4.22434C3.8611 1.86522 5.48592 0.598291 7.12812 0.598291C8.47167 0.598291 9.80359 1.44631 10.9277 3.04667ZM27.56 3.04667C26.4359 1.44631 25.104 0.598291 23.7604 0.598291C22.4169 0.598291 21.0849 1.44631 19.9608 3.04667C21.5551 5.51542 22.5724 9.26414 22.5724 13.4615C22.5724 17.6589 21.5551 21.4077 19.9608 23.8764C21.0849 25.4768 22.4169 26.3248 23.7604 26.3248C25.104 26.3248 26.4359 25.4768 27.56 23.8764C25.9657 21.4077 24.9484 17.6589 24.9484 13.4615C24.9484 9.26414 25.9657 5.51542 27.56 3.04667ZM27.9185 23.3287C27.796 23.1283 27.6766 22.9182 27.5603 22.6987C26.3248 20.3653 25.5424 17.1005 25.5424 13.4615C25.5424 9.82256 26.3248 6.55776 27.5603 4.22434C27.6766 4.00485 27.796 3.79481 27.9185 3.59436C28.0409 3.79481 28.1604 4.00485 28.2766 4.22434C29.5122 6.55776 30.2945 9.82256 30.2945 13.4615C30.2945 17.1005 29.5122 20.3653 28.2766 22.6987C28.1604 22.9182 28.0409 23.1283 27.9185 23.3287ZM28.277 23.8764C29.8713 21.4077 30.8885 17.6589 30.8885 13.4615C30.8885 9.26414 29.8713 5.51542 28.277 3.04667C29.4011 1.44631 30.733 0.598291 32.0766 0.598291C33.7188 0.598291 35.3436 1.86522 36.5928 4.22434C37.8284 6.55776 38.6107 9.82256 38.6107 13.4615C38.6107 17.1005 37.8284 20.3653 36.5928 22.6987C35.3436 25.0579 33.7188 26.3248 32.0766 26.3248C30.733 26.3248 29.4011 25.4768 28.277 23.8764ZM19.9605 4.22434C19.8443 4.00485 19.7248 3.79481 19.6023 3.59436C19.4799 3.79481 19.3604 4.00485 19.2442 4.22434C18.0086 6.55776 17.2263 9.82256 17.2263 13.4615C17.2263 17.1005 18.0086 20.3653 19.2442 22.6987C19.3604 22.9182 19.4799 23.1283 19.6023 23.3287C19.7248 23.1283 19.8443 22.9182 19.9605 22.6987C21.1961 20.3653 21.9784 17.1005 21.9784 13.4615C21.9784 9.82256 21.1961 6.55776 19.9605 4.22434ZM16.6323 13.4615C16.6323 9.26414 17.6495 5.51542 19.2438 3.04667C18.1197 1.44631 16.7878 0.598291 15.4443 0.598291C14.1007 0.598291 12.7688 1.44631 11.6447 3.04667C13.239 5.51542 14.2562 9.26414 14.2562 13.4615C14.2562 17.6589 13.239 21.4077 11.6447 23.8764C12.7688 25.4768 14.1007 26.3248 15.4443 26.3248C16.7878 26.3248 18.1197 25.4768 19.2438 23.8764C17.6495 21.4077 16.6323 17.6589 16.6323 13.4615Z" fill="white"/>
</svg>
