<svg width="100" height="34" viewBox="0 0 100 34" fill="none" xmlns="http://www.w3.org/2000/svg">
<path d="M30.4667 11.0387V22.0773L20.3177 27.5967V16.558L30.4667 11.0387Z" fill="white"/>
<path d="M20.3177 16.558V27.5967L10.1491 33.116V22.0773L20.3177 16.558Z" fill="white"/>
<path d="M10.1491 33.116L0 27.5967V16.558L10.1491 22.0773V33.116Z" fill="white"/>
<path d="M0 5.51934L10.1491 0L20.3177 5.51934L10.1491 11.0387L0 5.51934Z" fill="white"/>
<path d="M10.1491 22.0773L0 16.558V5.51934L10.1491 11.0387V22.0773Z" fill="white"/>
<path d="M44.7292 14.2399V13.2238L50.961 3.92124H44.6615V2.67939H52.6319V3.69545L46.4 12.998H52.6996V14.2399H44.7292Z" fill="white"/>
<path d="M62.6344 2.67939H64.0343V10.3337C64.0343 11.124 63.848 11.8296 63.4755 12.4505C63.1067 13.0677 62.5855 13.555 61.9119 13.9125C61.2383 14.2662 60.448 14.4431 59.5411 14.4431C58.6342 14.4431 57.8439 14.2662 57.1703 13.9125C56.4967 13.555 55.9736 13.0677 55.601 12.4505C55.2322 11.8296 55.0478 11.124 55.0478 10.3337V2.67939H56.4477V10.2208C56.4477 10.7853 56.5719 11.2877 56.8203 11.728C57.0687 12.1645 57.4224 12.5088 57.8815 12.761C58.3444 13.0093 58.8976 13.1335 59.5411 13.1335C60.1846 13.1335 60.7378 13.0093 61.2006 12.761C61.6635 12.5088 62.0173 12.1645 62.2619 11.728C62.5102 11.2877 62.6344 10.7853 62.6344 10.2208V2.67939Z" fill="white"/>
<path d="M66.8299 2.67939H68.5007L72.4295 12.2755H72.565L76.4938 2.67939H78.1646V14.2399H76.855V5.45661H76.7421L73.1295 14.2399H71.865L68.2524 5.45661H68.1395V14.2399H66.8299V2.67939Z" fill="white"/>
<path d="M81.4456 14.2399H79.978L84.2229 2.67939H85.6679L89.9128 14.2399H88.4451L84.9905 4.50829H84.9002L81.4456 14.2399ZM81.9875 9.72406H87.9033V10.9659H81.9875V9.72406Z" fill="white"/>
<path d="M91.7135 14.2399V2.67939H95.6197C96.5228 2.67939 97.2642 2.83368 97.8437 3.14226C98.4232 3.44707 98.8522 3.86667 99.1307 4.40104C99.4092 4.93541 99.5484 5.54317 99.5484 6.2243C99.5484 6.90544 99.4092 7.50943 99.1307 8.03628C98.8522 8.56312 98.4251 8.97707 97.8493 9.27813C97.2736 9.57542 96.5379 9.72406 95.6422 9.72406H92.4812V8.45963H95.5971C96.2142 8.45963 96.711 8.36932 97.0873 8.18869C97.4674 8.00805 97.7421 7.75216 97.9114 7.421C98.0845 7.08607 98.1711 6.68718 98.1711 6.2243C98.1711 5.76143 98.0845 5.35689 97.9114 5.01068C97.7383 4.66446 97.4617 4.39728 97.0816 4.20912C96.7016 4.0172 96.1992 3.92124 95.5745 3.92124H93.1134V14.2399H91.7135ZM97.155 9.04669L100 14.2399H98.3743L95.5745 9.04669H97.155Z" fill="white"/>
<path d="M54.4156 22.1877H53.0157C52.9329 21.7851 52.788 21.4313 52.5811 21.1265C52.3779 20.8217 52.1295 20.5658 51.836 20.3588C51.5462 20.1481 51.2244 19.99 50.8707 19.8847C50.517 19.7793 50.1482 19.7266 49.7643 19.7266C49.0644 19.7266 48.4303 19.9035 47.862 20.2572C47.2976 20.611 46.8479 21.1322 46.5129 21.8208C46.1818 22.5095 46.0162 23.3543 46.0162 24.3553C46.0162 25.3563 46.1818 26.2012 46.5129 26.8898C46.8479 27.5785 47.2976 28.0997 47.862 28.4534C48.4303 28.8072 49.0644 28.984 49.7643 28.984C50.1482 28.984 50.517 28.9314 50.8707 28.826C51.2244 28.7206 51.5462 28.5644 51.836 28.3575C52.1295 28.1467 52.3779 27.8889 52.5811 27.5841C52.788 27.2756 52.9329 26.9218 53.0157 26.5229H54.4156C54.3103 27.1137 54.1183 27.6425 53.8399 28.1091C53.5614 28.5757 53.2152 28.9727 52.8012 29.3001C52.3873 29.6238 51.9225 29.8703 51.407 30.0396C50.8952 30.209 50.3476 30.2936 49.7643 30.2936C48.7784 30.2936 47.9016 30.0528 47.1339 29.5711C46.3662 29.0894 45.7622 28.4045 45.3219 27.5164C44.8816 26.6283 44.6615 25.5746 44.6615 24.3553C44.6615 23.136 44.8816 22.0824 45.3219 21.1942C45.7622 20.3061 46.3662 19.6212 47.1339 19.1395C47.9016 18.6579 48.7784 18.417 49.7643 18.417C50.3476 18.417 50.8952 18.5017 51.407 18.671C51.9225 18.8404 52.3873 19.0887 52.8012 19.4161C53.2152 19.7398 53.5614 20.1349 53.8399 20.6015C54.1183 21.0644 54.3103 21.5931 54.4156 22.1877Z" fill="white"/>
<path d="M66.4319 24.3553C66.4319 25.5746 66.2118 26.6283 65.7715 27.5164C65.3312 28.4045 64.7272 29.0894 63.9595 29.5711C63.1918 30.0528 62.315 30.2936 61.3291 30.2936C60.3431 30.2936 59.4663 30.0528 58.6986 29.5711C57.9309 29.0894 57.3269 28.4045 56.8866 27.5164C56.4463 26.6283 56.2262 25.5746 56.2262 24.3553C56.2262 23.136 56.4463 22.0824 56.8866 21.1942C57.3269 20.3061 57.9309 19.6212 58.6986 19.1395C59.4663 18.6579 60.3431 18.417 61.3291 18.417C62.315 18.417 63.1918 18.6579 63.9595 19.1395C64.7272 19.6212 65.3312 20.3061 65.7715 21.1942C66.2118 22.0824 66.4319 23.136 66.4319 24.3553ZM65.0772 24.3553C65.0772 23.3543 64.9097 22.5095 64.5748 21.8208C64.2437 21.1322 63.7939 20.611 63.2257 20.2572C62.6612 19.9035 62.029 19.7266 61.3291 19.7266C60.6291 19.7266 59.995 19.9035 59.4268 20.2572C58.8623 20.611 58.4126 21.1322 58.0777 21.8208C57.7465 22.5095 57.5809 23.3543 57.5809 24.3553C57.5809 25.3563 57.7465 26.2012 58.0777 26.8898C58.4126 27.5785 58.8623 28.0997 59.4268 28.4534C59.995 28.8072 60.6291 28.984 61.3291 28.984C62.029 28.984 62.6612 28.8072 63.2257 28.4534C63.7939 28.0997 64.2437 27.5785 64.5748 26.8898C64.9097 26.2012 65.0772 25.3563 65.0772 24.3553Z" fill="white"/>
<path d="M77.9529 18.5751V30.1356H76.5982L70.2986 21.0588H70.1857V30.1356H68.7858V18.5751H70.1406L76.4627 27.6744H76.5756V18.5751H77.9529Z" fill="white"/>
<path d="M87.0763 21.4652C87.0086 20.8932 86.7338 20.4491 86.2522 20.133C85.7705 19.8169 85.1796 19.6589 84.4797 19.6589C83.9679 19.6589 83.5201 19.7417 83.1362 19.9072C82.7562 20.0728 82.4589 20.3005 82.2444 20.5903C82.0336 20.88 81.9283 21.2093 81.9283 21.5781C81.9283 21.8867 82.0016 22.152 82.1484 22.374C82.2989 22.5923 82.4909 22.7748 82.7242 22.9215C82.9575 23.0645 83.2021 23.1831 83.458 23.2772C83.7139 23.3675 83.9491 23.4409 84.1636 23.4973L85.3377 23.8134C85.6388 23.8924 85.9737 24.0016 86.3425 24.1408C86.715 24.2801 87.0706 24.4701 87.4093 24.7109C87.7518 24.948 88.034 25.2528 88.256 25.6254C88.4781 25.9979 88.5891 26.4552 88.5891 26.9971C88.5891 27.6218 88.4254 28.1862 88.098 28.6905C87.7744 29.1948 87.3002 29.5956 86.6755 29.8928C86.0546 30.1901 85.3001 30.3388 84.412 30.3388C83.5841 30.3388 82.8672 30.2052 82.2613 29.938C81.6592 29.6708 81.185 29.2983 80.8388 28.8203C80.4964 28.3424 80.3026 27.7873 80.2574 27.1551H81.7025C81.7401 27.5917 81.8869 27.9529 82.1428 28.2389C82.4024 28.5212 82.7298 28.7319 83.1249 28.8711C83.5238 29.0066 83.9528 29.0744 84.412 29.0744C84.9463 29.0744 85.4261 28.9878 85.8514 28.8147C86.2766 28.6378 86.6134 28.3932 86.8618 28.0809C87.1102 27.7648 87.2343 27.396 87.2343 26.9745C87.2343 26.5907 87.1271 26.2783 86.9126 26.0375C86.6981 25.7966 86.4159 25.6009 86.0659 25.4504C85.7159 25.2999 85.3377 25.1682 84.9313 25.0553L83.5088 24.6488C82.6056 24.3892 81.8906 24.0185 81.3638 23.5368C80.8369 23.0551 80.5735 22.4248 80.5735 21.6458C80.5735 20.9986 80.7485 20.4341 81.0985 19.9524C81.4522 19.4669 81.9264 19.0906 82.521 18.8234C83.1193 18.5525 83.7873 18.417 84.5248 18.417C85.27 18.417 85.9323 18.5506 86.5118 18.8178C87.0913 19.0812 87.5505 19.4425 87.8891 19.9016C88.2316 20.3607 88.4122 20.8819 88.431 21.4652H87.0763Z" fill="white"/>
</svg>
