<svg width="100" height="35" viewBox="0 0 100 35" fill="none" xmlns="http://www.w3.org/2000/svg">
<path fill-rule="evenodd" clip-rule="evenodd" d="M12.1715 5.0568C14.2357 7.12724 15.7215 9.6694 16.5246 12.4307C16.9774 13.9875 17.2131 15.6141 17.2131 17.265C17.2131 18.9159 16.9774 20.5424 16.5246 22.0993C15.7215 24.8606 14.2357 27.4027 12.1715 29.4732C9.10608 32.5478 5.00349 34.343 0.688525 34.5161C0.459574 34.5253 0.230024 34.5299 0 34.5299L3.35152e-06 0C0.230027 0 0.459577 0.00461801 0.688528 0.0138029C5.00349 0.186906 9.10608 1.98213 12.1715 5.0568ZM11.6847 28.9848C8.74836 31.93 4.8208 33.6523 0.688525 33.825L0.688528 0.704978C4.82081 0.877675 8.74836 2.59998 11.6847 5.54512C14.7836 8.65342 16.5246 12.8692 16.5246 17.265C16.5246 21.6608 14.7836 25.8765 11.6847 28.9848Z" fill="white"/>
<path fill-rule="evenodd" clip-rule="evenodd" d="M17.2131 17.265L17.2131 0C17.4432 0 17.6727 0.00461802 17.9017 0.0138029C22.2166 0.186906 26.3192 1.98213 29.3846 5.0568C32.6127 8.29461 34.4263 12.686 34.4263 17.265C34.4263 21.8439 32.6127 26.2353 29.3846 29.4732C26.3192 32.5478 22.2166 34.343 17.9017 34.5161C17.6727 34.5253 17.4431 34.5299 17.2131 34.5299L17.2131 17.265ZM17.9017 0.704978C22.0339 0.877675 25.9615 2.59998 28.8978 5.54512C31.9968 8.65342 33.7377 12.8692 33.7377 17.265C33.7377 21.6608 31.9967 25.8765 28.8978 28.9848C25.9615 31.93 22.0339 33.6523 17.9017 33.825L17.9017 0.704978Z" fill="white"/>
<path fill-rule="evenodd" clip-rule="evenodd" d="M65.0842 7.05794L63.9839 9.6684H62.8066L66.8344 0.531775L70.8623 9.6684H69.6849L68.5788 7.05794H65.0842ZM65.5088 6.06347H68.1634L66.8344 2.93091L65.5088 6.06347Z" fill="white"/>
<path d="M57.2685 7.03307C57.4668 7.38114 57.6734 7.68776 57.8882 7.95295C58.1113 8.21814 58.3592 8.42532 58.6318 8.57449C58.9045 8.72366 59.2143 8.79824 59.5613 8.79824C59.8753 8.79824 60.1438 8.74023 60.3669 8.62421C60.5982 8.50819 60.7759 8.34659 60.8998 8.13941C61.032 7.93223 61.0981 7.69605 61.0981 7.43086C61.0981 7.04136 61.0072 6.73059 60.8255 6.49855C60.6437 6.26651 60.4041 6.08005 60.1066 5.93916C59.8175 5.79 59.5076 5.6574 59.1771 5.54138C58.9623 5.46679 58.7227 5.37149 58.4583 5.25547C58.1939 5.13116 57.9419 4.97785 57.7023 4.79553C57.4627 4.60493 57.2644 4.37289 57.1074 4.09941C56.9587 3.82593 56.8843 3.4903 56.8843 3.09252C56.8843 2.66158 56.9917 2.27623 57.2066 1.93645C57.4214 1.59668 57.7188 1.33149 58.0989 1.14088C58.479 0.94199 58.9127 0.842544 59.4002 0.842544C59.8712 0.842544 60.2801 0.933703 60.6272 1.11602C60.9824 1.29005 61.284 1.51795 61.5319 1.79971C61.7798 2.07319 61.9739 2.36324 62.1144 2.66987L61.2097 3.19196C61.1022 2.97649 60.9659 2.76517 60.8007 2.55799C60.6354 2.35081 60.433 2.18093 60.1934 2.04833C59.9621 1.91574 59.677 1.84944 59.3382 1.84944C59.0243 1.84944 58.7681 1.9033 58.5699 2.01104C58.3716 2.11877 58.2228 2.25551 58.1237 2.42125C58.0328 2.587 57.9874 2.76517 57.9874 2.95578C57.9874 3.1381 58.0204 3.30798 58.0865 3.46544C58.1526 3.6229 58.26 3.77206 58.4087 3.91295C58.5657 4.05383 58.7723 4.19057 59.0284 4.32316C59.2928 4.45576 59.615 4.58835 59.9951 4.72095C60.2264 4.80382 60.4702 4.91155 60.7263 5.04415C60.9824 5.17674 61.2179 5.34663 61.4327 5.55381C61.6558 5.7527 61.8376 5.99718 61.9781 6.28723C62.1185 6.56899 62.1887 6.90877 62.1887 7.30655C62.1887 7.68776 62.1144 8.03168 61.9657 8.33831C61.8252 8.64493 61.6269 8.90598 61.3708 9.12144C61.1229 9.33691 60.8379 9.50266 60.5156 9.61868C60.2017 9.7347 59.8712 9.79271 59.5241 9.79271C59.0532 9.79271 58.6153 9.69326 58.2104 9.49437C57.8139 9.28719 57.4627 9.01786 57.157 8.68637C56.8596 8.34659 56.6158 7.9861 56.4258 7.60489L57.2685 7.03307Z" fill="white"/>
<path d="M49.1263 0.966852H50.1798V6.80932C50.1798 7.2071 50.25 7.55517 50.3905 7.85351C50.5392 8.15184 50.754 8.38389 51.0349 8.54963C51.3158 8.71537 51.6629 8.79824 52.076 8.79824C52.4891 8.79824 52.8361 8.71537 53.117 8.54963C53.3979 8.38389 53.6086 8.15184 53.7491 7.85351C53.8978 7.55517 53.9722 7.2071 53.9722 6.80932V0.966852H55.0256V6.80932C55.0256 7.24025 54.9554 7.63804 54.8149 8.00268C54.6827 8.36731 54.4844 8.68222 54.22 8.94741C53.9639 9.2126 53.6541 9.41978 53.2905 9.56895C52.927 9.71812 52.5221 9.79271 52.076 9.79271C51.6298 9.79271 51.225 9.71812 50.8614 9.56895C50.4979 9.41978 50.1839 9.2126 49.9195 8.94741C49.6634 8.68222 49.4651 8.36731 49.3246 8.00268C49.1924 7.63804 49.1263 7.24025 49.1263 6.80932V0.966852Z" fill="white"/>
<path d="M49.1883 13.3976H50.2417V22.0992H49.1883V13.3976Z" fill="white"/>
<path d="M59.8481 13.3976H58.7947V19.8741L52.2261 12.9626V22.0992H53.2796V15.6227L59.8481 22.5343V13.3976Z" fill="white"/>
<path d="M60.9684 14.3921V13.3976H66.4835V14.3921H64.2526V22.0992H63.1992V14.3921H60.9684Z" fill="white"/>
<path d="M72.5543 21.1047H68.6504V17.8727H72.3064V16.8783H68.6504V14.3921H72.5543V13.3976H67.5969V22.0992H72.5543V21.1047Z" fill="white"/>
<path fill-rule="evenodd" clip-rule="evenodd" d="M75.4644 18.6186H76.5205L78.9345 22.0992H80.2358L77.6509 18.5212C77.8677 18.4701 78.0725 18.399 78.2653 18.3078C78.7114 18.0923 79.0626 17.7898 79.3187 17.4003C79.5831 17.0026 79.7153 16.5385 79.7153 16.0081C79.7153 15.4694 79.5831 15.0053 79.3187 14.6158C79.0626 14.2264 78.7114 13.928 78.2653 13.7208C77.8274 13.5054 77.3275 13.3976 76.7657 13.3976H74.4109V22.0992H75.4644V18.6186ZM76.7657 14.3299H75.4644V17.6863H76.7657C77.1375 17.6863 77.4638 17.62 77.7448 17.4874C78.0339 17.3548 78.257 17.1642 78.414 16.9155C78.5792 16.6669 78.6619 16.3644 78.6619 16.0081C78.6619 15.6517 78.5792 15.3493 78.414 15.1006C78.257 14.852 78.0339 14.6614 77.7448 14.5288C77.4638 14.3962 77.1375 14.3299 76.7657 14.3299Z" fill="white"/>
<path d="M82.3994 13.3976H81.3459V22.0992H82.3994V13.3976Z" fill="white"/>
<path fill-rule="evenodd" clip-rule="evenodd" d="M83.888 17.7484C83.888 17.1103 83.9954 16.5219 84.2103 15.9832C84.4333 15.4363 84.7432 14.9639 85.1398 14.5661C85.5364 14.1601 86.0032 13.8451 86.5402 13.6214C87.0773 13.3893 87.6598 13.2733 88.2877 13.2733C88.9239 13.2733 89.5064 13.3893 90.0352 13.6214C90.5722 13.8451 91.039 14.1601 91.4356 14.5661C91.8322 14.9639 92.1379 15.4363 92.3528 15.9832C92.5758 16.5219 92.6874 17.1103 92.6874 17.7484C92.6874 18.3782 92.5758 18.9666 92.3528 19.5136C92.1379 20.0605 91.8322 20.537 91.4356 20.9431C91.039 21.3409 90.5722 21.6558 90.0352 21.8879C89.5064 22.1116 88.9239 22.2235 88.2877 22.2235C87.6598 22.2235 87.0773 22.1116 86.5402 21.8879C86.0032 21.6558 85.5364 21.3409 85.1398 20.9431C84.7432 20.537 84.4333 20.0605 84.2103 19.5136C83.9954 18.9666 83.888 18.3782 83.888 17.7484ZM85.0034 17.7484C85.0034 18.2374 85.0819 18.6931 85.2389 19.1158C85.4042 19.5302 85.6355 19.8906 85.9329 20.1973C86.2304 20.5039 86.5774 20.7442 86.974 20.9183C87.3789 21.084 87.8168 21.1669 88.2877 21.1669C88.7587 21.1669 89.1924 21.084 89.589 20.9183C89.9939 20.7442 90.345 20.5039 90.6425 20.1973C90.9399 19.8906 91.1671 19.5302 91.3241 19.1158C91.4893 18.6931 91.572 18.2374 91.572 17.7484C91.572 17.2595 91.4893 16.8078 91.3241 16.3934C91.1671 15.9708 90.9399 15.6062 90.6425 15.2995C90.345 14.9929 89.9939 14.7567 89.589 14.591C89.1924 14.417 88.7587 14.3299 88.2877 14.3299C87.8168 14.3299 87.3789 14.417 86.974 14.591C86.5774 14.7567 86.2304 14.9929 85.9329 15.2995C85.6355 15.6062 85.4042 15.9708 85.2389 16.3934C85.0819 16.8078 85.0034 17.2595 85.0034 17.7484Z" fill="white"/>
<path fill-rule="evenodd" clip-rule="evenodd" d="M96.2847 18.6186H95.2285V22.0992H94.1751V13.3976H96.5298C97.0917 13.3976 97.5915 13.5054 98.0294 13.7208C98.4756 13.928 98.8268 14.2264 99.0829 14.6158C99.3473 15.0053 99.4795 15.4694 99.4795 16.0081C99.4795 16.5385 99.3473 17.0026 99.0829 17.4003C98.8268 17.7898 98.4756 18.0923 98.0294 18.3078C97.8367 18.399 97.6319 18.4701 97.415 18.5212L100 22.0992H98.6987L96.2847 18.6186ZM95.2285 14.3299H96.5298C96.9016 14.3299 97.228 14.3962 97.5089 14.5288C97.7981 14.6614 98.0212 14.852 98.1782 15.1006C98.3434 15.3493 98.426 15.6517 98.426 16.0081C98.426 16.3644 98.3434 16.6669 98.1782 16.9155C98.0212 17.1642 97.7981 17.3548 97.5089 17.4874C97.228 17.62 96.9016 17.6863 96.5298 17.6863H95.2285V14.3299Z" fill="white"/>
<path fill-rule="evenodd" clip-rule="evenodd" d="M49.1883 25.8284H51.7909C52.4271 25.8284 53.0096 25.932 53.5384 26.1392C54.0672 26.3464 54.5216 26.6447 54.9017 27.0342C55.29 27.4154 55.5916 27.8754 55.8064 28.414C56.0212 28.9444 56.1286 29.5328 56.1286 30.1792C56.1286 30.8256 56.0212 31.4181 55.8064 31.9568C55.5916 32.4872 55.29 32.9471 54.9017 33.3366C54.5216 33.7178 54.0672 34.012 53.5384 34.2192C53.0096 34.4264 52.4271 34.53 51.7909 34.53H49.1883V25.8284ZM50.2417 33.4733V26.885H51.7909C52.2784 26.885 52.7246 26.9638 53.1294 27.1212C53.5343 27.2704 53.8813 27.49 54.1705 27.78C54.4596 28.0618 54.6827 28.4057 54.8397 28.8118C54.9967 29.2179 55.0752 29.6737 55.0752 30.1792C55.0752 30.6847 54.9967 31.1405 54.8397 31.5466C54.6827 31.9526 54.4596 32.3007 54.1705 32.5908C53.8813 32.8725 53.5343 33.0921 53.1294 33.2496C52.7246 33.3988 52.2784 33.4733 51.7909 33.4733H50.2417Z" fill="white"/>
<path d="M62.5694 33.5355H58.6654V30.3035H62.3215V29.309H58.6654V26.8229H62.5694V25.8284H57.612V34.53H62.5694V33.5355Z" fill="white"/>
<path d="M64.7482 31.8946C64.9465 32.2427 65.153 32.5493 65.3679 32.8145C65.5909 33.0797 65.8388 33.2869 66.1115 33.4361C66.3841 33.5852 66.694 33.6598 67.041 33.6598C67.3549 33.6598 67.6235 33.6018 67.8465 33.4858C68.0779 33.3698 68.2555 33.2082 68.3795 33.001C68.5117 32.7938 68.5778 32.5576 68.5778 32.2924C68.5778 31.9029 68.4869 31.5922 68.3051 31.3601C68.1233 31.1281 67.8837 30.9416 67.5863 30.8007C67.2971 30.6516 66.9873 30.519 66.6568 30.4029C66.4419 30.3284 66.2023 30.2331 65.938 30.117C65.6736 29.9927 65.4216 29.8394 65.182 29.6571C64.9423 29.4665 64.744 29.2344 64.5871 28.961C64.4383 28.6875 64.364 28.3519 64.364 27.9541C64.364 27.5231 64.4714 27.1378 64.6862 26.798C64.901 26.4582 65.1985 26.1931 65.5785 26.0024C65.9586 25.8036 66.3924 25.7041 66.8799 25.7041C67.3508 25.7041 67.7598 25.7953 68.1068 25.9776C68.4621 26.1516 68.7637 26.3795 69.0115 26.6613C69.2594 26.9348 69.4536 27.2248 69.594 27.5314L68.6893 28.0535C68.5819 27.8381 68.4456 27.6267 68.2803 27.4196C68.1151 27.2124 67.9126 27.0425 67.673 26.9099C67.4417 26.7773 67.1566 26.711 66.8179 26.711C66.5039 26.711 66.2478 26.7649 66.0495 26.8726C65.8512 26.9803 65.7025 27.1171 65.6033 27.2828C65.5124 27.4486 65.467 27.6267 65.467 27.8173C65.467 27.9997 65.5001 28.1695 65.5661 28.327C65.6322 28.4845 65.7397 28.6336 65.8884 28.7745C66.0454 28.9154 66.2519 29.0521 66.508 29.1847C66.7724 29.3173 67.0947 29.4499 67.4747 29.5825C67.7061 29.6654 67.9498 29.7731 68.206 29.9057C68.4621 30.0383 68.6976 30.2082 68.9124 30.4154C69.1355 30.6143 69.3172 30.8587 69.4577 31.1488C69.5982 31.4306 69.6684 31.7703 69.6684 32.1681C69.6684 32.5493 69.594 32.8932 69.4453 33.1999C69.3048 33.5065 69.1065 33.7675 68.8504 33.983C68.6025 34.1985 68.3175 34.3642 67.9953 34.4802C67.6813 34.5963 67.3508 34.6543 67.0038 34.6543C66.5328 34.6543 66.0949 34.5548 65.6901 34.3559C65.2935 34.1488 64.9423 33.8794 64.6366 33.5479C64.3392 33.2082 64.0955 32.8477 63.9054 32.4665L64.7482 31.8946Z" fill="white"/>
<path d="M72.2692 25.8284H71.2157V34.53H72.2692V25.8284Z" fill="white"/>
<path d="M78.2814 31.1115V30.117H82.3093C82.3093 30.722 82.2184 31.298 82.0367 31.8449C81.8549 32.3836 81.5864 32.8642 81.2311 33.2869C80.8758 33.7095 80.4379 34.0452 79.9174 34.2938C79.4051 34.5341 78.8185 34.6543 78.1575 34.6543C77.5296 34.6543 76.9471 34.5465 76.41 34.3311C75.873 34.1073 75.4062 33.7965 75.0096 33.3988C74.613 32.9927 74.3031 32.5162 74.0801 31.9692C73.8652 31.4223 73.7578 30.8256 73.7578 30.1792C73.7578 29.5328 73.8652 28.9361 74.0801 28.3892C74.3031 27.8422 74.613 27.3698 75.0096 26.972C75.4062 26.566 75.873 26.2552 76.41 26.0397C76.9471 25.816 77.5296 25.7041 78.1575 25.7041C78.6946 25.7041 79.1862 25.7745 79.6323 25.9154C80.0868 26.0563 80.4916 26.2635 80.8469 26.537C81.2104 26.8104 81.5161 27.1502 81.764 27.5563L81.0204 28.24C80.7477 27.7759 80.3677 27.4154 79.8802 27.1585C79.3927 26.8933 78.8185 26.7607 78.1575 26.7607C77.7031 26.7607 77.2734 26.8436 76.8686 27.0093C76.472 27.1751 76.125 27.4113 75.8275 27.7179C75.5301 28.0162 75.2946 28.3767 75.1211 28.7994C74.9559 29.2137 74.8732 29.6737 74.8732 30.1792C74.8732 30.6847 74.9559 31.1488 75.1211 31.5714C75.2946 31.9858 75.5301 32.3463 75.8275 32.6529C76.125 32.9513 76.472 33.1833 76.8686 33.349C77.2734 33.5148 77.7031 33.5977 78.1575 33.5977C78.5872 33.5977 78.9713 33.5355 79.3101 33.4112C79.6571 33.2786 79.9546 33.0963 80.2024 32.8642C80.4503 32.6322 80.6527 32.367 80.8097 32.0687C80.975 31.7703 81.0948 31.4513 81.1691 31.1115H78.2814Z" fill="white"/>
<path d="M91.4853 25.8284H90.4319V32.3049L83.8633 25.3933V34.53H84.9168V28.0535L91.4853 34.965V25.8284Z" fill="white"/>
</svg>
