<svg width="164" height="167" viewBox="0 0 164 167" fill="none" xmlns="http://www.w3.org/2000/svg">
<path d="M24.46 124.753L25.2464 126.005L13.0048 128.841L12.2305 127.608L19.9232 117.529L20.7096 118.781L14.1703 127.164L14.2187 127.241L24.46 124.753ZM20.2762 126.813L17.1065 121.766L18.1772 121.072L21.3469 126.119L20.2762 126.813Z" fill="black"/>
<path d="M19.1273 115.706L9.56041 123.481L8.99946 122.158L16.8538 115.973L16.8092 115.868L7.03172 117.517L6.40844 116.047L14.2449 109.82L14.2004 109.715L4.44069 111.406L3.87975 110.083L15.9397 108.188L16.5095 109.532L8.89875 115.758L8.93436 115.842L18.5574 114.362L19.1273 115.706Z" fill="black"/>
<path d="M14.94 104.851L15.2968 106.295L2.87124 105.211L2.51985 103.789L12.8811 96.5187L13.238 97.9629L4.48704 103.967L4.509 104.056L14.94 104.851ZM10.3576 105.526L8.91917 99.7046L10.1431 99.3723L11.5815 105.194L10.3576 105.526Z" fill="black"/>
<path d="M12.6932 94.5538L1.00027 95.8296L0.664364 91.8695C0.586698 90.9539 0.679001 90.1852 0.94128 89.5637C1.19975 88.9425 1.58727 88.4612 2.10382 88.1199C2.62036 87.7786 3.2231 87.5704 3.91204 87.4952C4.60097 87.4201 5.22386 87.4946 5.78068 87.7188C6.33751 87.9429 6.79293 88.3303 7.14695 88.8808C7.49715 89.4317 7.71076 90.1611 7.78778 91.0692L8.05962 94.2739L6.7807 94.4135L6.51275 91.2545C6.45968 90.6288 6.32562 90.1352 6.11056 89.7736C5.89517 89.4082 5.61272 89.1579 5.2632 89.0228C4.90956 88.8842 4.49864 88.8405 4.03047 88.8916C3.5623 88.9427 3.16057 89.0751 2.82528 89.2888C2.48999 89.5025 2.24353 89.8124 2.0859 90.2185C1.92446 90.625 1.8706 91.1449 1.92432 91.7782L2.13596 94.2734L12.5728 93.1346L12.6932 94.5538ZM6.97256 89.6102L11.9806 86.1528L12.1204 87.801L7.10848 91.2126L6.97256 89.6102Z" fill="black"/>
<path d="M12.252 80.4147L11.9905 84.0486L0.286063 83.4752L0.559115 79.6804C0.641306 78.5381 0.945954 77.5721 1.47306 76.7825C1.99636 75.9926 2.70984 75.4025 3.61351 75.0121C4.51336 74.6215 5.56909 74.4558 6.78068 74.5152C7.9999 74.5749 9.03384 74.8448 9.88252 75.3249C10.7274 75.8048 11.356 76.4742 11.7683 77.3329C12.1768 78.1915 12.338 79.2188 12.252 80.4147ZM10.8358 82.5611L10.9881 80.4451C11.0581 79.4715 10.9295 78.6555 10.6022 77.9971C10.2748 77.3386 9.77767 76.8354 9.11066 76.4873C8.44366 76.1392 7.6339 75.9418 6.68139 75.8951C5.7365 75.8488 4.9119 75.9642 4.20756 76.2413C3.49941 76.5182 2.94024 76.9563 2.53007 77.5555C2.11609 78.1545 1.876 78.914 1.80981 79.834L1.64598 82.1109L10.8358 82.5611Z" fill="black"/>
<path d="M15.9471 61.3428L3.86802 60.1725L4.41223 58.8163L14.1894 59.9206L14.2326 59.813L6.32124 54.0587L6.92591 52.5518L16.7204 53.6131L16.7636 53.5055L8.83492 47.7943L9.37912 46.4381L19.0396 53.636L18.4867 55.0137L8.84877 54.1121L8.81422 54.1982L16.5 59.965L15.9471 61.3428Z" fill="black"/>
<path d="M12.6517 41.2864L22.6958 47.1433L21.9609 48.3823L11.9168 42.5254L12.6517 41.2864Z" fill="black"/>
<path d="M22.933 27.1015L31.9041 34.4868L31.0176 35.5637L19.8514 34.7727L19.7776 34.8624L26.8213 40.661L25.9052 41.7738L16.9341 34.3885L17.8206 33.3116L29.0191 34.0991L29.0929 34.0094L22.0317 28.1963L22.933 27.1015Z" fill="black"/>
<path d="M32.7591 18.2639L40.4363 26.9958L39.3962 27.9241L28.532 25.3845L28.4454 25.4619L34.4731 32.3178L33.3984 33.277L25.7212 24.5451L26.7613 23.6168L37.6578 26.158L37.7445 26.0806L31.7017 19.2076L32.7591 18.2639Z" fill="black"/>
<path d="M39.9778 13.3184L46.172 23.1819L44.9651 23.9639L38.7708 14.1003L39.9778 13.3184Z" fill="black"/>
<path d="M55.5367 5.37374L60.0955 16.1261L58.8283 16.6927L49.3565 10.8852L49.2509 10.9324L52.8302 19.3747L51.5208 19.9602L46.962 9.20783L48.2292 8.64122L57.731 14.4603L57.8366 14.4131L54.2484 5.9498L55.5367 5.37374Z" fill="black"/>
<path d="M67.7935 5.60439C67.5787 5.26359 67.3346 4.97225 67.0611 4.73037C66.7904 4.48378 66.4917 4.2922 66.1651 4.15564C65.8422 4.01807 65.4946 3.94056 65.1222 3.92311C64.7499 3.90567 64.3578 3.95284 63.9462 4.06462C63.2712 4.24789 62.7004 4.58861 62.2338 5.08676C61.7672 5.58491 61.4544 6.21713 61.2955 6.98344C61.1366 7.74975 61.1788 8.62543 61.4222 9.61049C61.6656 10.5956 62.0361 11.3821 62.5336 11.9702C63.0312 12.5583 63.6048 12.9498 64.2546 13.1448C64.9043 13.3399 65.5815 13.3417 66.2862 13.1504C66.939 12.9732 67.4795 12.6782 67.9079 12.2655C68.339 11.8481 68.6305 11.3462 68.7824 10.7596C68.9371 10.1683 68.9284 9.52455 68.7564 8.82834L69.2011 8.80242L65.7742 9.7329L65.4722 8.51084L69.8115 7.33263L70.1135 8.55469C70.345 9.49161 70.346 10.3607 70.1166 11.162C69.8909 11.9622 69.4747 12.6482 68.8679 13.22C68.264 13.787 67.5096 14.1934 66.6047 14.4391C65.5959 14.713 64.6509 14.7167 63.7698 14.4501C62.8923 14.1826 62.1324 13.6697 61.4899 12.9115C60.8512 12.1524 60.3835 11.1729 60.0871 9.97302C59.8647 9.07314 59.7853 8.23125 59.8488 7.44737C59.9152 6.65877 60.1082 5.95039 60.4279 5.3222C60.7476 4.69402 61.1782 4.16218 61.7196 3.72669C62.261 3.29121 62.8971 2.97427 63.6277 2.77589C64.2285 2.61275 64.811 2.55142 65.3751 2.5919C65.9419 2.62767 66.4701 2.75496 66.9595 2.97377C67.4517 3.18788 67.8913 3.48542 68.2783 3.8664C68.6644 4.24368 68.9775 4.6941 69.2177 5.21769L67.7935 5.60439Z" fill="black"/>
<path d="M84.9344 11.8747L83.4485 11.8019L88.5935 0.236908L90.0566 0.308574L93.507 12.2946L92.0211 12.2218L89.2367 2.1379L89.1453 2.13342L84.9344 11.8747ZM85.8141 7.30174L91.8034 7.59513L91.7124 8.86008L85.723 8.56668L85.8141 7.30174Z" fill="black"/>
<path d="M104.647 6.29968C104.612 5.89438 104.529 5.52029 104.398 5.17741C104.271 4.83156 104.095 4.52256 103.869 4.25041C103.647 3.97904 103.376 3.75055 103.056 3.56494C102.736 3.37933 102.37 3.24301 101.957 3.15599C101.28 3.0133 100.623 3.06013 99.9872 3.29645C99.3513 3.53278 98.7902 3.96019 98.3039 4.57869C97.8176 5.19719 97.459 6.00609 97.228 7.0054C96.997 8.0047 96.9675 8.88298 97.1397 9.64025C97.3119 10.3975 97.6398 11.0123 98.1236 11.4846C98.6074 11.9569 99.2028 12.2675 99.9095 12.4165C100.564 12.5545 101.173 12.5351 101.737 12.3584C102.305 12.1787 102.789 11.8591 103.188 11.3994C103.591 10.9368 103.874 10.3524 104.038 9.64609L104.441 9.82563L101.004 9.10124L101.29 7.8615L105.643 8.77875L105.356 10.0185C105.136 10.9689 104.744 11.7531 104.18 12.371C103.62 12.9896 102.943 13.4183 102.151 13.6571C101.363 13.8929 100.515 13.9151 99.6073 13.7238C98.5955 13.5106 97.762 13.0828 97.1068 12.4404C96.4554 11.7988 96.0183 10.9897 95.7954 10.0129C95.5763 9.03694 95.6074 7.94036 95.8888 6.72317C96.0998 5.81027 96.4105 5.01489 96.8207 4.33703C97.2356 3.6562 97.7257 3.10549 98.2911 2.68488C98.8565 2.26428 99.4759 1.98114 100.149 1.83547C100.823 1.6898 101.526 1.69418 102.259 1.84863C102.861 1.97563 103.402 2.18605 103.88 2.47989C104.363 2.77076 104.77 3.12649 105.102 3.54708C105.439 3.96469 105.691 4.43355 105.86 4.95365C106.029 5.46999 106.101 6.01902 106.076 6.60073L104.647 6.29968Z" fill="black"/>
<path d="M106.516 15.3652L110.938 4.34316L117.498 6.86833L117.023 8.05234L111.779 6.03383L110.285 9.75806L115.189 11.6458L114.714 12.8298L109.81 10.9421L108.307 14.6878L113.636 16.739L113.161 17.923L106.516 15.3652Z" fill="black"/>
<path d="M129.991 13.6355L123.922 23.8672L122.745 23.1809L122.036 11.9558L121.938 11.8986L117.174 19.9322L115.957 19.2229L122.026 8.99118L123.203 9.67753L123.919 20.934L124.017 20.9912L128.794 12.9377L129.991 13.6355Z" fill="black"/>
<path d="M137.831 24.2069L136.744 23.3126C136.943 22.9397 137.062 22.5659 137.101 22.1914C137.143 21.8193 137.118 21.4572 137.026 21.1051C136.939 20.7525 136.792 20.4213 136.587 20.1116C136.381 19.8018 136.129 19.5244 135.832 19.2791C135.288 18.832 134.681 18.5675 134.008 18.4857C133.339 18.4063 132.649 18.5333 131.938 18.8667C131.23 19.2026 130.549 19.7684 129.894 20.5641C129.239 21.3598 128.815 22.1372 128.621 22.8962C128.43 23.6575 128.438 24.3591 128.645 25.0009C128.854 25.6451 129.23 26.1908 129.774 26.638C130.071 26.8832 130.392 27.0769 130.736 27.2191C131.079 27.3614 131.431 27.4428 131.791 27.4634C132.157 27.4834 132.518 27.4371 132.875 27.3246C133.238 27.2116 133.582 27.0229 133.907 26.7587L134.994 27.653C134.525 28.0554 134.03 28.3531 133.509 28.5461C132.987 28.7391 132.459 28.8335 131.923 28.8293C131.39 28.8222 130.868 28.7212 130.357 28.5264C129.85 28.3341 129.369 28.0516 128.917 27.679C128.151 27.0491 127.629 26.2975 127.348 25.4242C127.068 24.5509 127.047 23.6206 127.287 22.6333C127.526 21.6461 128.045 20.6679 128.843 19.6986C129.641 18.7294 130.501 18.0325 131.424 17.6078C132.347 17.1831 133.264 17.0245 134.175 17.132C135.085 17.2396 135.923 17.6083 136.689 18.2381C137.141 18.6108 137.511 19.0279 137.797 19.4894C138.086 19.9534 138.284 20.4477 138.391 20.9724C138.501 21.4941 138.511 22.0294 138.422 22.5782C138.335 23.1241 138.138 23.667 137.831 24.2069Z" fill="black"/>
<path d="M142.182 23.691L143.246 24.9018L141.232 31.0211L141.322 31.1235L147.595 29.8477L148.659 31.0586L140.668 32.5602L137.01 35.8246L136.08 34.7672L139.738 31.5028L142.182 23.691Z" fill="black"/>
<path d="M157.859 65.4396L156.636 65.7719L155.406 60.7948L156.63 60.4624L157.859 65.4396Z" fill="black"/>
<path d="M159.914 102.112C160.495 102.163 160.997 101.982 161.421 101.567C161.844 101.152 162.137 100.595 162.298 99.8959C162.416 99.3849 162.438 98.9206 162.363 98.503C162.287 98.089 162.13 97.7448 161.894 97.4703C161.656 97.1996 161.355 97.0258 160.99 96.9489C160.685 96.8847 160.406 96.9026 160.152 97.0029C159.902 97.1077 159.677 97.2613 159.478 97.4636C159.283 97.6667 159.109 97.8862 158.957 98.1221C158.809 98.3588 158.682 98.5783 158.577 98.7806L157.993 99.8869C157.846 100.171 157.661 100.483 157.438 100.822C157.214 101.165 156.944 101.48 156.628 101.768C156.315 102.061 155.948 102.279 155.529 102.423C155.109 102.567 154.632 102.582 154.096 102.47C153.479 102.339 152.958 102.058 152.535 101.626C152.112 101.198 151.825 100.641 151.675 99.9559C151.525 99.2741 151.552 98.4899 151.757 97.6033C151.948 96.7768 152.245 96.089 152.649 95.5398C153.052 94.9944 153.53 94.5986 154.082 94.3526C154.634 94.1103 155.227 94.0324 155.863 94.1191L155.529 95.5617C155.089 95.5083 154.698 95.5796 154.356 95.7754C154.017 95.9759 153.733 96.2588 153.504 96.6243C153.278 96.9942 153.113 97.4084 153.007 97.8667C152.883 98.4002 152.858 98.8972 152.931 99.3578C153.008 99.8192 153.172 100.206 153.423 100.519C153.678 100.833 154.014 101.034 154.431 101.122C154.81 101.202 155.144 101.16 155.432 100.996C155.719 100.832 155.978 100.591 156.207 100.273C156.437 99.9548 156.654 99.6047 156.86 99.2225L157.59 97.8871C158.055 97.0395 158.586 96.403 159.184 95.9774C159.782 95.5518 160.466 95.4201 161.236 95.5824C161.875 95.7172 162.393 96.0095 162.788 96.4592C163.187 96.9135 163.449 97.4653 163.576 98.1145C163.706 98.7683 163.686 99.4633 163.516 100.2C163.344 100.944 163.059 101.577 162.661 102.1C162.267 102.623 161.804 103.006 161.272 103.249C160.739 103.495 160.182 103.567 159.601 103.464L159.914 102.112Z" fill="black"/>
<path d="M159.19 113.224L148.32 109.04L148.855 107.706L159.725 111.89L159.19 113.224Z" fill="black"/>
<path d="M151.036 128.732L140.992 122.875L141.703 121.676L152.896 120.699L152.955 120.599L145.069 116L145.804 114.761L155.848 120.618L155.137 121.817L143.912 122.803L143.853 122.903L151.759 127.513L151.036 128.732Z" fill="black"/>
<path d="M140.265 136.648L141.181 135.535C141.548 135.727 141.917 135.838 142.289 135.868C142.659 135.901 143.02 135.867 143.372 135.766C143.726 135.67 144.059 135.515 144.372 135.301C144.685 135.088 144.967 134.828 145.219 134.523C145.677 133.967 145.954 133.35 146.052 132.672C146.147 131.997 146.036 131.307 145.721 130.601C145.403 129.897 144.856 129.226 144.079 128.587C143.303 127.947 142.539 127.539 141.788 127.362C141.034 127.189 140.335 127.213 139.691 127.436C139.045 127.662 138.493 128.053 138.035 128.609C137.784 128.914 137.583 129.241 137.433 129.589C137.284 129.938 137.194 130.293 137.165 130.656C137.137 131.024 137.174 131.386 137.278 131.742C137.382 132.104 137.562 132.445 137.817 132.766L136.901 133.879C136.511 133.417 136.227 132.927 136.047 132.408C135.867 131.888 135.785 131.359 135.802 130.821C135.822 130.285 135.935 129.758 136.141 129.24C136.344 128.725 136.637 128.236 137.018 127.772C137.664 126.989 138.424 126.445 139.301 126.143C140.177 125.84 141.103 125.798 142.081 126.015C143.058 126.233 144.02 126.731 144.966 127.51C145.912 128.289 146.586 129.137 146.987 130.054C147.388 130.971 147.524 131.889 147.396 132.807C147.267 133.725 146.88 134.576 146.235 135.36C145.853 135.823 145.429 136.204 144.963 136.503C144.494 136.805 143.997 137.015 143.472 137.135C142.95 137.258 142.417 137.28 141.873 137.204C141.331 137.129 140.795 136.944 140.265 136.648Z" fill="black"/>
<path d="M131.885 133.536L139.562 142.268L134.205 147.048L133.381 146.11L137.662 142.289L135.068 139.339L131.064 142.912L130.239 141.974L134.244 138.401L131.635 135.433L127.284 139.316L126.459 138.378L131.885 133.536Z" fill="black"/>
<path d="M113.505 146.679L113.906 147.624L111.984 153.105C111.758 153.747 111.58 154.297 111.452 154.754C111.325 155.215 111.259 155.623 111.255 155.979C111.249 156.34 111.315 156.685 111.455 157.014C111.615 157.392 111.845 157.678 112.146 157.873C112.443 158.069 112.779 158.172 113.157 158.183C113.534 158.193 113.918 158.111 114.308 157.936C114.724 157.751 115.05 157.503 115.287 157.193C115.522 156.888 115.659 156.545 115.699 156.165C115.735 155.787 115.667 155.393 115.493 154.983L116.739 154.426C117.006 155.056 117.095 155.674 117.004 156.281C116.914 156.888 116.674 157.437 116.283 157.928C115.889 158.42 115.377 158.808 114.747 159.089C114.113 159.373 113.495 159.491 112.893 159.443C112.291 159.396 111.755 159.209 111.286 158.882C110.816 158.555 110.464 158.114 110.23 157.561C110.062 157.166 109.971 156.747 109.955 156.304C109.937 155.867 110.006 155.338 110.162 154.719C110.316 154.105 110.562 153.328 110.901 152.39L112.235 148.721L112.199 148.637L107.173 150.884L106.683 149.729L113.505 146.679Z" fill="black"/>
<path d="M99.5142 151.744C100.352 151.516 101.123 151.55 101.825 151.846C102.528 152.145 103.143 152.687 103.669 153.473C104.197 154.262 104.614 155.275 104.919 156.512C105.223 157.742 105.327 158.834 105.23 159.789C105.131 160.748 104.843 161.538 104.367 162.157C103.888 162.781 103.233 163.206 102.402 163.431C101.571 163.657 100.804 163.618 100.1 163.316C99.393 163.017 98.7758 162.474 98.2483 161.684C97.718 160.9 97.301 159.893 96.9972 158.663C96.6915 157.426 96.5865 156.329 96.6821 155.37C96.7786 154.415 97.065 153.628 97.5412 153.009C98.0184 152.393 98.676 151.972 99.5142 151.744ZM99.8162 152.966C98.9854 153.192 98.4389 153.767 98.1767 154.692C97.9144 155.616 97.9663 156.819 98.3323 158.301C98.5757 159.286 98.8887 160.096 99.2712 160.731C99.65 161.367 100.081 161.813 100.564 162.069C101.043 162.327 101.557 162.381 102.106 162.232C102.929 162.008 103.472 161.428 103.735 160.491C104 159.558 103.949 158.352 103.584 156.875C103.341 155.89 103.03 155.081 102.652 154.449C102.274 153.816 101.846 153.373 101.368 153.12C100.886 152.867 100.369 152.816 99.8162 152.966Z" fill="black"/>
<path d="M92.2307 153.515L92.3181 154.545L88.8177 159.201C88.4068 159.747 88.0704 160.219 87.8083 160.617C87.5466 161.019 87.3591 161.39 87.2458 161.729C87.129 162.073 87.0858 162.425 87.1162 162.783C87.1512 163.195 87.2804 163.541 87.5039 163.821C87.7236 164.101 88.0098 164.305 88.3624 164.432C88.7151 164.559 89.1027 164.599 89.5252 164.553C89.9743 164.504 90.3584 164.368 90.6775 164.145C90.9932 163.925 91.2282 163.64 91.3828 163.288C91.5335 162.937 91.59 162.538 91.5521 162.091L92.8995 161.944C92.9578 162.631 92.8509 163.251 92.579 163.804C92.3071 164.358 91.9113 164.809 91.3916 165.158C90.8681 165.508 90.2657 165.72 89.5844 165.794C88.8992 165.869 88.2798 165.791 87.7262 165.558C87.1725 165.326 86.7245 164.98 86.382 164.521C86.0396 164.062 85.8428 163.531 85.7917 162.928C85.7551 162.497 85.7973 162.066 85.9184 161.637C86.0361 161.213 86.2639 160.728 86.6018 160.182C86.9362 159.642 87.4078 158.974 88.0165 158.18L90.404 155.078L90.3963 154.986L84.9609 155.579L84.8541 154.32L92.2307 153.515Z" fill="black"/>
<path d="M81.1174 154.365L81.043 155.4L76.8734 159.466C76.3842 159.942 75.9796 160.357 75.6598 160.71C75.3397 161.068 75.0974 161.406 74.933 161.725C74.7645 162.047 74.6672 162.389 74.6413 162.749C74.6115 163.163 74.6848 163.526 74.8611 163.839C75.0337 164.151 75.2835 164.398 75.6108 164.58C75.938 164.761 76.3131 164.862 76.736 164.883C77.1856 164.905 77.5848 164.83 77.9336 164.659C78.2783 164.491 78.5541 164.245 78.761 163.92C78.964 163.596 79.0817 163.209 79.114 162.76L80.4627 162.827C80.4131 163.517 80.2114 164.114 79.8576 164.62C79.5039 165.126 79.0441 165.511 78.4783 165.776C77.9087 166.04 77.2829 166.156 76.6009 166.122C75.9151 166.089 75.3179 165.913 74.8092 165.596C74.3006 165.279 73.9136 164.866 73.6482 164.356C73.3828 163.847 73.2719 163.29 73.3154 162.684C73.3466 162.251 73.4552 161.831 73.6412 161.425C73.8231 161.022 74.1228 160.577 74.5402 160.09C74.9535 159.606 75.5215 159.019 76.2442 158.327L79.0767 155.627L79.0833 155.535L73.6425 155.268L73.7336 154.003L81.1174 154.365Z" fill="black"/>
<path d="M41.2031 148.539L41.855 147.44L46.2493 150.003L45.5973 151.102L41.2031 148.539Z" fill="black"/>
</svg>
