<svg width="34" height="38" viewBox="0 0 34 38" fill="none" xmlns="http://www.w3.org/2000/svg">
<path fill-rule="evenodd" clip-rule="evenodd" d="M33.363 31.4385C29.8792 35.4578 24.7365 38 19 38C8.50659 38 0 29.4934 0 19C0 8.50659 8.50659 0 19 0C24.7364 0 29.879 2.54213 33.3628 6.56127L27.8911 11.2998C25.7345 8.81185 22.551 7.23818 19 7.23818C12.5041 7.23818 7.23807 12.5042 7.23807 19.0001C7.23807 25.496 12.5041 30.762 19 30.762C22.5512 30.762 25.7348 29.1882 27.8914 26.7L33.363 31.4385Z" fill="white"/>
<ellipse cx="19" cy="19.0003" rx="6.33333" ry="6.33333" fill="#EF2B10"/>
</svg>
