<?xml version="1.0" encoding="utf-8"?>
<!-- Generator: Adobe Illustrator 24.2.0, SVG Export Plug-In . SVG Version: 6.00 Build 0)  -->
<svg version="1.1" id="Layer_1" xmlns="http://www.w3.org/2000/svg" xmlns:xlink="http://www.w3.org/1999/xlink" x="0px" y="0px"
	 viewBox="0 0 54 52" style="enable-background:new 0 0 54 52;" xml:space="preserve">
<style type="text/css">
	.st0{fill:#0F1319;}
</style>
<path class="st0" d="M17.8,41.9c0,0.2-0.2,0.4-0.6,0.4c-0.4,0-0.6-0.1-0.6-0.4c0-0.2,0.2-0.4,0.6-0.4C17.6,41.5,17.8,41.6,17.8,41.9
	z M14.5,41.4c-0.1,0.2,0.1,0.5,0.5,0.5c0.3,0.1,0.6,0,0.7-0.2c0.1-0.2-0.1-0.5-0.5-0.6C14.9,41.1,14.6,41.2,14.5,41.4z M19.3,41.2
	c-0.3,0.1-0.5,0.3-0.5,0.5c0,0.2,0.3,0.4,0.6,0.3c0.3-0.1,0.5-0.3,0.5-0.5C19.9,41.3,19.6,41.2,19.3,41.2z M26.3,0
	C11.4,0,0,11.3,0,26.2C0,38.2,7.5,48.4,18.2,52c1.4,0.2,1.9-0.6,1.9-1.3c0-0.7,0-4.3,0-6.6c0,0-7.5,1.6-9.1-3.2c0,0-1.2-3.1-3-3.9
	c0,0-2.5-1.7,0.2-1.7c0,0,2.7,0.2,4.2,2.8c2.4,4.2,6.3,3,7.8,2.2c0.2-1.7,0.9-2.9,1.7-3.6c-6-0.7-12.1-1.5-12.1-11.9
	c0-3,0.8-4.4,2.5-6.3c-0.3-0.7-1.2-3.6,0.3-7.3C14.8,10.4,20,14,20,14c2.2-0.6,4.5-0.9,6.8-0.9c2.3,0,4.6,0.3,6.8,0.9
	c0,0,5.2-3.6,7.4-2.9c1.5,3.7,0.6,6.6,0.3,7.3c1.7,1.9,2.8,3.4,2.8,6.3c0,10.4-6.3,11.2-12.4,11.9c1,0.8,1.8,2.5,1.8,5
	c0,3.6,0,8.1,0,9c0,0.7,0.5,1.5,1.9,1.3c10.8-3.6,18.1-13.8,18.1-25.7C53.4,11.3,41.3,0,26.3,0z M10.5,37.1
	c-0.1,0.1-0.1,0.4,0.1,0.6c0.2,0.2,0.4,0.2,0.6,0.1c0.1-0.1,0.1-0.4-0.1-0.6C10.8,37,10.6,36.9,10.5,37.1z M9.3,36.2
	c-0.1,0.1,0,0.3,0.2,0.4c0.2,0.1,0.4,0.1,0.5-0.1c0.1-0.1,0-0.3-0.2-0.4C9.5,36.1,9.4,36.1,9.3,36.2z M12.8,40
	c-0.2,0.1-0.1,0.5,0.1,0.7c0.2,0.2,0.6,0.3,0.7,0.1c0.1-0.1,0.1-0.5-0.1-0.7C13.2,39.9,12.9,39.9,12.8,40z M11.6,38.5
	c-0.2,0.1-0.2,0.4,0,0.6c0.2,0.2,0.5,0.4,0.6,0.2c0.2-0.1,0.2-0.4,0-0.7C12,38.4,11.7,38.3,11.6,38.5z"/>
</svg>
