<svg width="1440" height="395" viewBox="0 0 1440 395" fill="none" xmlns="http://www.w3.org/2000/svg">
<path d="M-4.54186 227.17C-8.17905 229.679 -9.0941 234.661 -6.5857 238.298C-4.0773 241.935 0.904681 242.85 4.54186 240.342L-4.54186 227.17ZM320 67.7561L322.404 75.3863L320 67.7561ZM670 27L662.177 28.6743L670 27ZM484 193L479.505 186.382L484 193ZM732 167.756L729.044 160.322L732 167.756ZM1180 101.756L1180.86 93.8029L1180 101.756ZM4.54186 240.342C62.3708 200.46 206.774 111.818 322.404 75.3863L317.596 60.1259C199.626 97.2946 53.6292 187.052 -4.54186 227.17L4.54186 240.342ZM322.404 75.3863C395.112 52.4783 479.881 31.6738 547.444 21.9452C581.303 17.0697 610.377 15.0469 631.315 16.7589C641.832 17.6188 649.7 19.38 654.965 21.8038C660.159 24.195 661.749 26.6748 662.177 28.6743L677.823 25.3257C675.953 16.591 669.446 10.8563 661.656 7.27018C653.938 3.71672 643.939 1.73771 632.619 0.812111C609.883 -1.0469 579.406 1.17786 545.164 6.10849C476.524 15.9921 390.888 37.0339 317.596 60.1259L322.404 75.3863ZM662.177 28.6743C665.765 45.4358 663.06 58.5176 655.811 70.1083C648.329 82.0725 635.678 92.9694 618.358 104.347C601.059 115.711 579.997 127.002 556.156 140.201C532.455 153.323 506.319 168.169 479.505 186.382L488.495 199.618C514.681 181.831 540.295 167.271 563.906 154.199C587.378 141.204 609.191 129.512 627.142 117.72C645.072 105.942 660.046 93.5114 669.377 78.5921C678.94 63.2995 682.235 45.9422 677.823 25.3257L662.177 28.6743ZM479.505 186.382C444.742 209.995 409.239 244.387 393.777 273.7C386.244 287.981 382.059 303.786 389.238 316.527C396.545 329.494 413.112 335 436 335V319C414.245 319 405.936 313.567 403.178 308.673C400.293 303.552 400.856 294.573 407.929 281.165C421.678 255.1 454.819 222.492 488.495 199.618L479.505 186.382ZM436 335C493.926 335 528.299 310.095 567.994 278.378C607.524 246.793 653.189 207.7 734.956 175.19L729.044 160.322C644.811 193.813 597.476 234.341 558.006 265.878C518.701 297.283 488.074 319 436 319V335ZM734.956 175.19C830.219 137.314 996.903 89.9014 1179.14 109.709L1180.86 93.8029C995.097 73.6108 825.665 121.907 729.044 160.322L734.956 175.19ZM1179.14 109.709C1325.47 125.615 1401.88 156.04 1441.02 174.959L1447.98 160.553C1407.12 140.805 1328.93 109.897 1180.86 93.8029L1179.14 109.709Z" fill="#85EE00"/>
<path d="M-4.54186 243.011C-8.17905 245.519 -9.0941 250.501 -6.5857 254.138C-4.0773 257.775 0.904681 258.691 4.54186 256.182L-4.54186 243.011ZM320 83.5964L322.404 91.2266L320 83.5964ZM670 42.8403L662.177 44.5146L670 42.8403ZM484 208.84L479.505 202.223L484 208.84ZM732 183.596L729.044 176.162L732 183.596ZM1180 117.596L1180.86 109.643L1180 117.596ZM4.54186 256.182C62.3708 216.3 206.774 127.658 322.404 91.2266L317.596 75.9662C199.626 113.135 53.6292 202.893 -4.54186 243.011L4.54186 256.182ZM322.404 91.2266C395.112 68.3186 479.881 47.5141 547.444 37.7855C581.303 32.91 610.377 30.8872 631.315 32.5992C641.832 33.4591 649.7 35.2203 654.965 37.6441C660.159 40.0353 661.749 42.5151 662.177 44.5146L677.823 41.166C675.953 32.4313 669.446 26.6966 661.656 23.1105C653.938 19.557 643.939 17.578 632.619 16.6524C609.883 14.7934 579.406 17.0182 545.164 21.9488C476.524 31.8324 390.888 52.8742 317.596 75.9662L322.404 91.2266ZM662.177 44.5146C665.765 61.2761 663.06 74.3579 655.811 85.9486C648.329 97.9128 635.678 108.81 618.358 120.187C601.059 131.551 579.997 142.842 556.156 156.041C532.455 169.163 506.319 184.01 479.505 202.223L488.495 215.458C514.681 197.671 540.295 183.112 563.906 170.039C587.378 157.044 609.191 145.352 627.142 133.56C645.072 121.783 660.046 109.352 669.377 94.4324C678.94 79.1398 682.235 61.7825 677.823 41.166L662.177 44.5146ZM479.505 202.223C444.742 225.835 409.239 260.228 393.777 289.541C386.244 303.821 382.059 319.626 389.238 332.367C396.545 345.334 413.112 350.84 436 350.84V334.84C414.245 334.84 405.936 329.407 403.178 324.513C400.293 319.393 400.856 310.414 407.929 297.006C421.678 270.94 454.819 238.333 488.495 215.458L479.505 202.223ZM436 350.84C493.926 350.84 528.299 325.935 567.994 294.218C607.524 262.633 653.189 223.54 734.956 191.03L729.044 176.162C644.811 209.653 597.476 250.181 558.006 281.718C518.701 313.124 488.074 334.84 436 334.84V350.84ZM734.956 191.03C830.219 153.155 996.903 105.742 1179.14 125.55L1180.86 109.643C995.097 89.4511 825.665 137.747 729.044 176.162L734.956 191.03ZM1179.14 125.55C1325.47 141.455 1401.88 171.881 1441.02 190.799L1447.98 176.394C1407.12 156.646 1328.93 125.738 1180.86 109.643L1179.14 125.55Z" fill="#A8FC3D"/>
<path d="M-4.54186 258.011C-8.17905 260.519 -9.0941 265.501 -6.5857 269.138C-4.0773 272.775 0.904681 273.691 4.54186 271.182L-4.54186 258.011ZM320 98.5964L322.404 106.227L320 98.5964ZM670 57.8403L662.177 59.5146L670 57.8403ZM484 223.84L479.505 217.223L484 223.84ZM732 198.596L729.044 191.162L732 198.596ZM1180 132.596L1180.86 124.643L1180 132.596ZM4.54186 271.182C62.3708 231.3 206.774 142.658 322.404 106.227L317.596 90.9662C199.626 128.135 53.6292 217.893 -4.54186 258.011L4.54186 271.182ZM322.404 106.227C395.112 83.3186 479.881 62.5141 547.444 52.7855C581.303 47.91 610.377 45.8872 631.315 47.5992C641.832 48.4591 649.7 50.2203 654.965 52.6441C660.159 55.0353 661.749 57.5151 662.177 59.5146L677.823 56.166C675.953 47.4313 669.446 41.6966 661.656 38.1105C653.938 34.557 643.939 32.578 632.619 31.6524C609.883 29.7934 579.406 32.0182 545.164 36.9488C476.524 46.8324 390.888 67.8742 317.596 90.9662L322.404 106.227ZM662.177 59.5146C665.765 76.2761 663.06 89.3579 655.811 100.949C648.329 112.913 635.678 123.81 618.358 135.187C601.059 146.551 579.997 157.842 556.156 171.041C532.455 184.163 506.319 199.01 479.505 217.223L488.495 230.458C514.681 212.671 540.295 198.112 563.906 185.039C587.378 172.044 609.191 160.352 627.142 148.56C645.072 136.783 660.046 124.352 669.377 109.432C678.94 94.1398 682.235 76.7825 677.823 56.166L662.177 59.5146ZM479.505 217.223C444.742 240.835 409.239 275.228 393.777 304.541C386.244 318.821 382.059 334.626 389.238 347.367C396.545 360.334 413.112 365.84 436 365.84V349.84C414.245 349.84 405.936 344.407 403.178 339.513C400.293 334.393 400.856 325.414 407.929 312.006C421.678 285.94 454.819 253.333 488.495 230.458L479.505 217.223ZM436 365.84C493.926 365.84 528.299 340.935 567.994 309.218C607.524 277.633 653.189 238.54 734.956 206.03L729.044 191.162C644.811 224.653 597.476 265.181 558.006 296.718C518.701 328.124 488.074 349.84 436 349.84V365.84ZM734.956 206.03C830.219 168.155 996.903 120.742 1179.14 140.55L1180.86 124.643C995.097 104.451 825.665 152.747 729.044 191.162L734.956 206.03ZM1179.14 140.55C1325.47 156.455 1401.88 186.881 1441.02 205.799L1447.98 191.394C1407.12 171.646 1328.93 140.738 1180.86 124.643L1179.14 140.55Z" fill="#C4FF79"/>
<path d="M-4.54186 274.011C-8.17905 276.519 -9.0941 281.501 -6.5857 285.138C-4.0773 288.775 0.904681 289.691 4.54186 287.182L-4.54186 274.011ZM320 114.596L322.404 122.227L320 114.596ZM670 73.8403L662.177 75.5146L670 73.8403ZM484 239.84L479.505 233.223L484 239.84ZM732 214.596L729.044 207.162L732 214.596ZM1180 148.596L1180.86 140.643L1180 148.596ZM4.54186 287.182C62.3708 247.3 206.774 158.658 322.404 122.227L317.596 106.966C199.626 144.135 53.6292 233.893 -4.54186 274.011L4.54186 287.182ZM322.404 122.227C395.112 99.3186 479.881 78.5141 547.444 68.7855C581.303 63.91 610.377 61.8872 631.315 63.5992C641.832 64.4591 649.7 66.2203 654.965 68.6441C660.159 71.0353 661.749 73.5151 662.177 75.5146L677.823 72.166C675.953 63.4313 669.446 57.6966 661.656 54.1105C653.938 50.557 643.939 48.578 632.619 47.6524C609.883 45.7934 579.406 48.0182 545.164 52.9488C476.524 62.8324 390.888 83.8742 317.596 106.966L322.404 122.227ZM662.177 75.5146C665.765 92.2761 663.06 105.358 655.811 116.949C648.329 128.913 635.678 139.81 618.358 151.187C601.059 162.551 579.997 173.842 556.156 187.041C532.455 200.163 506.319 215.01 479.505 233.223L488.495 246.458C514.681 228.671 540.295 214.112 563.906 201.039C587.378 188.044 609.191 176.352 627.142 164.56C645.072 152.783 660.046 140.352 669.377 125.432C678.94 110.14 682.235 92.7825 677.823 72.166L662.177 75.5146ZM479.505 233.223C444.742 256.835 409.239 291.228 393.777 320.541C386.244 334.821 382.059 350.626 389.238 363.367C396.545 376.334 413.112 381.84 436 381.84V365.84C414.245 365.84 405.936 360.407 403.178 355.513C400.293 350.393 400.856 341.414 407.929 328.006C421.678 301.94 454.819 269.333 488.495 246.458L479.505 233.223ZM436 381.84C493.926 381.84 528.299 356.935 567.994 325.218C607.524 293.633 653.189 254.54 734.956 222.03L729.044 207.162C644.811 240.653 597.476 281.181 558.006 312.718C518.701 344.124 488.074 365.84 436 365.84V381.84ZM734.956 222.03C830.219 184.155 996.903 136.742 1179.14 156.55L1180.86 140.643C995.097 120.451 825.665 168.747 729.044 207.162L734.956 222.03ZM1179.14 156.55C1325.47 172.455 1401.88 202.881 1441.02 221.799L1447.98 207.394C1407.12 187.646 1328.93 156.738 1180.86 140.643L1179.14 156.55Z" fill="#DDFFB3"/>
<path d="M-4.54186 287.011C-8.17905 289.519 -9.0941 294.501 -6.5857 298.138C-4.0773 301.775 0.904681 302.691 4.54186 300.182L-4.54186 287.011ZM320 127.596L322.404 135.227L320 127.596ZM670 86.8403L662.177 88.5146L670 86.8403ZM484 252.84L479.505 246.223L484 252.84ZM732 227.596L729.044 220.162L732 227.596ZM1180 161.596L1180.86 153.643L1180 161.596ZM4.54186 300.182C62.3708 260.3 206.774 171.658 322.404 135.227L317.596 119.966C199.626 157.135 53.6292 246.893 -4.54186 287.011L4.54186 300.182ZM322.404 135.227C395.112 112.319 479.881 91.5141 547.444 81.7855C581.303 76.91 610.377 74.8872 631.315 76.5992C641.832 77.4591 649.7 79.2203 654.965 81.6441C660.159 84.0353 661.749 86.5151 662.177 88.5146L677.823 85.166C675.953 76.4313 669.446 70.6966 661.656 67.1105C653.938 63.557 643.939 61.578 632.619 60.6524C609.883 58.7934 579.406 61.0182 545.164 65.9488C476.524 75.8324 390.888 96.8742 317.596 119.966L322.404 135.227ZM662.177 88.5146C665.765 105.276 663.06 118.358 655.811 129.949C648.329 141.913 635.678 152.81 618.358 164.187C601.059 175.551 579.997 186.842 556.156 200.041C532.455 213.163 506.319 228.01 479.505 246.223L488.495 259.458C514.681 241.671 540.295 227.112 563.906 214.039C587.378 201.044 609.191 189.352 627.142 177.56C645.072 165.783 660.046 153.352 669.377 138.432C678.94 123.14 682.235 105.782 677.823 85.166L662.177 88.5146ZM479.505 246.223C444.742 269.835 409.239 304.228 393.777 333.541C386.244 347.821 382.059 363.626 389.238 376.367C396.545 389.334 413.112 394.84 436 394.84V378.84C414.245 378.84 405.936 373.407 403.178 368.513C400.293 363.393 400.856 354.414 407.929 341.006C421.678 314.94 454.819 282.333 488.495 259.458L479.505 246.223ZM436 394.84C493.926 394.84 528.299 369.935 567.994 338.218C607.524 306.633 653.189 267.54 734.956 235.03L729.044 220.162C644.811 253.653 597.476 294.181 558.006 325.718C518.701 357.124 488.074 378.84 436 378.84V394.84ZM734.956 235.03C830.219 197.155 996.903 149.742 1179.14 169.55L1180.86 153.643C995.097 133.451 825.665 181.747 729.044 220.162L734.956 235.03ZM1179.14 169.55C1325.47 185.455 1401.88 215.881 1441.02 234.799L1447.98 220.394C1407.12 200.646 1328.93 169.738 1180.86 153.643L1179.14 169.55Z" fill="#F2FFE3"/>
</svg>
