<svg width="100" height="32" viewBox="0 0 100 32" fill="none" xmlns="http://www.w3.org/2000/svg">
<path d="M30.8748 8.78788H28.6731V18.1771C28.6731 18.8352 28.5286 19.42 28.2398 19.9313C27.9557 20.4427 27.5438 20.8452 27.004 21.1387C26.469 21.4276 25.8321 21.572 25.0935 21.572C24.3596 21.572 23.7251 21.4276 23.1901 21.1387C22.6551 20.8452 22.2408 20.4427 21.9472 19.9313C21.6584 19.42 21.514 18.8352 21.514 18.1771V8.78788H19.3194V18.3546C19.3194 19.3726 19.5585 20.2746 20.0367 21.0606C20.5149 21.8419 21.1873 22.4574 22.0537 22.9072C22.9202 23.3523 23.9335 23.5748 25.0935 23.5748C26.2583 23.5748 27.2739 23.3523 28.1404 22.9072C29.0069 22.4574 29.6792 21.8419 30.1574 21.0606C30.6357 20.2746 30.8748 19.3726 30.8748 18.3546V8.78788Z" fill="white"/>
<path fill-rule="evenodd" clip-rule="evenodd" d="M39.0655 23.3333H43.7743C45.2515 23.3333 46.511 23.0421 47.5527 22.4598C48.5943 21.8726 49.3898 21.0346 49.939 19.9455C50.493 18.8565 50.77 17.5544 50.77 16.0393C50.77 14.5289 50.4954 13.2339 49.9461 12.1544C49.4016 11.0701 48.618 10.2391 47.5953 9.66146C46.5726 9.07907 45.3486 8.78788 43.9234 8.78788H39.0655V23.3333ZM43.6535 21.4157H41.2601V10.7055H43.7885C44.8491 10.7055 45.7369 10.9115 46.4518 11.3234C47.1668 11.7353 47.7042 12.339 48.064 13.1345C48.4286 13.9299 48.6109 14.8982 48.6109 16.0393C48.6109 17.1899 48.4286 18.1652 48.064 18.9654C47.6995 19.7609 47.1502 20.3693 46.4163 20.7907C45.6824 21.2074 44.7615 21.4157 43.6535 21.4157Z" fill="white"/>
<path d="M60.6937 23.3333V8.78788H58.4991V23.3333H60.6937Z" fill="white"/>
<path d="M73.8968 14.4768L70.4167 8.78788H67.874L72.4834 16.0606L67.8456 23.3333H70.4025L73.8968 17.7225H74.0104L77.5047 23.3333H80.0615L75.5019 16.0606L80.0331 8.78788H77.4905L74.0104 14.4768H73.8968Z" fill="white"/>
<path fill-rule="evenodd" clip-rule="evenodd" d="M17.5 0C7.83502 0 0 7.83502 0 17.5V31.6667H82.5C92.165 31.6667 100 23.8316 100 14.1667V0H17.5ZM93.3333 0.833333V14.1667C93.3333 21.9652 88.2322 28.5723 81.1847 30.8333H82.5C91.7047 30.8333 99.1667 23.3714 99.1667 14.1667V0.833333H93.3333ZM75.8333 30.8333C85.0381 30.8333 92.5 23.3714 92.5 14.1667V0.833333H24.1667C14.9619 0.833333 7.5 8.29525 7.5 17.5V30.8333H75.8333ZM6.66667 17.5V30.8333H0.833333V17.5C0.833333 8.29525 8.29525 0.833333 17.5 0.833333H18.8153C11.7678 3.09436 6.66667 9.70147 6.66667 17.5Z" fill="white"/>
</svg>
