<svg width="152" height="47" viewBox="0 0 152 47" fill="none" xmlns="http://www.w3.org/2000/svg">
<path d="M133.47 19.8687H144.185C143.606 16.3976 141.67 14.662 138.978 14.662C136.262 14.662 134.149 16.5736 133.47 19.8687ZM139.456 36.3693C132.312 36.3693 126.125 30.8607 126.125 22.6607C126.125 14.662 131.734 8.77608 139.179 8.77608C146.801 8.77608 151.354 15.2405 151.354 22.2834C151.354 23.0632 151.253 24.3963 151.152 24.9748H133.47C134.425 28.446 137.419 30.081 140.915 30.081C144.487 30.081 147.681 28.9239 150.473 27.1884L150.574 27.289L148.939 33.9546C146.7 35.1871 143.33 36.3693 139.456 36.3693ZM112.114 14.4607C109.02 14.4607 107.184 17.1522 107.184 20.1454C107.184 23.038 109.02 25.7295 112.114 25.7295C115.208 25.7295 117.044 23.038 117.044 20.1454C117.044 17.1522 115.208 14.4607 112.114 14.4607ZM111.234 46.9589C106.983 46.9589 103.311 45.6006 100.317 43.2865L102.455 37.6018H102.556C105.273 39.8153 107.863 40.9724 111.159 40.9724C114.831 40.9724 117.145 39.0356 117.145 36.4448C117.145 33.7534 115.007 31.8166 111.259 31.8166C107.964 31.8166 105.751 32.6969 103.713 33.6528L103.612 33.5522L105.247 28.5466C102.154 26.7104 100.317 23.5411 100.317 19.7681C100.317 13.8822 105.046 8.77608 112.29 8.77608C114.906 8.77608 116.34 9.25399 118.176 9.25399C121.27 9.25399 124.062 8.29816 126.578 7.21657H126.678L124.943 13.681L120.591 13.3037C123.006 15.3411 123.886 17.6552 123.886 20.3466C123.886 23.2393 122.151 26.5092 118.579 28.3454C122.251 30.081 124.364 32.873 124.364 36.7466C124.389 42.7331 119.258 46.9589 111.234 46.9589ZM88.8223 22.0822L84.0935 10.411L79.3646 22.0822H88.8223ZM91.5389 28.6472H76.6481L73.6548 35.9669H65.9327L81.3015 0.475464H87.0867L102.455 35.9669H94.5321L91.5389 28.6472ZM49.9855 15.5172C45.8352 15.5172 43.1186 18.3092 43.1186 22.5601C43.1186 26.5092 45.8352 29.6031 50.0861 29.6031C53.2806 29.6031 56.5505 27.1883 56.5505 22.5601C56.5505 18.4098 53.5573 15.5172 49.9855 15.5172ZM56.5505 32.5963C54.1358 35.1117 51.4192 36.3693 48.3254 36.3693C41.0812 36.3693 35.5726 30.3828 35.5726 22.6607C35.5726 14.4607 41.2824 8.77608 48.5266 8.77608C51.7211 8.77608 54.2364 10.0337 56.3493 11.9706V0.500619H63.6941V35.992H56.5505V32.5963ZM23.3229 22.0822L18.5941 10.411L13.8653 22.0822H23.3229ZM26.0143 28.6472H11.1235L8.13029 35.9669H0.408203L15.7769 0.475464H21.5622L36.9309 35.9669H29.0076L26.0143 28.6472Z" fill="white"/>
</svg>
