<svg width="1440" height="900" viewBox="0 0 1440 900" fill="none" xmlns="http://www.w3.org/2000/svg">
<g clip-path="url(#clip0_410_289)">
<g style="mix-blend-mode:soft-light">
<path d="M98.1522 -6L98.1522 2502M202.652 -6L202.652 2502M307.152 -6L307.152 2502M411.652 -6L411.652 2502M516.153 -6L516.152 2502M620.653 -6L620.653 2502M725.153 -6L725.153 2502M829.653 -6L829.653 2502M934.153 -6L934.153 2502M1038.65 -6L1038.65 2502M1143.15 -6L1143.15 2502M1247.65 -6L1247.65 2502M1352.15 -6V2502M1456.65 -6L1456.65 2502M1561.15 -6V2502M1665.65 -6V2502M1770.15 -6V2502M1874.65 -6V2502M1979.15 -6L1979.15 2502M2083.65 -6V2502M2188.15 -6V2502M2292.65 -6V2502M2397.15 -6L2397.15 2502M-7 97.8469H2501M-7 202.347H2501M-7 306.847H2501M-7 411.347H2501M-7 515.847H2501M-7 620.347H2501M-7 724.847H2501M-7 829.347H2501M-7 933.847H2501M-7 1038.35H2501M-7 1142.85H2501M-7 1247.35H2501M-7 1351.85H2501M-7 1456.35H2501M-7 1560.85H2501M-7 1665.35H2501M-7 1769.85H2501M-7 1874.35H2501M-7 1978.85H2501M-7 2083.35H2501M-7 2187.85H2501M-7 2292.35H2501M-7 2396.85H2501" stroke="white" stroke-opacity="0.35"/>
<path d="M98.1522 -6L98.1522 2502M202.652 -6L202.652 2502M307.152 -6L307.152 2502M411.652 -6L411.652 2502M516.153 -6L516.152 2502M620.653 -6L620.653 2502M725.153 -6L725.153 2502M829.653 -6L829.653 2502M934.153 -6L934.153 2502M1038.65 -6L1038.65 2502M1143.15 -6L1143.15 2502M1247.65 -6L1247.65 2502M1352.15 -6V2502M1456.65 -6L1456.65 2502M1561.15 -6V2502M1665.65 -6V2502M1770.15 -6V2502M1874.65 -6V2502M1979.15 -6L1979.15 2502M2083.65 -6V2502M2188.15 -6V2502M2292.65 -6V2502M2397.15 -6L2397.15 2502M-7 97.8469H2501M-7 202.347H2501M-7 306.847H2501M-7 411.347H2501M-7 515.847H2501M-7 620.347H2501M-7 724.847H2501M-7 829.347H2501M-7 933.847H2501M-7 1038.35H2501M-7 1142.85H2501M-7 1247.35H2501M-7 1351.85H2501M-7 1456.35H2501M-7 1560.85H2501M-7 1665.35H2501M-7 1769.85H2501M-7 1874.35H2501M-7 1978.85H2501M-7 2083.35H2501M-7 2187.85H2501M-7 2292.35H2501M-7 2396.85H2501" stroke="url(#paint0_radial_410_289)" style="mix-blend-mode:overlay"/>
</g>
</g>
<defs>
<radialGradient id="paint0_radial_410_289" cx="0" cy="0" r="1" gradientUnits="userSpaceOnUse" gradientTransform="translate(1150 514) rotate(169.606) scale(343.639)">
<stop stop-color="white"/>
<stop offset="1" stop-color="#2F51C8" stop-opacity="0.66"/>
</radialGradient>
<clipPath id="clip0_410_289">
<rect width="1440" height="900" fill="white"/>
</clipPath>
</defs>
</svg>
