<svg width="110" height="78" viewBox="0 0 110 78" fill="none" xmlns="http://www.w3.org/2000/svg">
<path d="M85.0755 44.2908C80.0259 44.2908 75.2823 42.1596 70.9856 38.6707L72.0237 33.7483L72.0581 33.5524C73.0068 28.3241 75.9423 19.5347 85.072 19.5347C91.9124 19.5347 97.4604 25.0861 97.4604 31.9231C97.4604 38.7429 91.909 44.2942 85.072 44.2942L85.0755 44.2908ZM85.0755 6.99853C73.4399 6.99853 64.3961 14.5539 60.7284 26.9973C55.1427 18.5997 50.8803 8.50411 48.4122 0H35.8795V32.6002C35.8623 39.0453 30.6512 44.2564 24.2061 44.2736C17.761 44.2564 12.5499 39.0282 12.5327 32.6002V0H0V32.6002C0 45.9545 10.8656 56.8957 24.2061 56.8957C37.5604 56.8957 48.4122 45.9579 48.4122 32.6002V27.1382C50.8459 32.2049 53.8364 37.361 57.4698 41.9087L49.7906 77.9841H62.6087L68.1772 51.8084C73.048 54.9227 78.651 56.8923 85.0789 56.8923C98.8285 56.8923 110 45.6486 110 31.9162C110 18.1666 98.8285 6.99509 85.0789 6.99509L85.0755 6.99853Z" fill="white"/>
</svg>
