<svg width="318" height="352" viewBox="0 0 318 352" fill="none" xmlns="http://www.w3.org/2000/svg">
<g clip-path="url(#clip0_884_1035)">
<path d="M-9.31767 82.0621C-16.3219 69.9304 -12.1653 54.4176 -0.0335487 47.4134L43.8994 22.0487C56.0311 15.0444 71.5439 19.2011 78.5481 31.3328L141.96 141.165L205.372 250.997C212.376 263.129 208.219 278.642 196.087 285.646L152.154 311.011C140.023 318.015 124.51 313.858 117.506 301.727L-9.31767 82.0621Z" fill="#E33C2E"/>
<path d="M371.819 184.187C383.951 177.183 388.107 161.67 381.103 149.539L355.738 105.606C348.734 93.474 333.221 89.3173 321.09 96.3216L277.157 121.686C265.025 128.691 249.512 124.534 242.508 112.402L217.143 68.4693C210.139 56.3375 194.626 52.1809 182.494 59.1852L138.562 84.5498C126.43 91.5541 110.917 87.3974 103.913 75.2657L180.007 207.064C173.003 194.933 177.159 179.42 189.291 172.416L233.224 147.051C245.356 140.047 260.868 144.203 267.873 156.335L293.237 200.268C300.242 212.4 315.754 216.556 327.886 209.552L371.819 184.187Z" fill="#E33C2E"/>
</g>
<defs>
<clipPath id="clip0_884_1035">
<rect width="318" height="352" rx="30" fill="white"/>
</clipPath>
</defs>
</svg>
