<svg width="271" height="241" viewBox="0 0 271 241" fill="none" xmlns="http://www.w3.org/2000/svg">
<rect y="95.0332" width="224" height="160" rx="80" transform="rotate(-25 0 95.0332)" fill="#85EE00"/>
<path d="M108.891 135.129C109.071 134.983 109.28 134.932 109.518 134.977C109.744 134.995 109.917 135.101 110.038 135.293C110.172 135.447 110.23 135.638 110.211 135.864C110.192 136.09 110.146 136.39 110.073 136.766C110 137.141 109.844 137.772 109.606 138.659C109.382 139.508 109.115 140.3 108.805 141.034C108.496 141.768 108.048 142.504 107.462 143.243C106.901 143.97 106.289 144.488 105.627 144.797C104.964 145.106 104.331 145.246 103.728 145.217C103.125 145.188 102.625 145.08 102.227 144.893C101.83 144.706 101.417 144.386 100.989 143.934C100.549 143.456 100.238 143.089 100.057 142.833C99.8629 142.551 99.6091 142.173 99.2949 141.699C99.103 141.354 98.9587 141.111 98.8619 140.97C98.6817 141.581 98.4689 142.922 98.2237 144.991C97.929 147.486 97.6405 149.296 97.3582 150.421C97.064 151.52 96.611 152.212 95.9993 152.497C95.668 152.652 95.341 152.649 95.0182 152.489C94.67 152.341 94.3337 151.986 94.0094 151.424C93.7106 150.85 93.4152 150.15 93.1232 149.324C92.8194 148.473 92.4078 147.191 91.8885 145.478C90.7326 141.735 89.9297 139.581 89.4797 139.015C88.7439 139.699 88.2141 141.591 87.8904 144.69C87.6452 146.759 87.5033 149.648 87.4649 153.359C87.4699 153.636 87.4707 153.837 87.4672 153.963C87.4638 154.088 87.4595 154.245 87.4543 154.434C87.4628 154.585 87.4594 154.711 87.444 154.811C87.4389 155 87.4286 155.144 87.4133 155.244C87.4235 155.333 87.4082 155.433 87.3674 155.545C87.3385 155.683 87.2917 155.782 87.2271 155.843C87.149 155.942 87.0461 156.021 86.9187 156.08C86.5619 156.246 86.2238 156.187 85.9045 155.901C85.2659 155.33 84.4945 152.944 83.5903 148.743C82.6657 144.364 82.4414 141.521 82.9175 140.213C83.0535 139.84 83.2982 139.632 83.6516 139.592C84.0185 139.514 84.3235 139.635 84.5663 139.956C84.9195 140.381 85.1418 141.224 85.2332 142.484C85.3501 143.733 85.2036 144.95 84.7938 146.133C85.0635 147.776 85.4206 149.441 85.8652 151.126C85.9513 147.052 86.2266 143.883 86.6911 141.618C87.1437 139.329 87.9052 137.934 88.9756 137.435C89.3324 137.268 89.6849 137.259 90.0331 137.407C90.4187 137.569 90.7915 137.969 91.1515 138.608C91.4996 139.221 91.8306 139.998 92.1446 140.937C92.4722 141.839 92.9135 143.185 93.4686 144.974C94.4258 148.158 95.103 150.076 95.5004 150.729C95.8336 150.046 96.202 148.074 96.6055 144.814C96.8644 142.708 97.0857 141.286 97.2694 140.549C97.4667 139.774 97.7819 139.286 98.2152 139.084C98.4191 138.989 98.6213 138.956 98.8217 138.987C99.0222 139.018 99.1904 139.079 99.3262 139.171C99.4876 139.251 99.6659 139.4 99.8612 139.619C100.045 139.813 100.178 139.999 100.261 140.178C100.358 140.319 100.503 140.53 100.697 140.812C101.444 142.015 102.107 142.839 102.686 143.282C103.291 143.714 104.039 143.722 104.931 143.306C105.645 142.973 106.28 142.273 106.838 141.206C107.396 140.14 107.8 139.144 108.052 138.22C108.304 137.296 108.478 136.439 108.575 135.649C108.631 135.437 108.737 135.264 108.891 135.129Z" fill="black"/>
<path d="M137.935 103.388C138.15 103.319 138.358 103.33 138.556 103.424C138.769 103.48 138.916 103.629 138.997 103.87C139.092 104.074 139.099 104.288 139.017 104.512C138.924 104.711 138.769 104.845 138.553 104.915C135.257 106.297 131.509 108.107 127.309 110.344C127.402 111.077 127.508 111.803 127.627 112.523C128.895 121.83 130.485 129.699 132.398 136.129C133.885 141.114 135.205 143.881 136.361 144.428C136.559 144.521 136.693 144.676 136.763 144.892C136.858 145.096 136.846 145.303 136.727 145.514C136.659 145.7 136.536 145.835 136.358 145.919C136.128 146.026 135.895 146.026 135.659 145.918C134.305 145.278 132.941 142.951 131.566 138.937C130.412 135.597 129.297 131.277 128.222 125.976C127.787 123.913 127.393 121.77 127.039 119.546C126.965 120.853 126.875 122.089 126.767 123.256C126.561 126.207 126.276 128.791 125.914 131.008C125.551 133.225 125.198 134.895 124.852 136.018C124.533 137.129 124.155 138.049 123.72 138.78C123.285 139.51 122.965 139.954 122.759 140.112C122.553 140.27 122.298 140.42 121.992 140.563C121.125 140.967 120.346 140.958 119.653 140.537C119.243 140.324 118.894 139.975 118.605 139.489C118.317 139.003 118.075 138.418 117.88 137.733C117.71 137.037 117.572 136.341 117.465 135.646C117.372 134.914 117.288 134.069 117.213 133.11C116.634 134.994 116.005 136.606 115.326 137.946C114.674 139.275 113.85 140.171 112.856 140.634C112.652 140.729 112.455 140.806 112.265 140.863C112.063 140.896 111.855 140.915 111.641 140.922C111.415 140.903 111.152 140.839 110.853 140.73C110.554 140.622 110.277 140.394 110.023 140.047C109.731 139.687 109.479 139.215 109.269 138.63C108.965 137.779 108.799 136.724 108.77 135.465C108.73 134.181 108.834 132.907 109.082 131.643C109.319 130.353 109.767 129.152 110.426 128.037C111.086 126.923 111.9 126.14 112.868 125.688C113.862 125.225 114.761 125.256 115.564 125.781C116.009 126.07 116.357 126.482 116.606 127.017C116.856 127.552 116.963 128.015 116.927 128.404C116.92 128.655 116.826 128.854 116.646 129C116.492 129.134 116.295 129.21 116.055 129.229C115.829 129.21 115.636 129.129 115.477 128.987C115.331 128.807 115.267 128.604 115.286 128.378C115.288 127.849 115.085 127.447 114.677 127.172C114.368 126.975 113.997 126.977 113.563 127.179C112.646 127.607 111.904 128.512 111.338 129.893C110.772 131.274 110.443 132.73 110.351 134.263C110.284 135.783 110.444 137.058 110.831 138.088C111.121 138.976 111.475 139.37 111.893 139.268C112.248 139.165 112.621 138.898 113.01 138.468C113.399 138.039 113.713 137.582 113.953 137.098C114.218 136.602 114.494 135.961 114.779 135.176C115.078 134.354 115.297 133.725 115.435 133.288C115.561 132.826 115.734 132.233 115.955 131.51C116.248 130.473 116.461 129.8 116.595 129.489C116.743 129.141 116.932 128.913 117.161 128.806C117.404 128.662 117.644 128.643 117.88 128.75C118.104 128.832 118.27 128.988 118.377 129.217C118.484 129.446 118.551 129.725 118.58 130.053C118.634 130.369 118.688 130.949 118.74 131.793C119.06 136.205 119.641 138.649 120.484 139.125C120.694 139.244 120.965 139.227 121.297 139.072C121.449 139.001 121.591 138.904 121.72 138.782C121.874 138.647 122.057 138.407 122.268 138.061C122.479 137.714 122.672 137.298 122.849 136.812C123.051 136.314 123.258 135.66 123.469 134.848C123.705 134.024 123.92 133.086 124.112 132.034C124.304 130.983 124.497 129.699 124.689 128.182C124.87 126.639 125.016 124.957 125.129 123.136C125.417 119.496 125.588 115.537 125.642 111.261C120.929 113.863 117.048 116.386 113.999 118.831C112.947 120.501 111.746 121.651 110.395 122.281C110.064 122.435 109.804 122.51 109.615 122.505C109.251 122.457 109.005 122.262 108.876 121.918C108.747 121.575 108.844 121.251 109.167 120.945C112.676 117.292 118.147 113.453 125.579 109.429C125.106 105.554 124.882 102.478 124.906 100.201C124.907 98.805 124.99 97.8197 125.157 97.2455C125.323 96.6714 125.585 96.3011 125.942 96.1347C126.324 95.9564 126.682 95.9914 127.015 96.2395C127.978 96.9074 128.131 100.963 127.475 108.405C131.279 106.383 134.766 104.711 137.935 103.388Z" fill="black"/>
<path d="M153.157 114.86C153.337 114.714 153.54 114.65 153.766 114.669C154.006 114.651 154.199 114.731 154.345 114.911C154.491 115.092 154.555 115.295 154.536 115.521C154.457 117.015 154.276 118.589 153.992 120.242C153.394 123.686 152.497 125.687 151.299 126.245C150.738 126.507 150.172 126.523 149.599 126.293C148.84 125.996 148.113 125.202 147.418 123.912C146.712 122.597 146.103 121.191 145.59 119.692C144.522 116.87 143.79 115.365 143.392 115.178C142.83 115.503 142.314 116.891 141.844 119.344C141.523 120.984 141.157 123.792 140.746 127.769C140.332 131.406 139.975 133.9 139.673 135.25C139.41 136.614 138.985 137.433 138.399 137.706C137.965 137.908 137.565 137.816 137.198 137.428C137.039 137.285 136.888 137.061 136.745 136.755C135.663 134.436 134.205 126.583 132.369 113.198C131.664 108.159 131.09 103.601 130.648 99.5255C130.46 97.6584 130.311 96.1761 130.203 95.0786C130.14 94.1459 130.132 93.5292 130.178 93.2285C130.224 92.9278 130.387 92.7121 130.668 92.5814C130.999 92.4269 131.312 92.4669 131.608 92.7014C132.187 93.145 132.692 94.9264 133.123 98.0457C133.599 101.33 133.615 103.96 133.171 105.935C133.144 106.01 133.117 106.085 133.09 106.159C133.464 109.026 133.857 111.93 134.267 114.872C135.796 125.671 137.031 132.511 137.971 135.392C138.265 134.293 138.638 131.699 139.09 127.61C139.578 123.069 140.066 119.723 140.553 117.573C141.039 115.422 141.767 114.121 142.735 113.67C143.143 113.479 143.558 113.472 143.981 113.647C144.516 113.863 145.041 114.456 145.556 115.426C146.084 116.359 146.61 117.587 147.134 119.111C148.486 122.608 149.51 124.504 150.206 124.8C150.344 124.829 150.476 124.814 150.604 124.754C150.96 124.588 151.297 124.012 151.613 123.027C151.955 122.03 152.232 120.861 152.445 119.521C152.683 118.169 152.834 116.795 152.897 115.4C152.916 115.174 153.003 114.994 153.157 114.86Z" fill="black"/>
<path d="M166.179 108.928C166.371 108.807 166.579 108.788 166.803 108.869C167.015 108.925 167.169 109.055 167.264 109.259C167.385 109.451 167.417 109.654 167.361 109.866C167.264 110.19 167.133 110.608 166.968 111.12C166.803 111.631 166.459 112.49 165.935 113.696C165.412 114.902 164.859 116.012 164.278 117.028C163.685 118.018 162.902 119.035 161.93 120.078C160.983 121.109 159.988 121.868 158.943 122.355C157.821 122.878 156.788 122.957 155.841 122.591C154.895 122.226 154.149 121.457 153.602 120.284C152.699 118.347 152.441 116.032 152.829 113.337C153.018 111.946 153.371 110.773 153.888 109.819C154.405 108.864 155.033 108.214 155.772 107.87C156.536 107.513 157.23 107.469 157.851 107.738C158.424 107.967 158.858 108.401 159.156 109.038C159.667 110.134 159.732 111.438 159.351 112.949C158.995 114.449 158.308 115.437 157.288 115.913C156.269 116.388 155.278 116.292 154.314 115.624C154.334 117.197 154.594 118.519 155.093 119.589C155.438 120.328 155.865 120.812 156.374 121.039C156.884 121.267 157.508 121.209 158.247 120.864C158.91 120.555 159.558 120.114 160.19 119.54C160.835 118.928 161.394 118.296 161.864 117.642C162.335 116.988 162.789 116.264 163.226 115.471C163.676 114.64 164.049 113.908 164.343 113.275C164.625 112.616 164.882 111.968 165.113 111.333C165.37 110.686 165.533 110.237 165.603 109.988C165.672 109.738 165.728 109.557 165.768 109.445C165.85 109.221 165.987 109.048 166.179 108.928ZM156.467 109.361C155.983 109.586 155.554 110.097 155.18 110.892C154.831 111.675 154.58 112.599 154.425 113.664C154.562 113.693 154.668 113.753 154.741 113.843C155.389 114.502 156.007 114.695 156.593 114.422C156.975 114.243 157.281 113.868 157.511 113.296C157.754 112.686 157.891 112.048 157.922 111.382C157.952 110.716 157.867 110.166 157.665 109.733C157.546 109.478 157.393 109.317 157.206 109.249C157.045 109.169 156.798 109.206 156.467 109.361Z" fill="black"/>
<path d="M181.955 112.136C181.447 113.708 180.657 114.743 179.587 115.242C178.032 115.967 176.473 115.685 174.911 114.397C174.099 113.721 173.356 112.826 172.682 111.713C171.77 114.682 170.576 116.512 169.097 117.201C168.256 117.593 167.544 117.429 166.96 116.709C166.131 115.73 165.737 113.555 165.779 110.185C165.839 107.054 166.046 105.235 166.4 104.729C166.662 104.359 166.998 104.248 167.409 104.398C167.745 104.52 168.001 104.836 168.176 105.344C168.361 105.94 168.412 106.614 168.328 107.367C168.27 108.108 168.025 108.78 167.594 109.385C167.566 109.46 167.515 109.515 167.438 109.551C167.424 110.053 167.412 110.525 167.4 110.965C167.42 112.073 167.488 113.018 167.605 113.801C167.722 114.584 167.847 115.085 167.979 115.302C168.1 115.494 168.203 115.648 168.287 115.764C168.313 115.752 168.351 115.734 168.402 115.71C169.065 115.401 169.683 114.632 170.258 113.402C170.833 112.172 171.259 110.856 171.536 109.455C170.655 107.166 170.724 105.784 171.743 105.309C172.049 105.166 172.358 105.162 172.669 105.296C172.905 105.404 173.088 105.597 173.219 105.878C173.516 106.515 173.529 107.641 173.259 109.257C173.909 110.784 174.725 112.002 175.706 112.909C176.836 113.934 177.898 114.214 178.892 113.751C179.529 113.454 180.026 112.757 180.383 111.659C180.839 110.175 180.945 108.341 180.703 106.158C180.449 103.949 179.806 101.906 178.776 100.028C178.728 99.9265 178.681 99.8245 178.633 99.7226C178.621 99.6971 178.609 99.6716 178.598 99.6461C178.609 99.6716 178.615 99.6843 178.615 99.6843C178.508 99.455 178.457 99.2774 178.46 99.1517C178.521 98.7508 178.735 98.5113 179.102 98.4333C179.495 98.3433 179.793 98.4836 179.997 98.854C180.07 98.9441 180.13 99.0401 180.178 99.142C180.891 100.206 181.799 100.822 182.901 100.99C184.831 101.27 187.053 100.047 189.569 97.3227C189.672 97.2123 189.794 97.1402 189.933 97.1062C190.072 97.0723 190.211 97.0698 190.348 97.0987C190.512 97.1158 190.648 97.1761 190.759 97.2798C190.918 97.4225 191.007 97.6137 191.026 97.8532C191.033 98.0673 190.952 98.2601 190.784 98.4316C187.387 102.126 184.3 103.425 181.525 102.33C182.07 104.031 182.381 105.763 182.458 107.527C182.55 109.253 182.382 110.789 181.955 112.136Z" fill="black"/>
<path d="M163.108 137.513C162.522 137.786 161.952 137.883 161.4 137.804C160.847 137.724 160.343 137.495 159.889 137.115C159.434 136.735 159.061 136.233 158.77 135.609C158.473 134.974 158.329 134.358 158.336 133.764C158.344 133.165 158.495 132.63 158.788 132.159C159.082 131.685 159.512 131.316 160.076 131.053C160.516 130.848 160.951 130.744 161.38 130.743C161.808 130.741 162.204 130.834 162.566 131.022C162.928 131.21 163.228 131.487 163.464 131.853L162.503 132.301C162.297 132.05 162.016 131.874 161.661 131.772C161.307 131.665 160.919 131.711 160.495 131.909C160.121 132.083 159.838 132.334 159.646 132.661C159.457 132.985 159.365 133.359 159.372 133.786C159.381 134.208 159.495 134.656 159.716 135.128C159.941 135.611 160.213 135.997 160.532 136.284C160.854 136.571 161.201 136.748 161.573 136.815C161.948 136.882 162.326 136.827 162.706 136.649C162.956 136.533 163.162 136.384 163.325 136.202C163.488 136.02 163.603 135.815 163.668 135.586C163.733 135.357 163.742 135.115 163.696 134.859L164.657 134.411C164.775 134.805 164.795 135.201 164.719 135.597C164.644 135.989 164.472 136.353 164.203 136.69C163.935 137.023 163.57 137.297 163.108 137.513Z" fill="black"/>
<path d="M169.515 134.525C168.95 134.789 168.392 134.885 167.84 134.815C167.291 134.744 166.785 134.522 166.321 134.151C165.859 133.777 165.477 133.268 165.176 132.622C164.872 131.97 164.725 131.346 164.735 130.75C164.747 130.152 164.902 129.62 165.201 129.154C165.501 128.687 165.934 128.321 166.499 128.058C167.064 127.794 167.621 127.698 168.17 127.77C168.721 127.84 169.228 128.063 169.691 128.439C170.157 128.813 170.542 129.326 170.845 129.978C171.147 130.624 171.291 131.245 171.277 131.839C171.266 132.433 171.11 132.963 170.809 133.431C170.511 133.897 170.08 134.262 169.515 134.525ZM169.112 133.662C169.541 133.462 169.843 133.187 170.017 132.838C170.192 132.489 170.262 132.104 170.228 131.684C170.194 131.264 170.079 130.844 169.884 130.426C169.689 130.008 169.441 129.649 169.14 129.35C168.838 129.051 168.497 128.855 168.116 128.761C167.736 128.668 167.331 128.721 166.902 128.921C166.473 129.121 166.172 129.397 165.999 129.749C165.825 130.101 165.756 130.488 165.792 130.911C165.827 131.335 165.942 131.755 166.137 132.173C166.332 132.591 166.58 132.949 166.88 133.245C167.18 133.541 167.52 133.735 167.9 133.826C168.279 133.917 168.683 133.862 169.112 133.662Z" fill="black"/>
<path d="M176.358 131.334C175.793 131.598 175.235 131.694 174.684 131.624C174.135 131.553 173.628 131.331 173.164 130.959C172.702 130.586 172.321 130.077 172.019 129.43C171.716 128.779 171.568 128.155 171.578 127.559C171.59 126.961 171.746 126.429 172.044 125.963C172.345 125.496 172.778 125.13 173.342 124.867C173.907 124.603 174.464 124.507 175.013 124.579C175.564 124.649 176.072 124.872 176.535 125.247C177 125.622 177.385 126.135 177.689 126.787C177.99 127.433 178.134 128.053 178.12 128.648C178.109 129.242 177.954 129.772 177.653 130.24C177.354 130.706 176.923 131.071 176.358 131.334ZM175.956 130.471C176.385 130.271 176.686 129.996 176.861 129.647C177.035 129.298 177.105 128.913 177.071 128.493C177.037 128.072 176.922 127.653 176.728 127.235C176.533 126.817 176.284 126.458 175.983 126.159C175.681 125.86 175.34 125.664 174.96 125.57C174.579 125.477 174.174 125.53 173.745 125.73C173.316 125.93 173.015 126.206 172.842 126.558C172.669 126.91 172.6 127.297 172.635 127.72C172.67 128.143 172.786 128.564 172.981 128.982C173.176 129.4 173.423 129.758 173.723 130.054C174.023 130.35 174.363 130.544 174.743 130.635C175.122 130.726 175.527 130.671 175.956 130.471Z" fill="black"/>
<path d="M181.33 128.936C181.129 129.03 180.923 129.039 180.712 128.962C180.501 128.885 180.349 128.746 180.255 128.545C180.162 128.344 180.153 128.138 180.23 127.927C180.307 127.716 180.446 127.564 180.646 127.47C180.847 127.377 181.053 127.368 181.264 127.445C181.475 127.522 181.628 127.661 181.721 127.862C181.783 127.995 181.806 128.133 181.791 128.276C181.777 128.417 181.731 128.548 181.651 128.668C181.573 128.784 181.466 128.873 181.33 128.936Z" fill="black"/>
</svg>
