<svg width="271" height="241" viewBox="0 0 271 241" fill="none" xmlns="http://www.w3.org/2000/svg">
<rect y="95.0566" width="224" height="160" rx="80" transform="rotate(-25 0 95.0566)" fill="#85EE00"/>
<path d="M111.218 124.013L116.816 136.019L108.577 147.168L102.979 135.163L111.218 124.013Z" fill="black"/>
<path d="M102.979 135.163L108.577 147.168L100.317 158.328L94.719 146.323L102.979 135.163Z" fill="black"/>
<path d="M100.317 158.328L86.4803 157.472L80.8821 145.467L94.719 146.323L100.317 158.328Z" fill="black"/>
<path d="M75.2839 133.462L83.5227 122.312L97.3808 123.158L89.1208 134.317L75.2839 133.462Z" fill="black"/>
<path d="M94.719 146.323L80.8821 145.467L75.2839 133.462L89.1208 134.317L94.719 146.323Z" fill="black"/>
<path d="M128.353 120.262L127.837 119.157L129.897 105.879L123.046 109.074L122.416 107.723L131.085 103.681L131.6 104.786L129.54 118.064L136.391 114.869L137.021 116.22L128.353 120.262Z" fill="black"/>
<path d="M141.963 98.6085L143.485 97.8985L147.367 106.223C147.768 107.083 147.923 107.944 147.833 108.809C147.745 109.667 147.425 110.461 146.874 111.192C146.321 111.918 145.551 112.511 144.565 112.971C143.578 113.431 142.629 113.639 141.717 113.596C140.803 113.549 139.987 113.284 139.269 112.802C138.553 112.314 137.995 111.64 137.594 110.781L133.712 102.456L135.235 101.746L139.059 109.948C139.345 110.562 139.735 111.045 140.229 111.398C140.72 111.747 141.279 111.942 141.907 111.983C142.536 112.019 143.201 111.873 143.9 111.547C144.6 111.22 145.139 110.805 145.516 110.3C145.892 109.791 146.102 109.237 146.147 108.638C146.194 108.034 146.074 107.424 145.788 106.81L141.963 98.6085Z" fill="black"/>
<path d="M146.526 96.4808L148.343 95.6334L157.482 104.077L157.63 104.009L157.036 91.5798L158.853 90.7325L164.716 103.305L163.292 103.969L158.837 94.417L158.715 94.4743L159.24 105.859L157.865 106.5L149.481 98.7798L149.359 98.837L153.813 108.389L152.389 109.054L146.526 96.4808Z" fill="black"/>
<path d="M168.284 101.641L166.688 102.386L165.442 87.6601L167.014 86.9272L177.493 97.3473L175.897 98.0916L167.204 89.2598L167.106 89.3056L168.284 101.641ZM166.583 96.4553L173.017 93.4552L173.647 94.8058L167.213 97.8059L166.583 96.4553Z" fill="black"/>
<path d="M179.451 96.4341L173.588 83.8613L177.837 81.8803C178.819 81.4222 179.703 81.2141 180.49 81.2558C181.275 81.2934 181.954 81.5321 182.528 81.9721C183.102 82.412 183.562 83.0024 183.907 83.7432C184.253 84.484 184.408 85.2114 184.372 85.9257C184.336 86.6399 184.082 87.3067 183.608 87.9261C183.133 88.5414 182.408 89.0762 181.434 89.5304L177.996 91.1335L177.355 89.7584L180.744 88.1781C181.415 87.8651 181.909 87.515 182.227 87.1277C182.549 86.7385 182.718 86.3209 182.734 85.8748C182.752 85.4228 182.644 84.9451 182.409 84.4417C182.175 83.9383 181.875 83.5422 181.511 83.2535C181.148 82.9647 180.711 82.8144 180.203 82.8025C179.692 82.7865 179.097 82.937 178.417 83.2538L175.741 84.5019L180.974 95.7241L179.451 96.4341ZM182.736 88.0265L188.463 92.2317L186.695 93.0561L181.017 88.8281L182.736 88.0265Z" fill="black"/>
<path d="M142.918 123.993L141.395 124.703C141.101 124.307 140.764 123.996 140.385 123.769C140.009 123.541 139.609 123.389 139.185 123.312C138.763 123.23 138.333 123.221 137.895 123.286C137.456 123.351 137.029 123.481 136.611 123.675C135.85 124.03 135.25 124.544 134.811 125.217C134.377 125.888 134.152 126.683 134.137 127.602C134.126 128.519 134.375 129.522 134.882 130.61C135.39 131.699 135.998 132.534 136.708 133.115C137.421 133.694 138.175 134.033 138.968 134.131C139.765 134.228 140.545 134.099 141.306 133.744C141.724 133.549 142.098 133.305 142.429 133.011C142.76 132.717 143.031 132.384 143.241 132.012C143.454 131.633 143.593 131.227 143.66 130.793C143.728 130.352 143.706 129.894 143.594 129.418L145.117 128.708C145.302 129.404 145.361 130.076 145.295 130.725C145.229 131.374 145.053 131.981 144.769 132.547C144.483 133.109 144.103 133.613 143.628 134.059C143.157 134.502 142.605 134.872 141.97 135.168C140.898 135.668 139.822 135.851 138.743 135.716C137.664 135.581 136.66 135.143 135.73 134.4C134.801 133.658 134.027 132.623 133.409 131.297C132.791 129.971 132.496 128.714 132.524 127.525C132.553 126.335 132.862 125.284 133.453 124.371C134.043 123.458 134.875 122.751 135.947 122.251C136.581 121.955 137.22 121.77 137.862 121.694C138.509 121.617 139.14 121.652 139.757 121.798C140.371 121.94 140.948 122.194 141.487 122.56C142.025 122.922 142.502 123.4 142.918 123.993Z" fill="black"/>
<path d="M157.086 120.257C157.704 121.583 157.999 122.84 157.971 124.029C157.942 125.219 157.633 126.27 157.042 127.183C156.451 128.096 155.62 128.803 154.548 129.303C153.475 129.803 152.4 129.986 151.32 129.851C150.241 129.717 149.237 129.278 148.308 128.535C147.378 127.793 146.605 126.758 145.986 125.432C145.368 124.106 145.073 122.849 145.102 121.66C145.13 120.47 145.439 119.419 146.03 118.506C146.621 117.593 147.452 116.886 148.525 116.386C149.597 115.886 150.673 115.703 151.752 115.838C152.831 115.973 153.835 116.411 154.764 117.154C155.694 117.896 156.467 118.931 157.086 120.257ZM155.612 120.944C155.105 119.855 154.494 119.021 153.781 118.442C153.071 117.861 152.318 117.522 151.52 117.426C150.727 117.327 149.95 117.456 149.189 117.81C148.427 118.165 147.827 118.679 147.389 119.352C146.954 120.023 146.73 120.818 146.715 121.737C146.704 122.654 146.952 123.657 147.46 124.745C147.967 125.834 148.576 126.669 149.285 127.25C149.999 127.829 150.752 128.168 151.546 128.266C152.343 128.363 153.122 128.234 153.883 127.879C154.645 127.524 155.243 127.011 155.677 126.34C156.116 125.667 156.34 124.872 156.351 123.955C156.366 123.036 156.12 122.032 155.612 120.944Z" fill="black"/>
<path d="M166.684 108.127L172.547 120.7L171.074 121.387L159.619 114.71L159.496 114.768L164.1 124.639L162.577 125.349L156.714 112.776L158.188 112.089L169.678 118.779L169.801 118.722L165.186 108.826L166.684 108.127Z" fill="black"/>
<path d="M178.072 106.644C177.709 106.056 177.185 105.712 176.5 105.613C175.816 105.513 175.093 105.641 174.332 105.996C173.776 106.256 173.331 106.573 172.997 106.948C172.668 107.32 172.46 107.719 172.373 108.143C172.291 108.565 172.344 108.976 172.531 109.377C172.687 109.713 172.902 109.964 173.174 110.131C173.448 110.292 173.749 110.394 174.078 110.435C174.404 110.472 174.73 110.477 175.056 110.449C175.38 110.418 175.673 110.378 175.935 110.331L177.372 110.079C177.74 110.013 178.159 109.962 178.631 109.926C179.107 109.888 179.59 109.915 180.081 110.005C180.573 110.089 181.035 110.277 181.465 110.57C181.896 110.863 182.248 111.304 182.523 111.893C182.84 112.572 182.948 113.269 182.848 113.984C182.751 114.696 182.439 115.373 181.91 116.013C181.386 116.651 180.641 117.195 179.675 117.646C178.774 118.066 177.927 118.284 177.133 118.3C176.342 118.315 175.638 118.151 175.019 117.806C174.404 117.46 173.912 116.955 173.542 116.29L175.113 115.557C175.376 116.013 175.719 116.331 176.142 116.513C176.567 116.688 177.03 116.751 177.531 116.702C178.033 116.647 178.534 116.503 179.034 116.271C179.615 116 180.093 115.662 180.467 115.258C180.84 114.85 181.082 114.413 181.194 113.948C181.304 113.478 181.252 113.014 181.038 112.555C180.843 112.138 180.568 111.853 180.213 111.7C179.858 111.546 179.451 111.477 178.994 111.49C178.537 111.504 178.059 111.553 177.56 111.636L175.807 111.916C174.693 112.091 173.727 112.051 172.91 111.794C172.093 111.537 171.487 110.985 171.092 110.138C170.763 109.434 170.667 108.732 170.804 108.03C170.942 107.323 171.267 106.673 171.778 106.081C172.292 105.483 172.949 104.997 173.752 104.623C174.562 104.245 175.35 104.054 176.116 104.051C176.88 104.043 177.562 104.204 178.163 104.531C178.769 104.857 179.229 105.332 179.546 105.957L178.072 106.644Z" fill="black"/>
</svg>
